<svg xmlns="http://www.w3.org/2000/svg" xmlns:xlink="http://www.w3.org/1999/xlink" version="1.1" viewBox="0 0 3254 2654" style="background: #ffffff"><defs joint-selector="defs"></defs><g joint-selector="layers"  transform="matrix(1,0,0,1,0,0)"><g ></g><g ><!--z-index:0--><!--z-index:1--><!--z-index:2--><!--z-index:3--><!--z-index:4--><!--z-index:5--><!--z-index:6--><!--z-index:7--><!--z-index:8--><!--z-index:9--><!--z-index:10--><!--z-index:11--><!--z-index:12--><!--z-index:13--><!--z-index:14--><!--z-index:15--><!--z-index:16--><!--z-index:17--><!--z-index:18--><!--z-index:19--><!--z-index:20--><!--z-index:21--><!--z-index:22--><!--z-index:23--><!--z-index:24--><!--z-index:25--><!--z-index:26--><!--z-index:27--><!--z-index:28--><g   id="j_226"  transform="translate(20,2617.6)"><g id="v-3655"><text  id="v-3656" font-size="22px" xml:space="preserve" y="0.8em" font-weight="normal" text-anchor="start" fill="#aaaaaa" pointer-events="none" display="block" font-family="Arial"><tspan dy="0"  display="block">пятница, 13 марта 2026 г. в 17:48 Москва, стандартное время</tspan></text></g></g><!--z-index:29--><g   id="j_225"  transform="translate(20,2591.2)"><g id="v-3653"><text  id="v-3654" font-size="22px" xml:space="preserve" y="0.8em" font-weight="normal" text-anchor="start" fill="#aaaaaa" pointer-events="none" display="block" font-family="Arial"><tspan dy="0"  display="block">Динамическая диаграмма процесса отправки P2P-сообщения</tspan></text></g></g><!--z-index:30--><g   id="j_224"  transform="translate(20,2548)"><g id="v-3651"><text  id="v-3652" font-size="36px" xml:space="preserve" y="0.8em" font-weight="normal" text-anchor="start" fill="#000000" pointer-events="none" display="block" font-family="Arial"><tspan dy="0"  display="block">[Dynamic] Social network</tspan></text></g></g><!--z-index:31--><g   id="j_227"  transform="translate(1079,2129)" style=""><g  id="v-3660" style="opacity: 1;"><rect  x="0" y="160" width="400" height="240" rx="70" id="v-3662" stroke="#073b6f" stroke-width="2" pointer-events="visiblePainted" fill="#08427b" style="fill: rgb(8, 66, 123); stroke: rgb(7, 59, 111);"></rect><circle  cx="200" cy="88.88888888888889" r="88.88888888888889" id="v-3661" stroke="#073b6f" stroke-width="2" pointer-events="visiblePainted" fill="#08427b" style="fill: rgb(8, 66, 123); stroke: rgb(7, 59, 111);"></circle><line  x1="80" y1="266.6666666666667" x2="80" y2="400" id="v-3668" stroke="#073b6f" stroke-width="2" style="stroke: rgb(7, 59, 111);"></line><line  x1="320" y1="266.6666666666667" x2="320" y2="400" id="v-3669" stroke="#073b6f" stroke-width="2" style="stroke: rgb(7, 59, 111);"></line><text  id="v-3663" font-size="34" xml:space="preserve" y="0.8em" font-weight="bold" text-anchor="middle" pointer-events="visible" font-family="Arial" fill="#ffffff" transform="matrix(1,0,0,1,200,211.1)" style="fill: rgb(255, 255, 255);"><tspan dy="0" >Авторизированный</tspan><tspan dy="1.2em" x="0" >пользователь</tspan><tspan dy="1.2em" x="0" >(отправитель)</tspan></text><text  id="v-3664" font-size="17" xml:space="preserve" y="0.8em" text-anchor="middle" font-family="Arial" fill="#ffffff" transform="matrix(1,0,0,1,200,333.5)" style="fill: rgb(255, 255, 255);"><tspan dy="0" >[Person]</tspan></text><text  id="v-3665" font-size="24" xml:space="preserve" display="none" y="0.8em" text-anchor="middle" font-family="Arial" fill="#ffffff" transform="matrix(1,0,0,1,200,353.9)" style="fill: rgb(255, 255, 255);"><tspan dy="0" style="fill-opacity: 0; stroke-opacity: 0;" >-</tspan></text><g  id="v-3666" font-weight="normal" text-anchor="middle" color="#ffffff" transform="matrix(1,0,0,1,200,368)" display="none" style="fill: rgb(255, 255, 255);"><g ></g><g ></g><g ></g><g ></g></g><image  id="v-3667"></image></g></g><!--z-index:32--><g   id="j_228"  transform="translate(2579,1529)" style=""><g  id="v-3673" style="opacity: 1;"><rect  x="0" y="160" width="400" height="240" rx="70" id="v-3675" stroke="#073b6f" stroke-width="2" pointer-events="visiblePainted" fill="#08427b" style="fill: rgb(8, 66, 123); stroke: rgb(7, 59, 111);"></rect><circle  cx="200" cy="88.88888888888889" r="88.88888888888889" id="v-3674" stroke="#073b6f" stroke-width="2" pointer-events="visiblePainted" fill="#08427b" style="fill: rgb(8, 66, 123); stroke: rgb(7, 59, 111);"></circle><line  x1="80" y1="266.6666666666667" x2="80" y2="400" id="v-3681" stroke="#073b6f" stroke-width="2" style="stroke: rgb(7, 59, 111);"></line><line  x1="320" y1="266.6666666666667" x2="320" y2="400" id="v-3682" stroke="#073b6f" stroke-width="2" style="stroke: rgb(7, 59, 111);"></line><text  id="v-3676" font-size="34" xml:space="preserve" y="0.8em" font-weight="bold" text-anchor="middle" pointer-events="visible" font-family="Arial" fill="#ffffff" transform="matrix(1,0,0,1,200,211.1)" style="fill: rgb(255, 255, 255);"><tspan dy="0" >Авторизированный</tspan><tspan dy="1.2em" x="0" >пользователь</tspan><tspan dy="1.2em" x="0" >(получатель)</tspan></text><text  id="v-3677" font-size="17" xml:space="preserve" y="0.8em" text-anchor="middle" font-family="Arial" fill="#ffffff" transform="matrix(1,0,0,1,200,333.5)" style="fill: rgb(255, 255, 255);"><tspan dy="0" >[Person]</tspan></text><text  id="v-3678" font-size="24" xml:space="preserve" display="none" y="0.8em" text-anchor="middle" font-family="Arial" fill="#ffffff" transform="matrix(1,0,0,1,200,353.9)" style="fill: rgb(255, 255, 255);"><tspan dy="0" style="fill-opacity: 0; stroke-opacity: 0;" >-</tspan></text><g  id="v-3679" font-weight="normal" text-anchor="middle" color="#ffffff" transform="matrix(1,0,0,1,200,368)" display="none" style="fill: rgb(255, 255, 255);"><g ></g><g ></g><g ></g><g ></g></g><image  id="v-3680"></image></g></g><!--z-index:33--><g   id="j_230"  transform="translate(309,309)" style=""><g id="v-3694"><rect  id="v-3695" width="1990" height="1611" rx="0" ry="0" fill="#ffffff" stroke="#1168bd" stroke-width="1" stroke-dasharray="20,20" pointer-events="none"></rect><text  id="v-3696" font-size="24px" xml:space="preserve" y="1572" font-weight="normal" fill="#1168bd" text-anchor="start" pointer-events="visible" font-family="Arial" transform="matrix(1,0,0,1,15,0)"><tspan dy="0" >Social network</tspan></text><text  id="v-3697" font-size="17px" xml:space="preserve" y="1596" font-weight="normal" fill="#1168bd" text-anchor="start" pointer-events="visible" font-family="Arial" transform="matrix(1,0,0,1,15,0)"><tspan dy="0" >[Software System]</tspan></text><image  id="v-3698" pointer-events="visible"></image></g></g><!--z-index:34--><g   id="j_229"  transform="translate(329,1529)" style=""><g  id="v-3686" style="opacity: 1;"><path  d="M 0,30 a 225,30 0,0,0 450 0 a 225,30 0,0,0 -450 0 l 0,240 a 225,30 0,0,0 450 0 l 0,-240" id="v-3687" stroke="#cfcfe1" stroke-width="2" pointer-events="visiblePainted" fill="#e6e6fa" style="fill: rgb(230, 230, 250); stroke: rgb(207, 207, 225);"></path><rect  id="v-3688" stroke-width="0" pointer-events="visiblePainted" fill="none" stroke="none" width="450" height="270" x="0" y="30"></rect><text  id="v-3689" font-size="34" xml:space="preserve" y="0.8em" font-weight="bold" text-anchor="middle" pointer-events="visible" font-family="Arial" fill="#000000" transform="matrix(1,0,0,1,225,125)" style="fill: rgb(0, 0, 0);"><tspan dy="0" >User Database</tspan></text><text  id="v-3690" font-size="17" xml:space="preserve" y="0.8em" text-anchor="middle" font-family="Arial" fill="#000000" transform="matrix(1,0,0,1,225,165.8)" style="fill: rgb(0, 0, 0);"><tspan dy="0" >[Container: PostgreSQL]</tspan></text><text  id="v-3691" font-size="24" xml:space="preserve" y="0.8em" text-anchor="middle" font-family="Arial" fill="#000000" transform="matrix(1,0,0,1,225,196.2)" style="fill: rgb(0, 0, 0);"><tspan dy="0" >Хранит данные пользователей</tspan></text><g  id="v-3692" font-weight="normal" text-anchor="middle" color="#000000" transform="matrix(1,0,0,1,225,268)" display="none" style="fill: rgb(0, 0, 0);"><g ></g><g ></g><g ></g><g ></g></g><image  id="v-3693"></image></g></g><!--z-index:35--><g   id="j_231"  transform="translate(1829,929)" style=""><g  id="v-3702" style="opacity: 1;"><path  d="M 0,30 a 225,30 0,0,0 450 0 a 225,30 0,0,0 -450 0 l 0,240 a 225,30 0,0,0 450 0 l 0,-240" id="v-3703" stroke="#cfcfe1" stroke-width="2" pointer-events="visiblePainted" fill="#e6e6fa" style="fill: rgb(230, 230, 250); stroke: rgb(207, 207, 225);"></path><rect  id="v-3704" stroke-width="0" pointer-events="visiblePainted" fill="none" stroke="none" width="450" height="270" x="0" y="30"></rect><text  id="v-3705" font-size="34" xml:space="preserve" y="0.8em" font-weight="bold" text-anchor="middle" pointer-events="visible" font-family="Arial" fill="#000000" transform="matrix(1,0,0,1,225,110.6)" style="fill: rgb(0, 0, 0);"><tspan dy="0" >Chat Database</tspan></text><text  id="v-3706" font-size="17" xml:space="preserve" y="0.8em" text-anchor="middle" font-family="Arial" fill="#000000" transform="matrix(1,0,0,1,225,151.4)" style="fill: rgb(0, 0, 0);"><tspan dy="0" >[Container: MongoDB]</tspan></text><text  id="v-3707" font-size="24" xml:space="preserve" y="0.8em" text-anchor="middle" font-family="Arial" fill="#000000" transform="matrix(1,0,0,1,225,181.8)" style="fill: rgb(0, 0, 0);"><tspan dy="0" >Хранит историю P2P-сообщений,</tspan><tspan dy="1.2em" x="0" >чаты, статус доставки сообщений</tspan></text><g  id="v-3708" font-weight="normal" text-anchor="middle" color="#000000" transform="matrix(1,0,0,1,225,268)" display="none" style="fill: rgb(0, 0, 0);"><g ></g><g ></g><g ></g><g ></g></g><image  id="v-3709"></image></g></g><!--z-index:36--><g   id="j_232"  transform="translate(1079,329)" style=""><g  id="v-3716" style="opacity: 1;"><rect  id="v-3717" rx="20" ry="20" stroke="#3c7fc0" stroke-width="2" pointer-events="visiblePainted" fill="#438dd5" width="450" height="300" style="fill: rgb(67, 141, 213); stroke: rgb(60, 127, 192);"></rect><text  id="v-3718" font-size="34" xml:space="preserve" y="0.8em" font-weight="bold" text-anchor="middle" pointer-events="visible" font-family="Arial" fill="#ffffff" transform="matrix(1,0,0,1,225,73.7)" style="fill: rgb(255, 255, 255);"><tspan dy="0" >Chat Service</tspan></text><text  id="v-3719" font-size="17" xml:space="preserve" y="0.8em" text-anchor="middle" font-family="Arial" fill="#ffffff" transform="matrix(1,0,0,1,225,114.5)" style="fill: rgb(255, 255, 255);"><tspan dy="0" >[Container: Go, Gorilla WebSocket]</tspan></text><text  id="v-3720" font-size="24" xml:space="preserve" y="0.8em" text-anchor="middle" font-family="Arial" fill="#ffffff" transform="matrix(1,0,0,1,225,144.9)" style="fill: rgb(255, 255, 255);"><tspan dy="0" >Отправка P2P-сообщений,</tspan><tspan dy="1.2em" x="0" >получение списка сообщений,</tspan><tspan dy="1.2em" x="0" >доставка через WebSocket</tspan></text><g  id="v-3721" color="#ffffff" transform="matrix(1,0,0,1,0,268)" display="none" style="fill: rgb(255, 255, 255);"><g ></g><g ></g><g ></g><g ></g></g><image  id="v-3722"></image></g></g><!--z-index:37--><g   id="j_233"  transform="translate(329,929)" style=""><g  id="v-3726" style="opacity: 1;"><rect  id="v-3727" rx="20" ry="20" stroke="#3c7fc0" stroke-width="2" pointer-events="visiblePainted" fill="#438dd5" width="450" height="300" style="fill: rgb(67, 141, 213); stroke: rgb(60, 127, 192);"></rect><text  id="v-3728" font-size="34" xml:space="preserve" y="0.8em" font-weight="bold" text-anchor="middle" pointer-events="visible" font-family="Arial" fill="#ffffff" transform="matrix(1,0,0,1,225,88.1)" style="fill: rgb(255, 255, 255);"><tspan dy="0" >User Service</tspan></text><text  id="v-3729" font-size="17" xml:space="preserve" y="0.8em" text-anchor="middle" font-family="Arial" fill="#ffffff" transform="matrix(1,0,0,1,225,128.9)" style="fill: rgb(255, 255, 255);"><tspan dy="0" >[Container: Spring Boot]</tspan></text><text  id="v-3730" font-size="24" xml:space="preserve" y="0.8em" text-anchor="middle" font-family="Arial" fill="#ffffff" transform="matrix(1,0,0,1,225,159.3)" style="fill: rgb(255, 255, 255);"><tspan dy="0" >Создание пользователя, поиск по</tspan><tspan dy="1.2em" x="0" >маске и логину</tspan></text><g  id="v-3731" color="#ffffff" transform="matrix(1,0,0,1,0,268)" display="none" style="fill: rgb(255, 255, 255);"><g ></g><g ></g><g ></g><g ></g></g><image  id="v-3732"></image></g></g><!--z-index:38--><g   id="j_234"  transform="translate(1079,929)" style=""><g  id="v-3739" style="opacity: 1;"><rect  id="v-3740" rx="20" ry="20" stroke="#3c7fc0" stroke-width="2" pointer-events="visiblePainted" fill="#438dd5" width="450" height="300" style="fill: rgb(67, 141, 213); stroke: rgb(60, 127, 192);"></rect><text  id="v-3741" font-size="34" xml:space="preserve" y="0.8em" font-weight="bold" text-anchor="middle" pointer-events="visible" font-family="Arial" fill="#ffffff" transform="matrix(1,0,0,1,225,88.1)" style="fill: rgb(255, 255, 255);"><tspan dy="0" >API Gateway</tspan></text><text  id="v-3742" font-size="17" xml:space="preserve" y="0.8em" text-anchor="middle" font-family="Arial" fill="#ffffff" transform="matrix(1,0,0,1,225,128.9)" style="fill: rgb(255, 255, 255);"><tspan dy="0" >[Container: Spring Cloud Gateway]</tspan></text><text  id="v-3743" font-size="24" xml:space="preserve" y="0.8em" text-anchor="middle" font-family="Arial" fill="#ffffff" transform="matrix(1,0,0,1,225,159.3)" style="fill: rgb(255, 255, 255);"><tspan dy="0" >Единая точка входа, маршрутизация,</tspan><tspan dy="1.2em" x="0" >аутентификация</tspan></text><g  id="v-3744" color="#ffffff" transform="matrix(1,0,0,1,0,268)" display="none" style="fill: rgb(255, 255, 255);"><g ></g><g ></g><g ></g><g ></g></g><image  id="v-3745"></image></g></g><!--z-index:39--><g   id="j_235"  transform="translate(1079,1529)" style=""><g  id="v-3749" style="opacity: 1;"><rect  id="v-3750" rx="10" ry="10" stroke="#a6bfcc" stroke-width="2" pointer-events="visiblePainted" fill="#a6bfcc" width="450" height="300" style="fill: rgb(166, 191, 204); stroke: rgb(166, 191, 204);"></rect><rect  id="v-3751" rx="10" ry="10" stroke="#a6bfcc" stroke-width="0" pointer-events="visiblePainted" fill="#b8d4e3" width="430" height="250" x="10" y="40" style="fill: rgb(184, 212, 227);"></rect><ellipse  id="v-3758" fill="#b8d4e3" cx="20" cy="20" rx="10" ry="10" style="fill: rgb(184, 212, 227);"></ellipse><ellipse  id="v-3759" fill="#b8d4e3" cx="50" cy="20" rx="10" ry="10" style="fill: rgb(184, 212, 227);"></ellipse><ellipse  id="v-3760" fill="#b8d4e3" cx="80" cy="20" rx="10" ry="10" style="fill: rgb(184, 212, 227);"></ellipse><rect  id="v-3752" rx="10" ry="10" stroke="#444444" stroke-width="0" pointer-events="visiblePainted" fill="#b8d4e3" width="340" height="20" x="100" y="10" style="fill: rgb(184, 212, 227);"></rect><text  id="v-3753" font-size="34" xml:space="preserve" y="0.8em" font-weight="bold" text-anchor="middle" pointer-events="visible" font-family="Arial" fill="#000000" transform="matrix(1,0,0,1,225,117.5)" style="fill: rgb(0, 0, 0);"><tspan dy="0" >Web Application</tspan></text><text  id="v-3754" font-size="17" xml:space="preserve" y="0.8em" text-anchor="middle" font-family="Arial" fill="#000000" transform="matrix(1,0,0,1,225,158.3)" style="fill: rgb(0, 0, 0);"><tspan dy="0" >[Container: React]</tspan></text><text  id="v-3755" font-size="24" xml:space="preserve" y="0.8em" text-anchor="middle" font-family="Arial" fill="#000000" transform="matrix(1,0,0,1,225,188.7)" style="fill: rgb(0, 0, 0);"><tspan dy="0" >Веб-интерфейс для пользователей</tspan></text><g  id="v-3756" font-weight="normal" text-anchor="middle" color="#000000" transform="matrix(1,0,0,1,225,258)" display="none" style="fill: rgb(0, 0, 0);"><g ></g><g ></g><g ></g><g ></g></g><image  id="v-3757"></image></g></g><!--z-index:40--><g   id="j_236"  transform="translate(2579,929)" style=""><g  id="v-3764" style="opacity: 1;"><rect  id="v-3765" rx="20" ry="20" stroke="#a8a8a8" stroke-width="2" pointer-events="visiblePainted" fill="#bbbbbb" width="450" height="300" stroke-dasharray="10,10" style="fill: rgb(187, 187, 187); stroke: rgb(168, 168, 168);"></rect><text  id="v-3766" font-size="34" xml:space="preserve" y="0.8em" font-weight="bold" text-anchor="middle" pointer-events="visible" font-family="Arial" fill="#555555" transform="matrix(1,0,0,1,225,88.1)" style="fill: rgb(85, 85, 85);"><tspan dy="0" >Push-сервис</tspan></text><text  id="v-3767" font-size="17" xml:space="preserve" y="0.8em" text-anchor="middle" font-family="Arial" fill="#555555" transform="matrix(1,0,0,1,225,128.9)" style="fill: rgb(85, 85, 85);"><tspan dy="0" >[Software System]</tspan></text><text  id="v-3768" font-size="24" xml:space="preserve" y="0.8em" text-anchor="middle" font-family="Arial" fill="#555555" transform="matrix(1,0,0,1,225,159.3)" style="fill: rgb(85, 85, 85);"><tspan dy="0" >Отправляет push-уведомления на</tspan><tspan dy="1.2em" x="0" >устройства</tspan></text><g  id="v-3769" color="#555555" transform="matrix(1,0,0,1,0,268)" display="none" style="fill: rgb(85, 85, 85);"><g ></g><g ></g><g ></g><g ></g></g><image  id="v-3770"></image></g></g><!--z-index:41--><g   id="j_237" ><path  stroke="#707070" d="M 1334 2148 L 1435 2018 C 1439.2594507964645 2012.509978876787 1440.2594507964645 2006.8433122101203 1438 2001 L 1366 1829" id="v-3787" stroke-width="2" stroke-dasharray="30 30" fill="none"></path><path  fill="black" stroke="black" d="M 0 0 0 0" transform="matrix(0.6147006992254941,-0.7887604518303948,0.7887604518303948,0.6147006992254941,1333.74853515625,2147.88525390625)"></path><path  fill="#707070" stroke="#707070" d="M 20 0 L 0 10 L 20 20 z" id="v-3789" transform="matrix(0.38359324032717806,0.9235021526641375,-0.9235021526641375,0.38359324032717806,1375.5402024046214,1825.1640314216486)"></path><path  d="M 1334 2148 L 1435 2018 C 1439.2594507964645 2012.509978876787 1440.2594507964645 2006.8433122101203 1438 2001 L 1366 1829" id="v-3788" fill="none" style="pointer-events: visiblepainted; cursor: auto;"></path><g ><g id="v-3777"  label-idx="0" cursor="move" transform="matrix(1,0,0,1,1437.2850341796875,1999.2919921875)"><rect joint-selector="rect" id="v-3781" fill="#ffffff" rx="3" ry="3" pointer-events="none" width="190.85169982910156" height="84.61661148071289" transform="matrix(1,0,0,1,-95.4,-42.3)"></rect><text joint-selector="text" id="v-3780" font-size="24px" xml:space="preserve" y="0.8em" fill="#707070" text-anchor="middle" pointer-events="none" font-family="Arial" font-weight="normal" transform="matrix(1,0,0,1,0,-40.5)"><tspan dy="0" >1: Вводит текст и</tspan><tspan dy="1.2em" x="0" >нажимает</tspan><tspan dy="1.2em" x="0" >отправить</tspan></text></g><g id="v-3778"  label-idx="1" cursor="move" transform="matrix(1,0,0,1,1437.2850341796875,2054.491943359375)"><rect joint-selector="rect" id="v-3783" fill="#ffffff" rx="3" ry="3" pointer-events="none" width="65.14942169189453" height="18.385748863220215" transform="matrix(1,0,0,1,-32.6,-9.2)"></rect><text joint-selector="text" id="v-3782" font-size="17px" xml:space="preserve" y="0.8em" fill="#707070" text-anchor="middle" pointer-events="none" font-family="Arial" font-weight="normal" transform="matrix(1,0,0,1,0,-7.8)"><tspan dy="0" >[HTTPS]</tspan></text></g><g id="v-3779"  label-idx="2" cursor="move" transform="matrix(1,0,0,1,1427.2850341796875,2062.89208984375)"><rect joint-selector="rect" id="v-3785" fill="#ffffff" rx="3" ry="3"  width="0" height="0" transform="matrix(1,0,0,1,0,0)" display="none"></rect><text joint-selector="text" id="v-3784" fill="#000000" font-size="14" text-anchor="middle" pointer-events="none"></text></g></g><g  display="none" style="display: none;"><g  transform="translate(1441.389176194697, 2009.7649683151806)" id="v-4055"><circle  idx="0" r="10"></circle><path  idx="0" d="M16,5.333c-7.732,0-14,4.701-14,10.5c0,1.982,0.741,3.833,2.016,5.414L2,25.667l5.613-1.441c2.339,1.317,5.237,2.107,8.387,2.107c7.732,0,14-4.701,14-10.5C30,10.034,23.732,5.333,16,5.333z" transform="translate(5, -33)"></path><path  idx="0" transform="scale(.8) translate(9.5, -37)" d="M24.778,21.419 19.276,15.917 24.777,10.415 21.949,7.585 16.447,13.087 10.945,7.585 8.117,10.415 13.618,15.917 8.116,21.419 10.946,24.248 16.447,18.746 21.948,24.248z"><title>Remove vertex.</title></path></g></g><g  id="v-3791" display="none"><g  id="v-3775"><path  end="source" d="M 26 0 L 0 13 L 26 26 z"></path></g><g  id="v-3776"><path  end="target" d="M 26 0 L 0 13 L 26 26 z"></path></g></g><g  id="v-3790" display="none"><g  id="v-3774" transform="translate(1358.5407994868224, 2116.412832343694) "><g  event="remove"><circle r="11"></circle><path transform="scale(.8) translate(-16, -16)" d="M24.778,21.419 19.276,15.917 24.777,10.415 21.949,7.585 16.447,13.087 10.945,7.585 8.117,10.415 13.618,15.917 8.116,21.419 10.946,24.248 16.447,18.746 21.948,24.248z"></path><title>Remove link.</title></g><g  event="link:options"><circle r="11" transform="translate(25)"></circle><path fill="white" transform="scale(.55) translate(29, -16)" d="M31.229,17.736c0.064-0.571,0.104-1.148,0.104-1.736s-0.04-1.166-0.104-1.737l-4.377-1.557c-0.218-0.716-0.504-1.401-0.851-2.05l1.993-4.192c-0.725-0.91-1.549-1.734-2.458-2.459l-4.193,1.994c-0.647-0.347-1.334-0.632-2.049-0.849l-1.558-4.378C17.165,0.708,16.588,0.667,16,0.667s-1.166,0.041-1.737,0.105L12.707,5.15c-0.716,0.217-1.401,0.502-2.05,0.849L6.464,4.005C5.554,4.73,4.73,5.554,4.005,6.464l1.994,4.192c-0.347,0.648-0.632,1.334-0.849,2.05l-4.378,1.557C0.708,14.834,0.667,15.412,0.667,16s0.041,1.165,0.105,1.736l4.378,1.558c0.217,0.715,0.502,1.401,0.849,2.049l-1.994,4.193c0.725,0.909,1.549,1.733,2.459,2.458l4.192-1.993c0.648,0.347,1.334,0.633,2.05,0.851l1.557,4.377c0.571,0.064,1.148,0.104,1.737,0.104c0.588,0,1.165-0.04,1.736-0.104l1.558-4.377c0.715-0.218,1.399-0.504,2.049-0.851l4.193,1.993c0.909-0.725,1.733-1.549,2.458-2.458l-1.993-4.193c0.347-0.647,0.633-1.334,0.851-2.049L31.229,17.736zM16,20.871c-2.69,0-4.872-2.182-4.872-4.871c0-2.69,2.182-4.872,4.872-4.872c2.689,0,4.871,2.182,4.871,4.872C20.871,18.689,18.689,20.871,16,20.871z"></path><title>Link options.</title></g></g></g></g><!--z-index:42--><g   id="j_238" ><path  stroke="#707070" d="M 1379 1529 L 1450 1388 C 1452.6666666666665 1382 1452.6666666666665 1376 1450 1370 L 1379 1229" id="v-3807" stroke-width="2" stroke-dasharray="30 30" fill="none"></path><path  fill="black" stroke="black" d="M 0 0 0 0" transform="matrix(0.4472137875035034,-0.8944270949981173,0.8944270949981173,0.4472137875035034,1379,1529)"></path><path  fill="#707070" stroke="#707070" d="M 20 0 L 0 10 L 20 20 z" id="v-3809" transform="matrix(0.4472136088532365,0.8944271843232765,-0.8944271843232765,0.4472136088532365,1387.944303723452,1224.5278059354216)"></path><path  d="M 1379 1529 L 1450 1388 C 1452.6666666666665 1382 1452.6666666666665 1376 1450 1370 L 1379 1229" id="v-3808" fill="none" style="pointer-events: visiblepainted; cursor: auto;"></path><g ><g id="v-3798"  label-idx="0" cursor="move" transform="matrix(1,0,0,1,1452,1379)"><rect joint-selector="rect" id="v-3802" fill="#ffffff" rx="3" ry="3" pointer-events="none" width="207.54946899414062" height="113.4166145324707" transform="matrix(1,0,0,1,-103.8,-56.7)"></rect><text joint-selector="text" id="v-3801" font-size="24px" xml:space="preserve" y="0.8em" fill="#707070" text-anchor="middle" pointer-events="none" font-family="Arial" font-weight="normal" transform="matrix(1,0,0,1,0,-54.9)"><tspan dy="0" >2: POST /api/chats/</tspan><tspan dy="1.2em" x="0" >messages</tspan><tspan dy="1.2em" x="0" >(получатель,</tspan><tspan dy="1.2em" x="0" >текст)</tspan></text></g><g id="v-3799"  label-idx="1" cursor="move" transform="matrix(1,0,0,1,1452,1448.5999755859375)"><rect joint-selector="rect" id="v-3804" fill="#ffffff" rx="3" ry="3" pointer-events="none" width="115.19581604003906" height="18.385748863220215" transform="matrix(1,0,0,1,-57.6,-9.2)"></rect><text joint-selector="text" id="v-3803" font-size="17px" xml:space="preserve" y="0.8em" fill="#707070" text-anchor="middle" pointer-events="none" font-family="Arial" font-weight="normal" transform="matrix(1,0,0,1,0,-7.8)"><tspan dy="0" >[HTTPS/REST]</tspan></text></g><g id="v-3800"  label-idx="2" cursor="move" transform="matrix(1,0,0,1,1442,1457)"><rect joint-selector="rect" id="v-3806" fill="#ffffff" rx="3" ry="3"  width="0" height="0" transform="matrix(1,0,0,1,0,0)" display="none"></rect><text joint-selector="text" id="v-3805" fill="#000000" font-size="14" text-anchor="middle" pointer-events="none"></text></g></g><g  display="none" style="display: none;"><g  transform="translate(1454, 1379)" id="v-4059"><circle  idx="0" r="10"></circle><path  idx="0" d="M16,5.333c-7.732,0-14,4.701-14,10.5c0,1.982,0.741,3.833,2.016,5.414L2,25.667l5.613-1.441c2.339,1.317,5.237,2.107,8.387,2.107c7.732,0,14-4.701,14-10.5C30,10.034,23.732,5.333,16,5.333z" transform="translate(5, -33)"></path><path  idx="0" transform="scale(.8) translate(9.5, -37)" d="M24.778,21.419 19.276,15.917 24.777,10.415 21.949,7.585 16.447,13.087 10.945,7.585 8.117,10.415 13.618,15.917 8.116,21.419 10.946,24.248 16.447,18.746 21.948,24.248z"><title>Remove vertex.</title></path></g></g><g  id="v-3811" display="none"><g  id="v-3796"><path  end="source" d="M 26 0 L 0 13 L 26 26 z"></path></g><g  id="v-3797"><path  end="target" d="M 26 0 L 0 13 L 26 26 z"></path></g></g><g  id="v-3810" display="none"><g  id="v-3795" transform="translate(1396.989823158115, 1493.2737314747294) "><g  event="remove"><circle r="11"></circle><path transform="scale(.8) translate(-16, -16)" d="M24.778,21.419 19.276,15.917 24.777,10.415 21.949,7.585 16.447,13.087 10.945,7.585 8.117,10.415 13.618,15.917 8.116,21.419 10.946,24.248 16.447,18.746 21.948,24.248z"></path><title>Remove link.</title></g><g  event="link:options"><circle r="11" transform="translate(25)"></circle><path fill="white" transform="scale(.55) translate(29, -16)" d="M31.229,17.736c0.064-0.571,0.104-1.148,0.104-1.736s-0.04-1.166-0.104-1.737l-4.377-1.557c-0.218-0.716-0.504-1.401-0.851-2.05l1.993-4.192c-0.725-0.91-1.549-1.734-2.458-2.459l-4.193,1.994c-0.647-0.347-1.334-0.632-2.049-0.849l-1.558-4.378C17.165,0.708,16.588,0.667,16,0.667s-1.166,0.041-1.737,0.105L12.707,5.15c-0.716,0.217-1.401,0.502-2.05,0.849L6.464,4.005C5.554,4.73,4.73,5.554,4.005,6.464l1.994,4.192c-0.347,0.648-0.632,1.334-0.849,2.05l-4.378,1.557C0.708,14.834,0.667,15.412,0.667,16s0.041,1.165,0.105,1.736l4.378,1.558c0.217,0.715,0.502,1.401,0.849,2.049l-1.994,4.193c0.725,0.909,1.549,1.733,2.459,2.458l4.192-1.993c0.648,0.347,1.334,0.633,2.05,0.851l1.557,4.377c0.571,0.064,1.148,0.104,1.737,0.104c0.588,0,1.165-0.04,1.736-0.104l1.558-4.377c0.715-0.218,1.399-0.504,2.049-0.851l4.193,1.993c0.909-0.725,1.733-1.549,2.458-2.458l-1.993-4.193c0.347-0.647,0.633-1.334,0.851-2.049L31.229,17.736zM16,20.871c-2.69,0-4.872-2.182-4.872-4.871c0-2.69,2.182-4.872,4.872-4.872c2.689,0,4.871,2.182,4.871,4.872C20.871,18.689,18.689,20.871,16,20.871z"></path><title>Link options.</title></g></g></g></g><!--z-index:43--><g   id="j_239" ><path  stroke="#707070" d="M 1379 929 L 1450 788 C 1452.6666666666665 781.9999999999999 1452.6666666666665 775.9999999999999 1450 770 L 1379 629" id="v-3827" stroke-width="2" stroke-dasharray="30 30" fill="none"></path><path  fill="black" stroke="black" d="M 0 0 0 0" transform="matrix(0.4472137875035034,-0.8944270949981173,0.8944270949981173,0.4472137875035034,1379,929)"></path><path  fill="#707070" stroke="#707070" d="M 20 0 L 0 10 L 20 20 z" id="v-3829" transform="matrix(0.4472136088532365,0.8944271843232765,-0.8944271843232765,0.4472136088532365,1387.944303723452,624.5278669705779)"></path><path  d="M 1379 929 L 1450 788 C 1452.6666666666665 781.9999999999999 1452.6666666666665 775.9999999999999 1450 770 L 1379 629" id="v-3828" fill="none" style="pointer-events: visiblepainted; cursor: auto;"></path><g ><g id="v-3818"  label-idx="0" cursor="move" transform="matrix(1,0,0,1,1452,779)"><rect joint-selector="rect" id="v-3822" fill="#ffffff" rx="3" ry="3" pointer-events="none" width="190.7578887939453" height="84.61661148071289" transform="matrix(1,0,0,1,-95.4,-42.3)"></rect><text joint-selector="text" id="v-3821" font-size="24px" xml:space="preserve" y="0.8em" fill="#707070" text-anchor="middle" pointer-events="none" font-family="Arial" font-weight="normal" transform="matrix(1,0,0,1,0,-40.5)"><tspan dy="0" >3: POST</tspan><tspan dy="1.2em" x="0" >/messages (те же</tspan><tspan dy="1.2em" x="0" >данные)</tspan></text></g><g id="v-3819"  label-idx="1" cursor="move" transform="matrix(1,0,0,1,1452,834.2000122070312)"><rect joint-selector="rect" id="v-3824" fill="#ffffff" rx="3" ry="3" pointer-events="none" width="115.19581604003906" height="18.385748863220215" transform="matrix(1,0,0,1,-57.6,-9.2)"></rect><text joint-selector="text" id="v-3823" font-size="17px" xml:space="preserve" y="0.8em" fill="#707070" text-anchor="middle" pointer-events="none" font-family="Arial" font-weight="normal" transform="matrix(1,0,0,1,0,-7.8)"><tspan dy="0" >[HTTPS/REST]</tspan></text></g><g id="v-3820"  label-idx="2" cursor="move" transform="matrix(1,0,0,1,1442,842.5999755859375)"><rect joint-selector="rect" id="v-3826" fill="#ffffff" rx="3" ry="3"  width="0" height="0" transform="matrix(1,0,0,1,0,0)" display="none"></rect><text joint-selector="text" id="v-3825" fill="#000000" font-size="14" text-anchor="middle" pointer-events="none"></text></g></g><g  display="none" style="display: none;"><g  transform="translate(1454, 779)" id="v-4061"><circle  idx="0" r="10"></circle><path  idx="0" d="M16,5.333c-7.732,0-14,4.701-14,10.5c0,1.982,0.741,3.833,2.016,5.414L2,25.667l5.613-1.441c2.339,1.317,5.237,2.107,8.387,2.107c7.732,0,14-4.701,14-10.5C30,10.034,23.732,5.333,16,5.333z" transform="translate(5, -33)"></path><path  idx="0" transform="scale(.8) translate(9.5, -37)" d="M24.778,21.419 19.276,15.917 24.777,10.415 21.949,7.585 16.447,13.087 10.945,7.585 8.117,10.415 13.618,15.917 8.116,21.419 10.946,24.248 16.447,18.746 21.948,24.248z"><title>Remove vertex.</title></path></g></g><g  id="v-3831" display="none"><g  id="v-3816"><path  end="source" d="M 26 0 L 0 13 L 26 26 z"></path></g><g  id="v-3817"><path  end="target" d="M 26 0 L 0 13 L 26 26 z"></path></g></g><g  id="v-3830" display="none"><g  id="v-3815" transform="translate(1396.989823158115, 893.2737314747293) "><g  event="remove"><circle r="11"></circle><path transform="scale(.8) translate(-16, -16)" d="M24.778,21.419 19.276,15.917 24.777,10.415 21.949,7.585 16.447,13.087 10.945,7.585 8.117,10.415 13.618,15.917 8.116,21.419 10.946,24.248 16.447,18.746 21.948,24.248z"></path><title>Remove link.</title></g><g  event="link:options"><circle r="11" transform="translate(25)"></circle><path fill="white" transform="scale(.55) translate(29, -16)" d="M31.229,17.736c0.064-0.571,0.104-1.148,0.104-1.736s-0.04-1.166-0.104-1.737l-4.377-1.557c-0.218-0.716-0.504-1.401-0.851-2.05l1.993-4.192c-0.725-0.91-1.549-1.734-2.458-2.459l-4.193,1.994c-0.647-0.347-1.334-0.632-2.049-0.849l-1.558-4.378C17.165,0.708,16.588,0.667,16,0.667s-1.166,0.041-1.737,0.105L12.707,5.15c-0.716,0.217-1.401,0.502-2.05,0.849L6.464,4.005C5.554,4.73,4.73,5.554,4.005,6.464l1.994,4.192c-0.347,0.648-0.632,1.334-0.849,2.05l-4.378,1.557C0.708,14.834,0.667,15.412,0.667,16s0.041,1.165,0.105,1.736l4.378,1.558c0.217,0.715,0.502,1.401,0.849,2.049l-1.994,4.193c0.725,0.909,1.549,1.733,2.459,2.458l4.192-1.993c0.648,0.347,1.334,0.633,2.05,0.851l1.557,4.377c0.571,0.064,1.148,0.104,1.737,0.104c0.588,0,1.165-0.04,1.736-0.104l1.558-4.377c0.715-0.218,1.399-0.504,2.049-0.851l4.193,1.993c0.909-0.725,1.733-1.549,2.458-2.458l-1.993-4.193c0.347-0.647,0.633-1.334,0.851-2.049L31.229,17.736zM16,20.871c-2.69,0-4.872-2.182-4.872-4.871c0-2.69,2.182-4.872,4.872-4.872c2.689,0,4.871,2.182,4.871,4.872C20.871,18.689,18.689,20.871,16,20.871z"></path><title>Link options.</title></g></g></g></g><!--z-index:44--><g   id="j_240" ><path  stroke="#707070" d="M 1079 567 L 845 658 C 838.5304952445575 660.5797857223636 833.5304952445575 664.5797857223636 830 670 L 655 929" id="v-3844" stroke-width="2" stroke-dasharray="30 30" fill="none"></path><path  fill="black" stroke="black" d="M 0 0 0 0" transform="matrix(-0.9316041157754884,0.36347458160120427,-0.36347458160120427,-0.9316041157754884,1079,566.7860107421875)"></path><path  fill="#707070" stroke="#707070" d="M 20 0 L 0 10 L 20 20 z" id="v-3846" transform="matrix(0.5591081186995676,-0.8290947542978608,0.8290947542978608,0.5591081186995676,646.8629663872117,923.4089117661382)"></path><path  d="M 1079 567 L 845 658 C 838.5304952445575 660.5797857223636 833.5304952445575 664.5797857223636 830 670 L 655 929" id="v-3845" fill="none" style="pointer-events: visiblepainted; cursor: auto;"></path><g ><g id="v-3838"  label-idx="0" cursor="move" transform="matrix(1,0,0,1,818.2467041015625,687.3948974609375)"><rect joint-selector="rect" id="v-3841" fill="#ffffff" rx="3" ry="3" pointer-events="none" width="185.69227600097656" height="84.61661148071289" transform="matrix(1,0,0,1,-92.8,-42.3)"></rect><text joint-selector="text" id="v-3840" font-size="24px" xml:space="preserve" y="0.8em" fill="#707070" text-anchor="middle" pointer-events="none" font-family="Arial" font-weight="normal" transform="matrix(1,0,0,1,0,-40.5)"><tspan dy="0" >4: Проверяет</tspan><tspan dy="1.2em" x="0" >существование</tspan><tspan dy="1.2em" x="0" >получателя по id</tspan></text></g><g id="v-3839"  label-idx="1" cursor="move" transform="matrix(1,0,0,1,808.2467041015625,742.5949096679688)"><rect joint-selector="rect" id="v-3843" fill="#ffffff" rx="3" ry="3"  width="0" height="0" transform="matrix(1,0,0,1,0,0)" display="none"></rect><text joint-selector="text" id="v-3842" fill="#000000" font-size="14" text-anchor="middle" pointer-events="none"></text></g></g><g  display="none" style="display: none;"><g  transform="translate(835.2957428668363, 661.8696785835455)" id="v-4063"><circle  idx="0" r="10"></circle><path  idx="0" d="M16,5.333c-7.732,0-14,4.701-14,10.5c0,1.982,0.741,3.833,2.016,5.414L2,25.667l5.613-1.441c2.339,1.317,5.237,2.107,8.387,2.107c7.732,0,14-4.701,14-10.5C30,10.034,23.732,5.333,16,5.333z" transform="translate(5, -33)"></path><path  idx="0" transform="scale(.8) translate(9.5, -37)" d="M24.778,21.419 19.276,15.917 24.777,10.415 21.949,7.585 16.447,13.087 10.945,7.585 8.117,10.415 13.618,15.917 8.116,21.419 10.946,24.248 16.447,18.746 21.948,24.248z"><title>Remove vertex.</title></path></g></g><g  id="v-3848" display="none"><g  id="v-3836"><path  end="source" d="M 26 0 L 0 13 L 26 26 z"></path></g><g  id="v-3837"><path  end="target" d="M 26 0 L 0 13 L 26 26 z"></path></g></g><g  id="v-3847" display="none"><g  id="v-3835" transform="translate(1041.7198131383482, 581.497850446198) "><g  event="remove"><circle r="11"></circle><path transform="scale(.8) translate(-16, -16)" d="M24.778,21.419 19.276,15.917 24.777,10.415 21.949,7.585 16.447,13.087 10.945,7.585 8.117,10.415 13.618,15.917 8.116,21.419 10.946,24.248 16.447,18.746 21.948,24.248z"></path><title>Remove link.</title></g><g  event="link:options"><circle r="11" transform="translate(25)"></circle><path fill="white" transform="scale(.55) translate(29, -16)" d="M31.229,17.736c0.064-0.571,0.104-1.148,0.104-1.736s-0.04-1.166-0.104-1.737l-4.377-1.557c-0.218-0.716-0.504-1.401-0.851-2.05l1.993-4.192c-0.725-0.91-1.549-1.734-2.458-2.459l-4.193,1.994c-0.647-0.347-1.334-0.632-2.049-0.849l-1.558-4.378C17.165,0.708,16.588,0.667,16,0.667s-1.166,0.041-1.737,0.105L12.707,5.15c-0.716,0.217-1.401,0.502-2.05,0.849L6.464,4.005C5.554,4.73,4.73,5.554,4.005,6.464l1.994,4.192c-0.347,0.648-0.632,1.334-0.849,2.05l-4.378,1.557C0.708,14.834,0.667,15.412,0.667,16s0.041,1.165,0.105,1.736l4.378,1.558c0.217,0.715,0.502,1.401,0.849,2.049l-1.994,4.193c0.725,0.909,1.549,1.733,2.459,2.458l4.192-1.993c0.648,0.347,1.334,0.633,2.05,0.851l1.557,4.377c0.571,0.064,1.148,0.104,1.737,0.104c0.588,0,1.165-0.04,1.736-0.104l1.558-4.377c0.715-0.218,1.399-0.504,2.049-0.851l4.193,1.993c0.909-0.725,1.733-1.549,2.458-2.458l-1.993-4.193c0.347-0.647,0.633-1.334,0.851-2.049L31.229,17.736zM16,20.871c-2.69,0-4.872-2.182-4.872-4.871c0-2.69,2.182-4.872,4.872-4.872c2.689,0,4.871,2.182,4.871,4.872C20.871,18.689,18.689,20.871,16,20.871z"></path><title>Link options.</title></g></g></g></g><!--z-index:45--><g   id="j_241" ><path  stroke="#707070" d="M 479 1229 L 408 1370 C 405.3333333333333 1376 405.3333333333333 1382 408 1388 L 479 1529" id="v-3864" stroke-width="2" stroke-dasharray="30 30" fill="none"></path><path  fill="black" stroke="black" d="M 0 0 0 0" transform="matrix(-0.4472135493031434,0.8944272140983217,-0.8944272140983217,-0.4472135493031434,479,1229)"></path><path  fill="#707070" stroke="#707070" d="M 20 0 L 0 10 L 20 20 z" id="v-3866" transform="matrix(-0.4472135493031436,-0.8944272140983216,0.8944272140983216,-0.4472135493031436,470.05572590087473,1533.472193766828)"></path><path  d="M 479 1229 L 408 1370 C 405.3333333333333 1376 405.3333333333333 1382 408 1388 L 479 1529" id="v-3865" fill="none" style="pointer-events: visiblepainted; cursor: auto;"></path><g ><g id="v-3855"  label-idx="0" cursor="move" transform="matrix(1,0,0,1,406,1379)"><rect joint-selector="rect" id="v-3859" fill="#ffffff" rx="3" ry="3" pointer-events="none" width="184.89491271972656" height="84.61661148071289" transform="matrix(1,0,0,1,-92.4,-42.3)"></rect><text joint-selector="text" id="v-3858" font-size="24px" xml:space="preserve" y="0.8em" fill="#707070" text-anchor="middle" pointer-events="none" font-family="Arial" font-weight="normal" transform="matrix(1,0,0,1,0,-40.5)"><tspan dy="0" >5: Поиск</tspan><tspan dy="1.2em" x="0" >пользователя по</tspan><tspan dy="1.2em" x="0" >id</tspan></text></g><g id="v-3856"  label-idx="1" cursor="move" transform="matrix(1,0,0,1,406,1434.199951171875)"><rect joint-selector="rect" id="v-3861" fill="#ffffff" rx="3" ry="3" pointer-events="none" width="53.84560012817383" height="18.385748863220215" transform="matrix(1,0,0,1,-26.9,-9.2)"></rect><text joint-selector="text" id="v-3860" font-size="17px" xml:space="preserve" y="0.8em" fill="#707070" text-anchor="middle" pointer-events="none" font-family="Arial" font-weight="normal" transform="matrix(1,0,0,1,0,-7.8)"><tspan dy="0" >[JDBC]</tspan></text></g><g id="v-3857"  label-idx="2" cursor="move" transform="matrix(1,0,0,1,396,1442.5999755859375)"><rect joint-selector="rect" id="v-3863" fill="#ffffff" rx="3" ry="3"  width="0" height="0" transform="matrix(1,0,0,1,0,0)" display="none"></rect><text joint-selector="text" id="v-3862" fill="#000000" font-size="14" text-anchor="middle" pointer-events="none"></text></g></g><g  display="none" style="display: none;"><g  transform="translate(404, 1379)" id="v-4065"><circle  idx="0" r="10"></circle><path  idx="0" d="M16,5.333c-7.732,0-14,4.701-14,10.5c0,1.982,0.741,3.833,2.016,5.414L2,25.667l5.613-1.441c2.339,1.317,5.237,2.107,8.387,2.107c7.732,0,14-4.701,14-10.5C30,10.034,23.732,5.333,16,5.333z" transform="translate(5, -33)"></path><path  idx="0" transform="scale(.8) translate(9.5, -37)" d="M24.778,21.419 19.276,15.917 24.777,10.415 21.949,7.585 16.447,13.087 10.945,7.585 8.117,10.415 13.618,15.917 8.116,21.419 10.946,24.248 16.447,18.746 21.948,24.248z"><title>Remove vertex.</title></path></g></g><g  id="v-3868" display="none"><g  id="v-3853"><path  end="source" d="M 26 0 L 0 13 L 26 26 z"></path></g><g  id="v-3854"><path  end="target" d="M 26 0 L 0 13 L 26 26 z"></path></g></g><g  id="v-3867" display="none"><g  id="v-3852" transform="translate(461.010176841885, 1264.7262685252708) "><g  event="remove"><circle r="11"></circle><path transform="scale(.8) translate(-16, -16)" d="M24.778,21.419 19.276,15.917 24.777,10.415 21.949,7.585 16.447,13.087 10.945,7.585 8.117,10.415 13.618,15.917 8.116,21.419 10.946,24.248 16.447,18.746 21.948,24.248z"></path><title>Remove link.</title></g><g  event="link:options"><circle r="11" transform="translate(25)"></circle><path fill="white" transform="scale(.55) translate(29, -16)" d="M31.229,17.736c0.064-0.571,0.104-1.148,0.104-1.736s-0.04-1.166-0.104-1.737l-4.377-1.557c-0.218-0.716-0.504-1.401-0.851-2.05l1.993-4.192c-0.725-0.91-1.549-1.734-2.458-2.459l-4.193,1.994c-0.647-0.347-1.334-0.632-2.049-0.849l-1.558-4.378C17.165,0.708,16.588,0.667,16,0.667s-1.166,0.041-1.737,0.105L12.707,5.15c-0.716,0.217-1.401,0.502-2.05,0.849L6.464,4.005C5.554,4.73,4.73,5.554,4.005,6.464l1.994,4.192c-0.347,0.648-0.632,1.334-0.849,2.05l-4.378,1.557C0.708,14.834,0.667,15.412,0.667,16s0.041,1.165,0.105,1.736l4.378,1.558c0.217,0.715,0.502,1.401,0.849,2.049l-1.994,4.193c0.725,0.909,1.549,1.733,2.459,2.458l4.192-1.993c0.648,0.347,1.334,0.633,2.05,0.851l1.557,4.377c0.571,0.064,1.148,0.104,1.737,0.104c0.588,0,1.165-0.04,1.736-0.104l1.558-4.377c0.715-0.218,1.399-0.504,2.049-0.851l4.193,1.993c0.909-0.725,1.733-1.549,2.458-2.458l-1.993-4.193c0.347-0.647,0.633-1.334,0.851-2.049L31.229,17.736zM16,20.871c-2.69,0-4.872-2.182-4.872-4.871c0-2.69,2.182-4.872,4.872-4.872c2.689,0,4.871,2.182,4.871,4.872C20.871,18.689,18.689,20.871,16,20.871z"></path><title>Link options.</title></g></g></g></g><!--z-index:46--><g   id="j_242" ><path  stroke="#707070" d="M 629 1529 L 700 1388 C 702.6666666666666 1382 702.6666666666666 1376 700 1370 L 629 1229" id="v-3884" stroke-width="2" stroke-dasharray="30 30" fill="none"></path><path  fill="black" stroke="black" d="M 0 0 0 0" transform="matrix(0.4472137875035034,-0.8944270949981173,0.8944270949981173,0.4472137875035034,629,1529)"></path><path  fill="#707070" stroke="#707070" d="M 20 0 L 0 10 L 20 20 z" id="v-3886" transform="matrix(0.4472136088532365,0.8944271843232765,-0.8944271843232765,0.4472136088532365,637.9442426882957,1224.5278059354216)"></path><path  d="M 629 1529 L 700 1388 C 702.6666666666666 1382 702.6666666666666 1376 700 1370 L 629 1229" id="v-3885" fill="none" style="pointer-events: visiblepainted; cursor: auto;"></path><g ><g id="v-3875"  label-idx="0" cursor="move" transform="matrix(1,0,0,1,702,1379)"><rect joint-selector="rect" id="v-3879" fill="#ffffff" rx="3" ry="3" pointer-events="none" width="162.7563018798828" height="84.61661148071289" transform="matrix(1,0,0,1,-81.4,-42.3)"></rect><text joint-selector="text" id="v-3878" font-size="24px" xml:space="preserve" y="0.8em" fill="#707070" text-anchor="middle" pointer-events="none" font-family="Arial" font-weight="normal" transform="matrix(1,0,0,1,0,-40.5)"><tspan dy="0" >6: Возвращает</tspan><tspan dy="1.2em" x="0" >данные</tspan><tspan dy="1.2em" x="0" >пользователя</tspan></text></g><g id="v-3876"  label-idx="1" cursor="move" transform="matrix(1,0,0,1,702,1434.199951171875)"><rect joint-selector="rect" id="v-3881" fill="#ffffff" rx="3" ry="3" pointer-events="none" width="53.84560012817383" height="18.385748863220215" transform="matrix(1,0,0,1,-26.9,-9.2)"></rect><text joint-selector="text" id="v-3880" font-size="17px" xml:space="preserve" y="0.8em" fill="#707070" text-anchor="middle" pointer-events="none" font-family="Arial" font-weight="normal" transform="matrix(1,0,0,1,0,-7.8)"><tspan dy="0" >[JDBC]</tspan></text></g><g id="v-3877"  label-idx="2" cursor="move" transform="matrix(1,0,0,1,692,1442.5999755859375)"><rect joint-selector="rect" id="v-3883" fill="#ffffff" rx="3" ry="3"  width="0" height="0" transform="matrix(1,0,0,1,0,0)" display="none"></rect><text joint-selector="text" id="v-3882" fill="#000000" font-size="14" text-anchor="middle" pointer-events="none"></text></g></g><g  display="none" style="display: none;"><g  transform="translate(704, 1379)" id="v-4066"><circle  idx="0" r="10"></circle><path  idx="0" d="M16,5.333c-7.732,0-14,4.701-14,10.5c0,1.982,0.741,3.833,2.016,5.414L2,25.667l5.613-1.441c2.339,1.317,5.237,2.107,8.387,2.107c7.732,0,14-4.701,14-10.5C30,10.034,23.732,5.333,16,5.333z" transform="translate(5, -33)"></path><path  idx="0" transform="scale(.8) translate(9.5, -37)" d="M24.778,21.419 19.276,15.917 24.777,10.415 21.949,7.585 16.447,13.087 10.945,7.585 8.117,10.415 13.618,15.917 8.116,21.419 10.946,24.248 16.447,18.746 21.948,24.248z"><title>Remove vertex.</title></path></g></g><g  id="v-3888" display="none"><g  id="v-3873"><path  end="source" d="M 26 0 L 0 13 L 26 26 z"></path></g><g  id="v-3874"><path  end="target" d="M 26 0 L 0 13 L 26 26 z"></path></g></g><g  id="v-3887" display="none"><g  id="v-3872" transform="translate(646.9898231581151, 1493.2737314747294) "><g  event="remove"><circle r="11"></circle><path transform="scale(.8) translate(-16, -16)" d="M24.778,21.419 19.276,15.917 24.777,10.415 21.949,7.585 16.447,13.087 10.945,7.585 8.117,10.415 13.618,15.917 8.116,21.419 10.946,24.248 16.447,18.746 21.948,24.248z"></path><title>Remove link.</title></g><g  event="link:options"><circle r="11" transform="translate(25)"></circle><path fill="white" transform="scale(.55) translate(29, -16)" d="M31.229,17.736c0.064-0.571,0.104-1.148,0.104-1.736s-0.04-1.166-0.104-1.737l-4.377-1.557c-0.218-0.716-0.504-1.401-0.851-2.05l1.993-4.192c-0.725-0.91-1.549-1.734-2.458-2.459l-4.193,1.994c-0.647-0.347-1.334-0.632-2.049-0.849l-1.558-4.378C17.165,0.708,16.588,0.667,16,0.667s-1.166,0.041-1.737,0.105L12.707,5.15c-0.716,0.217-1.401,0.502-2.05,0.849L6.464,4.005C5.554,4.73,4.73,5.554,4.005,6.464l1.994,4.192c-0.347,0.648-0.632,1.334-0.849,2.05l-4.378,1.557C0.708,14.834,0.667,15.412,0.667,16s0.041,1.165,0.105,1.736l4.378,1.558c0.217,0.715,0.502,1.401,0.849,2.049l-1.994,4.193c0.725,0.909,1.549,1.733,2.459,2.458l4.192-1.993c0.648,0.347,1.334,0.633,2.05,0.851l1.557,4.377c0.571,0.064,1.148,0.104,1.737,0.104c0.588,0,1.165-0.04,1.736-0.104l1.558-4.377c0.715-0.218,1.399-0.504,2.049-0.851l4.193,1.993c0.909-0.725,1.733-1.549,2.458-2.458l-1.993-4.193c0.347-0.647,0.633-1.334,0.851-2.049L31.229,17.736zM16,20.871c-2.69,0-4.872-2.182-4.872-4.871c0-2.69,2.182-4.872,4.872-4.872c2.689,0,4.871,2.182,4.871,4.872C20.871,18.689,18.689,20.871,16,20.871z"></path><title>Link options.</title></g></g></g></g><!--z-index:47--><g   id="j_243" ><path  stroke="#707070" d="M 779 991 L 1013 900 C 1019.4695047554422 897.4202142776363 1024.4695047554424 893.4202142776363 1028 888 L 1203 629" id="v-3901" stroke-width="2" stroke-dasharray="30 30" fill="none"></path><path  fill="black" stroke="black" d="M 0 0 0 0" transform="matrix(0.9316040189763191,-0.36347482970237444,0.36347482970237444,0.9316040189763191,779,991.2139892578125)"></path><path  fill="#707070" stroke="#707070" d="M 20 0 L 0 10 L 20 20 z" id="v-3903" transform="matrix(-0.5591078978982588,0.8290949031973301,-0.8290949031973301,-0.5591078978982588,1211.1370328937699,634.591084536854)"></path><path  d="M 779 991 L 1013 900 C 1019.4695047554422 897.4202142776363 1024.4695047554424 893.4202142776363 1028 888 L 1203 629" id="v-3902" fill="none" style="pointer-events: visiblepainted; cursor: auto;"></path><g ><g id="v-3895"  label-idx="0" cursor="move" transform="matrix(1,0,0,1,1039.7532958984375,870.6051025390625)"><rect joint-selector="rect" id="v-3898" fill="#ffffff" rx="3" ry="3" pointer-events="none" width="157.7845001220703" height="55.816612243652344" transform="matrix(1,0,0,1,-78.9,-27.9)"></rect><text joint-selector="text" id="v-3897" font-size="24px" xml:space="preserve" y="0.8em" fill="#707070" text-anchor="middle" pointer-events="none" font-family="Arial" font-weight="normal" transform="matrix(1,0,0,1,0,-26.1)"><tspan dy="0" >7: Получатель</tspan><tspan dy="1.2em" x="0" >найден</tspan></text></g><g id="v-3896"  label-idx="1" cursor="move" transform="matrix(1,0,0,1,1029.7532958984375,911.4050903320312)"><rect joint-selector="rect" id="v-3900" fill="#ffffff" rx="3" ry="3"  width="0" height="0" transform="matrix(1,0,0,1,0,0)" display="none"></rect><text joint-selector="text" id="v-3899" fill="#000000" font-size="14" text-anchor="middle" pointer-events="none"></text></g></g><g  display="none" style="display: none;"><g  transform="translate(1022.7042571331635, 896.1303214164545)" id="v-4064"><circle  idx="0" r="10"></circle><path  idx="0" d="M16,5.333c-7.732,0-14,4.701-14,10.5c0,1.982,0.741,3.833,2.016,5.414L2,25.667l5.613-1.441c2.339,1.317,5.237,2.107,8.387,2.107c7.732,0,14-4.701,14-10.5C30,10.034,23.732,5.333,16,5.333z" transform="translate(5, -33)"></path><path  idx="0" transform="scale(.8) translate(9.5, -37)" d="M24.778,21.419 19.276,15.917 24.777,10.415 21.949,7.585 16.447,13.087 10.945,7.585 8.117,10.415 13.618,15.917 8.116,21.419 10.946,24.248 16.447,18.746 21.948,24.248z"><title>Remove vertex.</title></path></g></g><g  id="v-3905" display="none"><g  id="v-3893"><path  end="source" d="M 26 0 L 0 13 L 26 26 z"></path></g><g  id="v-3894"><path  end="target" d="M 26 0 L 0 13 L 26 26 z"></path></g></g><g  id="v-3904" display="none"><g  id="v-3892" transform="translate(816.2801868616518, 976.502149553802) "><g  event="remove"><circle r="11"></circle><path transform="scale(.8) translate(-16, -16)" d="M24.778,21.419 19.276,15.917 24.777,10.415 21.949,7.585 16.447,13.087 10.945,7.585 8.117,10.415 13.618,15.917 8.116,21.419 10.946,24.248 16.447,18.746 21.948,24.248z"></path><title>Remove link.</title></g><g  event="link:options"><circle r="11" transform="translate(25)"></circle><path fill="white" transform="scale(.55) translate(29, -16)" d="M31.229,17.736c0.064-0.571,0.104-1.148,0.104-1.736s-0.04-1.166-0.104-1.737l-4.377-1.557c-0.218-0.716-0.504-1.401-0.851-2.05l1.993-4.192c-0.725-0.91-1.549-1.734-2.458-2.459l-4.193,1.994c-0.647-0.347-1.334-0.632-2.049-0.849l-1.558-4.378C17.165,0.708,16.588,0.667,16,0.667s-1.166,0.041-1.737,0.105L12.707,5.15c-0.716,0.217-1.401,0.502-2.05,0.849L6.464,4.005C5.554,4.73,4.73,5.554,4.005,6.464l1.994,4.192c-0.347,0.648-0.632,1.334-0.849,2.05l-4.378,1.557C0.708,14.834,0.667,15.412,0.667,16s0.041,1.165,0.105,1.736l4.378,1.558c0.217,0.715,0.502,1.401,0.849,2.049l-1.994,4.193c0.725,0.909,1.549,1.733,2.459,2.458l4.192-1.993c0.648,0.347,1.334,0.633,2.05,0.851l1.557,4.377c0.571,0.064,1.148,0.104,1.737,0.104c0.588,0,1.165-0.04,1.736-0.104l1.558-4.377c0.715-0.218,1.399-0.504,2.049-0.851l4.193,1.993c0.909-0.725,1.733-1.549,2.458-2.458l-1.993-4.193c0.347-0.647,0.633-1.334,0.851-2.049L31.229,17.736zM16,20.871c-2.69,0-4.872-2.182-4.872-4.871c0-2.69,2.182-4.872,4.872-4.872c2.689,0,4.871,2.182,4.871,4.872C20.871,18.689,18.689,20.871,16,20.871z"></path><title>Link options.</title></g></g></g></g><!--z-index:48--><g   id="j_244" ><path  stroke="#707070" d="M 1405 629 L 1580 888 C 1583.5304952445576 893.4202142776363 1588.5304952445576 897.4202142776363 1595 900 L 1829 991" id="v-3921" stroke-width="2" stroke-dasharray="30 30" fill="none"></path><path  fill="black" stroke="black" d="M 0 0 0 0" transform="matrix(0.5591078978982587,0.8290949031973303,-0.8290949031973303,0.5591078978982587,1405.1539306640625,629)"></path><path  fill="#707070" stroke="#707070" d="M 20 0 L 0 10 L 20 20 z" id="v-3923" transform="matrix(-0.9316041157754884,-0.363474581601204,0.363474581601204,-0.9316041157754884,1825.3652553026798,1000.5300106065811)"></path><path  d="M 1405 629 L 1580 888 C 1583.5304952445576 893.4202142776363 1588.5304952445576 897.4202142776363 1595 900 L 1829 991" id="v-3922" fill="none" style="pointer-events: visiblepainted; cursor: auto;"></path><g ><g id="v-3912"  label-idx="0" cursor="move" transform="matrix(1,0,0,1,1568.2467041015625,870.6051025390625)"><rect joint-selector="rect" id="v-3916" fill="#ffffff" rx="3" ry="3" pointer-events="none" width="157.7375946044922" height="113.4166145324707" transform="matrix(1,0,0,1,-78.9,-56.7)"></rect><text joint-selector="text" id="v-3915" font-size="24px" xml:space="preserve" y="0.8em" fill="#707070" text-anchor="middle" pointer-events="none" font-family="Arial" font-weight="normal" transform="matrix(1,0,0,1,0,-54.9)"><tspan dy="0" >8: Сохраняет</tspan><tspan dy="1.2em" x="0" >сообщение со</tspan><tspan dy="1.2em" x="0" >статусом</tspan><tspan dy="1.2em" x="0" >Отправлено</tspan></text></g><g id="v-3913"  label-idx="1" cursor="move" transform="matrix(1,0,0,1,1568.2467041015625,940.205078125)"><rect joint-selector="rect" id="v-3918" fill="#ffffff" rx="3" ry="3" pointer-events="none" width="135.0361328125" height="18.58485221862793" transform="matrix(1,0,0,1,-67.5,-9.3)"></rect><text joint-selector="text" id="v-3917" font-size="17px" xml:space="preserve" y="0.8em" fill="#707070" text-anchor="middle" pointer-events="none" font-family="Arial" font-weight="normal" transform="matrix(1,0,0,1,0,-7.9)"><tspan dy="0" >[MongoDB Driver]</tspan></text></g><g id="v-3914"  label-idx="2" cursor="move" transform="matrix(1,0,0,1,1558.2467041015625,948.6051025390625)"><rect joint-selector="rect" id="v-3920" fill="#ffffff" rx="3" ry="3"  width="0" height="0" transform="matrix(1,0,0,1,0,0)" display="none"></rect><text joint-selector="text" id="v-3919" fill="#000000" font-size="14" text-anchor="middle" pointer-events="none"></text></g></g><g  display="none" style="display: none;"><g  transform="translate(1585.2957428668365, 896.1303214164545)" id="v-4067"><circle  idx="0" r="10"></circle><path  idx="0" d="M16,5.333c-7.732,0-14,4.701-14,10.5c0,1.982,0.741,3.833,2.016,5.414L2,25.667l5.613-1.441c2.339,1.317,5.237,2.107,8.387,2.107c7.732,0,14-4.701,14-10.5C30,10.034,23.732,5.333,16,5.333z" transform="translate(5, -33)"></path><path  idx="0" transform="scale(.8) translate(9.5, -37)" d="M24.778,21.419 19.276,15.917 24.777,10.415 21.949,7.585 16.447,13.087 10.945,7.585 8.117,10.415 13.618,15.917 8.116,21.419 10.946,24.248 16.447,18.746 21.948,24.248z"><title>Remove vertex.</title></path></g></g><g  id="v-3925" display="none"><g  id="v-3910"><path  end="source" d="M 26 0 L 0 13 L 26 26 z"></path></g><g  id="v-3911"><path  end="target" d="M 26 0 L 0 13 L 26 26 z"></path></g></g><g  id="v-3924" display="none"><g  id="v-3909" transform="translate(1427.3942964511195, 662.1435587476568) "><g  event="remove"><circle r="11"></circle><path transform="scale(.8) translate(-16, -16)" d="M24.778,21.419 19.276,15.917 24.777,10.415 21.949,7.585 16.447,13.087 10.945,7.585 8.117,10.415 13.618,15.917 8.116,21.419 10.946,24.248 16.447,18.746 21.948,24.248z"></path><title>Remove link.</title></g><g  event="link:options"><circle r="11" transform="translate(25)"></circle><path fill="white" transform="scale(.55) translate(29, -16)" d="M31.229,17.736c0.064-0.571,0.104-1.148,0.104-1.736s-0.04-1.166-0.104-1.737l-4.377-1.557c-0.218-0.716-0.504-1.401-0.851-2.05l1.993-4.192c-0.725-0.91-1.549-1.734-2.458-2.459l-4.193,1.994c-0.647-0.347-1.334-0.632-2.049-0.849l-1.558-4.378C17.165,0.708,16.588,0.667,16,0.667s-1.166,0.041-1.737,0.105L12.707,5.15c-0.716,0.217-1.401,0.502-2.05,0.849L6.464,4.005C5.554,4.73,4.73,5.554,4.005,6.464l1.994,4.192c-0.347,0.648-0.632,1.334-0.849,2.05l-4.378,1.557C0.708,14.834,0.667,15.412,0.667,16s0.041,1.165,0.105,1.736l4.378,1.558c0.217,0.715,0.502,1.401,0.849,2.049l-1.994,4.193c0.725,0.909,1.549,1.733,2.459,2.458l4.192-1.993c0.648,0.347,1.334,0.633,2.05,0.851l1.557,4.377c0.571,0.064,1.148,0.104,1.737,0.104c0.588,0,1.165-0.04,1.736-0.104l1.558-4.377c0.715-0.218,1.399-0.504,2.049-0.851l4.193,1.993c0.909-0.725,1.733-1.549,2.458-2.458l-1.993-4.193c0.347-0.647,0.633-1.334,0.851-2.049L31.229,17.736zM16,20.871c-2.69,0-4.872-2.182-4.872-4.871c0-2.69,2.182-4.872,4.872-4.872c2.689,0,4.871,2.182,4.871,4.872C20.871,18.689,18.689,20.871,16,20.871z"></path><title>Link options.</title></g></g></g></g><!--z-index:49--><g   id="j_245" ><path  stroke="#707070" d="M 1953 929 L 1778 670 C 1774.4695047554424 664.5797857223636 1769.4695047554424 660.5797857223636 1763 658 L 1529 567" id="v-3941" stroke-width="2" stroke-dasharray="30 30" fill="none"></path><path  fill="black" stroke="black" d="M 0 0 0 0" transform="matrix(-0.5591078978982585,-0.8290949031973303,0.8290949031973303,-0.5591078978982585,1952.8460693359375,929)"></path><path  fill="#707070" stroke="#707070" d="M 20 0 L 0 10 L 20 20 z" id="v-3943" transform="matrix(0.931604067375912,0.3634747056517925,-0.3634747056517925,0.931604067375912,1532.634746421822,557.4699886369087)"></path><path  d="M 1953 929 L 1778 670 C 1774.4695047554424 664.5797857223636 1769.4695047554424 660.5797857223636 1763 658 L 1529 567" id="v-3942" fill="none" style="pointer-events: visiblepainted; cursor: auto;"></path><g ><g id="v-3932"  label-idx="0" cursor="move" transform="matrix(1,0,0,1,1789.7532958984375,687.3948974609375)"><rect joint-selector="rect" id="v-3936" fill="#ffffff" rx="3" ry="3" pointer-events="none" width="177.57791137695312" height="142.21660614013672" transform="matrix(1,0,0,1,-88.8,-71.1)"></rect><text joint-selector="text" id="v-3935" font-size="24px" xml:space="preserve" y="0.8em" fill="#707070" text-anchor="middle" pointer-events="none" font-family="Arial" font-weight="normal" transform="matrix(1,0,0,1,0,-69.3)"><tspan dy="0" >9:</tspan><tspan dy="1.2em" x="0" >Подтверждение</tspan><tspan dy="1.2em" x="0" >сохранения,</tspan><tspan dy="1.2em" x="0" >возвращает id</tspan><tspan dy="1.2em" x="0" >сообщения</tspan></text></g><g id="v-3933"  label-idx="1" cursor="move" transform="matrix(1,0,0,1,1789.7532958984375,771.3948974609375)"><rect joint-selector="rect" id="v-3938" fill="#ffffff" rx="3" ry="3" pointer-events="none" width="135.0361328125" height="18.58485221862793" transform="matrix(1,0,0,1,-67.5,-9.3)"></rect><text joint-selector="text" id="v-3937" font-size="17px" xml:space="preserve" y="0.8em" fill="#707070" text-anchor="middle" pointer-events="none" font-family="Arial" font-weight="normal" transform="matrix(1,0,0,1,0,-7.9)"><tspan dy="0" >[MongoDB Driver]</tspan></text></g><g id="v-3934"  label-idx="2" cursor="move" transform="matrix(1,0,0,1,1779.7532958984375,779.794921875)"><rect joint-selector="rect" id="v-3940" fill="#ffffff" rx="3" ry="3"  width="0" height="0" transform="matrix(1,0,0,1,0,0)" display="none"></rect><text joint-selector="text" id="v-3939" fill="#000000" font-size="14" text-anchor="middle" pointer-events="none"></text></g></g><g  display="none" style="display: none;"><g  transform="translate(1772.7042571331635, 661.8696785835455)" id="v-4068"><circle  idx="0" r="10"></circle><path  idx="0" d="M16,5.333c-7.732,0-14,4.701-14,10.5c0,1.982,0.741,3.833,2.016,5.414L2,25.667l5.613-1.441c2.339,1.317,5.237,2.107,8.387,2.107c7.732,0,14-4.701,14-10.5C30,10.034,23.732,5.333,16,5.333z" transform="translate(5, -33)"></path><path  idx="0" transform="scale(.8) translate(9.5, -37)" d="M24.778,21.419 19.276,15.917 24.777,10.415 21.949,7.585 16.447,13.087 10.945,7.585 8.117,10.415 13.618,15.917 8.116,21.419 10.946,24.248 16.447,18.746 21.948,24.248z"><title>Remove vertex.</title></path></g></g><g  id="v-3945" display="none"><g  id="v-3930"><path  end="source" d="M 26 0 L 0 13 L 26 26 z"></path></g><g  id="v-3931"><path  end="target" d="M 26 0 L 0 13 L 26 26 z"></path></g></g><g  id="v-3944" display="none"><g  id="v-3929" transform="translate(1930.6057035488807, 895.8564412523433) "><g  event="remove"><circle r="11"></circle><path transform="scale(.8) translate(-16, -16)" d="M24.778,21.419 19.276,15.917 24.777,10.415 21.949,7.585 16.447,13.087 10.945,7.585 8.117,10.415 13.618,15.917 8.116,21.419 10.946,24.248 16.447,18.746 21.948,24.248z"></path><title>Remove link.</title></g><g  event="link:options"><circle r="11" transform="translate(25)"></circle><path fill="white" transform="scale(.55) translate(29, -16)" d="M31.229,17.736c0.064-0.571,0.104-1.148,0.104-1.736s-0.04-1.166-0.104-1.737l-4.377-1.557c-0.218-0.716-0.504-1.401-0.851-2.05l1.993-4.192c-0.725-0.91-1.549-1.734-2.458-2.459l-4.193,1.994c-0.647-0.347-1.334-0.632-2.049-0.849l-1.558-4.378C17.165,0.708,16.588,0.667,16,0.667s-1.166,0.041-1.737,0.105L12.707,5.15c-0.716,0.217-1.401,0.502-2.05,0.849L6.464,4.005C5.554,4.73,4.73,5.554,4.005,6.464l1.994,4.192c-0.347,0.648-0.632,1.334-0.849,2.05l-4.378,1.557C0.708,14.834,0.667,15.412,0.667,16s0.041,1.165,0.105,1.736l4.378,1.558c0.217,0.715,0.502,1.401,0.849,2.049l-1.994,4.193c0.725,0.909,1.549,1.733,2.459,2.458l4.192-1.993c0.648,0.347,1.334,0.633,2.05,0.851l1.557,4.377c0.571,0.064,1.148,0.104,1.737,0.104c0.588,0,1.165-0.04,1.736-0.104l1.558-4.377c0.715-0.218,1.399-0.504,2.049-0.851l4.193,1.993c0.909-0.725,1.733-1.549,2.458-2.458l-1.993-4.193c0.347-0.647,0.633-1.334,0.851-2.049L31.229,17.736zM16,20.871c-2.69,0-4.872-2.182-4.872-4.871c0-2.69,2.182-4.872,4.872-4.872c2.689,0,4.871,2.182,4.871,4.872C20.871,18.689,18.689,20.871,16,20.871z"></path><title>Link options.</title></g></g></g></g><!--z-index:50--><g   id="j_246" ><path  stroke="#707070" d="M 1529 567 L 2449 925 C 2455 927.6666666666665 2461 930.3333333333333 2467 933 L 2579 981" id="v-3962" stroke-width="2" stroke-dasharray="30 30" fill="none"></path><path  fill="black" stroke="black" d="M 0 0 0 0" transform="matrix(0.9316709519213494,0.3633032305746352,-0.3633032305746352,0.9316709519213494,1529,566.73828125)"></path><path  fill="#707070" stroke="#707070" d="M 20 0 L 0 10 L 20 20 z" id="v-3964" transform="matrix(-0.917491106755739,-0.3977562935066261,0.3977562935066261,-0.917491106755739,2575.0225434449903,990.6315389440316)"></path><path  d="M 1529 567 L 2449 925 C 2455 927.6666666666665 2461 930.3333333333333 2467 933 L 2579 981" id="v-3963" fill="none" style="pointer-events: visiblepainted; cursor: auto;"></path><g ><g id="v-3953"  label-idx="0" cursor="move" transform="matrix(1,0,0,1,2054.957275390625,771.666015625)"><rect joint-selector="rect" id="v-3957" fill="#ffffff" rx="3" ry="3" pointer-events="none" width="201.0767364501953" height="84.61661148071289" transform="matrix(1,0,0,1,-100.5,-42.3)"></rect><text joint-selector="text" id="v-3956" font-size="24px" xml:space="preserve" y="0.8em" fill="#707070" text-anchor="middle" pointer-events="none" font-family="Arial" font-weight="normal" transform="matrix(1,0,0,1,0,-40.5)"><tspan dy="0" >10: Уведомляет</tspan><tspan dy="1.2em" x="0" >получателя о</tspan><tspan dy="1.2em" x="0" >новом сообщении</tspan></text></g><g id="v-3954"  label-idx="1" cursor="move" transform="matrix(1,0,0,1,2054.957275390625,826.865966796875)"><rect joint-selector="rect" id="v-3959" fill="#ffffff" rx="3" ry="3" pointer-events="none" width="65.14942169189453" height="18.385748863220215" transform="matrix(1,0,0,1,-32.6,-9.2)"></rect><text joint-selector="text" id="v-3958" font-size="17px" xml:space="preserve" y="0.8em" fill="#707070" text-anchor="middle" pointer-events="none" font-family="Arial" font-weight="normal" transform="matrix(1,0,0,1,0,-7.8)"><tspan dy="0" >[HTTPS]</tspan></text></g><g id="v-3955"  label-idx="2" cursor="move" transform="matrix(1,0,0,1,2044.957275390625,835.2659912109375)"><rect joint-selector="rect" id="v-3961" fill="#ffffff" rx="3" ry="3"  width="0" height="0" transform="matrix(1,0,0,1,0,0)" display="none"></rect><text joint-selector="text" id="v-3960" fill="#000000" font-size="14" text-anchor="middle" pointer-events="none"></text></g></g><g  display="none" style="display: none;"><g  transform="translate(2458, 929)" id="v-3950"><circle  idx="0" r="10"></circle><path  idx="0" d="M16,5.333c-7.732,0-14,4.701-14,10.5c0,1.982,0.741,3.833,2.016,5.414L2,25.667l5.613-1.441c2.339,1.317,5.237,2.107,8.387,2.107c7.732,0,14-4.701,14-10.5C30,10.034,23.732,5.333,16,5.333z" transform="translate(5, -33)"></path><path  idx="0" transform="scale(.8) translate(9.5, -37)" d="M24.778,21.419 19.276,15.917 24.777,10.415 21.949,7.585 16.447,13.087 10.945,7.585 8.117,10.415 13.618,15.917 8.116,21.419 10.946,24.248 16.447,18.746 21.948,24.248z"><title>Remove vertex.</title></path></g></g><g  id="v-3966" display="none"><g  id="v-3951"><path  end="source" d="M 26 0 L 0 13 L 26 26 z"></path></g><g  id="v-3952"><path  end="target" d="M 26 0 L 0 13 L 26 26 z"></path></g></g><g  id="v-3965" display="none"><g  id="v-3949" transform="translate(1566.2771444278383, 581.5056714186587) "><g  event="remove"><circle r="11"></circle><path transform="scale(.8) translate(-16, -16)" d="M24.778,21.419 19.276,15.917 24.777,10.415 21.949,7.585 16.447,13.087 10.945,7.585 8.117,10.415 13.618,15.917 8.116,21.419 10.946,24.248 16.447,18.746 21.948,24.248z"></path><title>Remove link.</title></g><g  event="link:options"><circle r="11" transform="translate(25)"></circle><path fill="white" transform="scale(.55) translate(29, -16)" d="M31.229,17.736c0.064-0.571,0.104-1.148,0.104-1.736s-0.04-1.166-0.104-1.737l-4.377-1.557c-0.218-0.716-0.504-1.401-0.851-2.05l1.993-4.192c-0.725-0.91-1.549-1.734-2.458-2.459l-4.193,1.994c-0.647-0.347-1.334-0.632-2.049-0.849l-1.558-4.378C17.165,0.708,16.588,0.667,16,0.667s-1.166,0.041-1.737,0.105L12.707,5.15c-0.716,0.217-1.401,0.502-2.05,0.849L6.464,4.005C5.554,4.73,4.73,5.554,4.005,6.464l1.994,4.192c-0.347,0.648-0.632,1.334-0.849,2.05l-4.378,1.557C0.708,14.834,0.667,15.412,0.667,16s0.041,1.165,0.105,1.736l4.378,1.558c0.217,0.715,0.502,1.401,0.849,2.049l-1.994,4.193c0.725,0.909,1.549,1.733,2.459,2.458l4.192-1.993c0.648,0.347,1.334,0.633,2.05,0.851l1.557,4.377c0.571,0.064,1.148,0.104,1.737,0.104c0.588,0,1.165-0.04,1.736-0.104l1.558-4.377c0.715-0.218,1.399-0.504,2.049-0.851l4.193,1.993c0.909-0.725,1.733-1.549,2.458-2.458l-1.993-4.193c0.347-0.647,0.633-1.334,0.851-2.049L31.229,17.736zM16,20.871c-2.69,0-4.872-2.182-4.872-4.871c0-2.69,2.182-4.872,4.872-4.872c2.689,0,4.871,2.182,4.871,4.872C20.871,18.689,18.689,20.871,16,20.871z"></path><title>Link options.</title></g></g></g></g><!--z-index:51--><g   id="j_247" ><path  stroke="#707070" d="M 2798 1229 L 2783 1529" id="v-3980" stroke-width="2" stroke-dasharray="30 30" fill="none"></path><path  fill="black" stroke="black" d="M 0 0 0 0" transform="matrix(-0.05069310602712138,0.9987142779600795,-0.9987142779600795,-0.05069310602712138,2798.230712890625,1229)"></path><path  fill="#707070" stroke="#707070" d="M 20 0 L 0 10 L 20 20 z" id="v-3982" transform="matrix(0.05069284005341901,-0.9987142914604349,0.9987142914604349,0.05069284005341901,2773.0115439192346,1528.5816549437575)"></path><path  d="M 2798 1229 L 2783 1529" id="v-3981" fill="none" style="pointer-events: visiblepainted; cursor: auto;"></path><g ><g id="v-3973"  label-idx="0" cursor="move" transform="matrix(1,0,0,1,2790.5,1379)"><rect joint-selector="rect" id="v-3976" fill="#ffffff" rx="3" ry="3" pointer-events="none" width="166.83692932128906" height="84.61661148071289" transform="matrix(1,0,0,1,-83.4,-42.3)"></rect><text joint-selector="text" id="v-3975" font-size="24px" xml:space="preserve" y="0.8em" fill="#707070" text-anchor="middle" pointer-events="none" font-family="Arial" font-weight="normal" transform="matrix(1,0,0,1,0,-40.5)"><tspan dy="0" >11: Доставляет</tspan><tspan dy="1.2em" x="0" >push-</tspan><tspan dy="1.2em" x="0" >уведомление</tspan></text></g><g id="v-3974"  label-idx="1" cursor="move" transform="matrix(1,0,0,1,2780.5,1434.199951171875)"><rect joint-selector="rect" id="v-3978" fill="#ffffff" rx="3" ry="3"  width="0" height="0" transform="matrix(1,0,0,1,0,0)" display="none"></rect><text joint-selector="text" id="v-3977" fill="#000000" font-size="14" text-anchor="middle" pointer-events="none"></text></g></g><g  display="none" style="display: none;"></g><g  id="v-3984" display="none"><g  id="v-3971"><path  end="source" d="M 26 0 L 0 13 L 26 26 z"></path></g><g  id="v-3972"><path  end="target" d="M 26 0 L 0 13 L 26 26 z"></path></g></g><g  id="v-3983" display="none"><g  id="v-3970" transform="translate(2796.0024953222446, 1268.9500935551137) "><g  event="remove"><circle r="11"></circle><path transform="scale(.8) translate(-16, -16)" d="M24.778,21.419 19.276,15.917 24.777,10.415 21.949,7.585 16.447,13.087 10.945,7.585 8.117,10.415 13.618,15.917 8.116,21.419 10.946,24.248 16.447,18.746 21.948,24.248z"></path><title>Remove link.</title></g><g  event="link:options"><circle r="11" transform="translate(25)"></circle><path fill="white" transform="scale(.55) translate(29, -16)" d="M31.229,17.736c0.064-0.571,0.104-1.148,0.104-1.736s-0.04-1.166-0.104-1.737l-4.377-1.557c-0.218-0.716-0.504-1.401-0.851-2.05l1.993-4.192c-0.725-0.91-1.549-1.734-2.458-2.459l-4.193,1.994c-0.647-0.347-1.334-0.632-2.049-0.849l-1.558-4.378C17.165,0.708,16.588,0.667,16,0.667s-1.166,0.041-1.737,0.105L12.707,5.15c-0.716,0.217-1.401,0.502-2.05,0.849L6.464,4.005C5.554,4.73,4.73,5.554,4.005,6.464l1.994,4.192c-0.347,0.648-0.632,1.334-0.849,2.05l-4.378,1.557C0.708,14.834,0.667,15.412,0.667,16s0.041,1.165,0.105,1.736l4.378,1.558c0.217,0.715,0.502,1.401,0.849,2.049l-1.994,4.193c0.725,0.909,1.549,1.733,2.459,2.458l4.192-1.993c0.648,0.347,1.334,0.633,2.05,0.851l1.557,4.377c0.571,0.064,1.148,0.104,1.737,0.104c0.588,0,1.165-0.04,1.736-0.104l1.558-4.377c0.715-0.218,1.399-0.504,2.049-0.851l4.193,1.993c0.909-0.725,1.733-1.549,2.458-2.458l-1.993-4.193c0.347-0.647,0.633-1.334,0.851-2.049L31.229,17.736zM16,20.871c-2.69,0-4.872-2.182-4.872-4.871c0-2.69,2.182-4.872,4.872-4.872c2.689,0,4.871,2.182,4.871,4.872C20.871,18.689,18.689,20.871,16,20.871z"></path><title>Link options.</title></g></g></g></g><!--z-index:52--><g   id="j_248" ><path  stroke="#707070" d="M 1229 629 L 1158 770 C 1155.3333333333333 775.9999999999999 1155.3333333333333 781.9999999999999 1158 788 L 1229 929" id="v-4000" stroke-width="2" stroke-dasharray="30 30" fill="none"></path><path  fill="black" stroke="black" d="M 0 0 0 0" transform="matrix(-0.4472135493031434,0.8944272140983217,-0.8944272140983217,-0.4472135493031434,1229,629)"></path><path  fill="#707070" stroke="#707070" d="M 20 0 L 0 10 L 20 20 z" id="v-4002" transform="matrix(-0.4472135493031436,-0.8944272140983216,0.8944272140983216,-0.4472135493031436,1220.0556953832966,933.4721327316718)"></path><path  d="M 1229 629 L 1158 770 C 1155.3333333333333 775.9999999999999 1155.3333333333333 781.9999999999999 1158 788 L 1229 929" id="v-4001" fill="none" style="pointer-events: visiblepainted; cursor: auto;"></path><g ><g id="v-3991"  label-idx="0" cursor="move" transform="matrix(1,0,0,1,1156,779)"><rect joint-selector="rect" id="v-3995" fill="#ffffff" rx="3" ry="3" pointer-events="none" width="198.3094024658203" height="84.61661148071289" transform="matrix(1,0,0,1,-99.2,-42.3)"></rect><text joint-selector="text" id="v-3994" font-size="24px" xml:space="preserve" y="0.8em" fill="#707070" text-anchor="middle" pointer-events="none" font-family="Arial" font-weight="normal" transform="matrix(1,0,0,1,0,-40.5)"><tspan dy="0" >12: Возвращает</tspan><tspan dy="1.2em" x="0" >успешный ответ с</tspan><tspan dy="1.2em" x="0" >id сообщения</tspan></text></g><g id="v-3992"  label-idx="1" cursor="move" transform="matrix(1,0,0,1,1156,834.2000122070312)"><rect joint-selector="rect" id="v-3997" fill="#ffffff" rx="3" ry="3" pointer-events="none" width="115.19581604003906" height="18.385748863220215" transform="matrix(1,0,0,1,-57.6,-9.2)"></rect><text joint-selector="text" id="v-3996" font-size="17px" xml:space="preserve" y="0.8em" fill="#707070" text-anchor="middle" pointer-events="none" font-family="Arial" font-weight="normal" transform="matrix(1,0,0,1,0,-7.8)"><tspan dy="0" >[HTTPS/REST]</tspan></text></g><g id="v-3993"  label-idx="2" cursor="move" transform="matrix(1,0,0,1,1146,842.5999755859375)"><rect joint-selector="rect" id="v-3999" fill="#ffffff" rx="3" ry="3"  width="0" height="0" transform="matrix(1,0,0,1,0,0)" display="none"></rect><text joint-selector="text" id="v-3998" fill="#000000" font-size="14" text-anchor="middle" pointer-events="none"></text></g></g><g  display="none" style="display: none;"><g  transform="translate(1154, 779)" id="v-4062"><circle  idx="0" r="10"></circle><path  idx="0" d="M16,5.333c-7.732,0-14,4.701-14,10.5c0,1.982,0.741,3.833,2.016,5.414L2,25.667l5.613-1.441c2.339,1.317,5.237,2.107,8.387,2.107c7.732,0,14-4.701,14-10.5C30,10.034,23.732,5.333,16,5.333z" transform="translate(5, -33)"></path><path  idx="0" transform="scale(.8) translate(9.5, -37)" d="M24.778,21.419 19.276,15.917 24.777,10.415 21.949,7.585 16.447,13.087 10.945,7.585 8.117,10.415 13.618,15.917 8.116,21.419 10.946,24.248 16.447,18.746 21.948,24.248z"><title>Remove vertex.</title></path></g></g><g  id="v-4004" display="none"><g  id="v-3989"><path  end="source" d="M 26 0 L 0 13 L 26 26 z"></path></g><g  id="v-3990"><path  end="target" d="M 26 0 L 0 13 L 26 26 z"></path></g></g><g  id="v-4003" display="none"><g  id="v-3988" transform="translate(1211.0101768418851, 664.7262685252707) "><g  event="remove"><circle r="11"></circle><path transform="scale(.8) translate(-16, -16)" d="M24.778,21.419 19.276,15.917 24.777,10.415 21.949,7.585 16.447,13.087 10.945,7.585 8.117,10.415 13.618,15.917 8.116,21.419 10.946,24.248 16.447,18.746 21.948,24.248z"></path><title>Remove link.</title></g><g  event="link:options"><circle r="11" transform="translate(25)"></circle><path fill="white" transform="scale(.55) translate(29, -16)" d="M31.229,17.736c0.064-0.571,0.104-1.148,0.104-1.736s-0.04-1.166-0.104-1.737l-4.377-1.557c-0.218-0.716-0.504-1.401-0.851-2.05l1.993-4.192c-0.725-0.91-1.549-1.734-2.458-2.459l-4.193,1.994c-0.647-0.347-1.334-0.632-2.049-0.849l-1.558-4.378C17.165,0.708,16.588,0.667,16,0.667s-1.166,0.041-1.737,0.105L12.707,5.15c-0.716,0.217-1.401,0.502-2.05,0.849L6.464,4.005C5.554,4.73,4.73,5.554,4.005,6.464l1.994,4.192c-0.347,0.648-0.632,1.334-0.849,2.05l-4.378,1.557C0.708,14.834,0.667,15.412,0.667,16s0.041,1.165,0.105,1.736l4.378,1.558c0.217,0.715,0.502,1.401,0.849,2.049l-1.994,4.193c0.725,0.909,1.549,1.733,2.459,2.458l4.192-1.993c0.648,0.347,1.334,0.633,2.05,0.851l1.557,4.377c0.571,0.064,1.148,0.104,1.737,0.104c0.588,0,1.165-0.04,1.736-0.104l1.558-4.377c0.715-0.218,1.399-0.504,2.049-0.851l4.193,1.993c0.909-0.725,1.733-1.549,2.458-2.458l-1.993-4.193c0.347-0.647,0.633-1.334,0.851-2.049L31.229,17.736zM16,20.871c-2.69,0-4.872-2.182-4.872-4.871c0-2.69,2.182-4.872,4.872-4.872c2.689,0,4.871,2.182,4.871,4.872C20.871,18.689,18.689,20.871,16,20.871z"></path><title>Link options.</title></g></g></g></g><!--z-index:53--><g   id="j_249" ><path  stroke="#707070" d="M 1229 1229 L 1158 1370 C 1155.3333333333333 1376 1155.3333333333333 1382 1158 1388 L 1229 1529" id="v-4020" stroke-width="2" stroke-dasharray="30 30" fill="none"></path><path  fill="black" stroke="black" d="M 0 0 0 0" transform="matrix(-0.4472135493031434,0.8944272140983217,-0.8944272140983217,-0.4472135493031434,1229,1229)"></path><path  fill="#707070" stroke="#707070" d="M 20 0 L 0 10 L 20 20 z" id="v-4022" transform="matrix(-0.4472135493031436,-0.8944272140983216,0.8944272140983216,-0.4472135493031436,1220.0556953832966,1533.472193766828)"></path><path  d="M 1229 1229 L 1158 1370 C 1155.3333333333333 1376 1155.3333333333333 1382 1158 1388 L 1229 1529" id="v-4021" fill="none" style="pointer-events: visiblepainted; cursor: auto;"></path><g ><g id="v-4011"  label-idx="0" cursor="move" transform="matrix(1,0,0,1,1156,1379)"><rect joint-selector="rect" id="v-4015" fill="#ffffff" rx="3" ry="3" pointer-events="none" width="176.1239013671875" height="55.816612243652344" transform="matrix(1,0,0,1,-88.1,-27.9)"></rect><text joint-selector="text" id="v-4014" font-size="24px" xml:space="preserve" y="0.8em" fill="#707070" text-anchor="middle" pointer-events="none" font-family="Arial" font-weight="normal" transform="matrix(1,0,0,1,0,-26.1)"><tspan dy="0" >13: Возвращает</tspan><tspan dy="1.2em" x="0" >ответ</tspan></text></g><g id="v-4012"  label-idx="1" cursor="move" transform="matrix(1,0,0,1,1156,1419.800048828125)"><rect joint-selector="rect" id="v-4017" fill="#ffffff" rx="3" ry="3" pointer-events="none" width="115.19581604003906" height="18.385748863220215" transform="matrix(1,0,0,1,-57.6,-9.2)"></rect><text joint-selector="text" id="v-4016" font-size="17px" xml:space="preserve" y="0.8em" fill="#707070" text-anchor="middle" pointer-events="none" font-family="Arial" font-weight="normal" transform="matrix(1,0,0,1,0,-7.8)"><tspan dy="0" >[HTTPS/REST]</tspan></text></g><g id="v-4013"  label-idx="2" cursor="move" transform="matrix(1,0,0,1,1146,1428.199951171875)"><rect joint-selector="rect" id="v-4019" fill="#ffffff" rx="3" ry="3"  width="0" height="0" transform="matrix(1,0,0,1,0,0)" display="none"></rect><text joint-selector="text" id="v-4018" fill="#000000" font-size="14" text-anchor="middle" pointer-events="none"></text></g></g><g  display="none" style="display: none;"><g  transform="translate(1154, 1379)" id="v-4060"><circle  idx="0" r="10"></circle><path  idx="0" d="M16,5.333c-7.732,0-14,4.701-14,10.5c0,1.982,0.741,3.833,2.016,5.414L2,25.667l5.613-1.441c2.339,1.317,5.237,2.107,8.387,2.107c7.732,0,14-4.701,14-10.5C30,10.034,23.732,5.333,16,5.333z" transform="translate(5, -33)"></path><path  idx="0" transform="scale(.8) translate(9.5, -37)" d="M24.778,21.419 19.276,15.917 24.777,10.415 21.949,7.585 16.447,13.087 10.945,7.585 8.117,10.415 13.618,15.917 8.116,21.419 10.946,24.248 16.447,18.746 21.948,24.248z"><title>Remove vertex.</title></path></g></g><g  id="v-4024" display="none"><g  id="v-4009"><path  end="source" d="M 26 0 L 0 13 L 26 26 z"></path></g><g  id="v-4010"><path  end="target" d="M 26 0 L 0 13 L 26 26 z"></path></g></g><g  id="v-4023" display="none"><g  id="v-4008" transform="translate(1211.0101768418851, 1264.7262685252708) "><g  event="remove"><circle r="11"></circle><path transform="scale(.8) translate(-16, -16)" d="M24.778,21.419 19.276,15.917 24.777,10.415 21.949,7.585 16.447,13.087 10.945,7.585 8.117,10.415 13.618,15.917 8.116,21.419 10.946,24.248 16.447,18.746 21.948,24.248z"></path><title>Remove link.</title></g><g  event="link:options"><circle r="11" transform="translate(25)"></circle><path fill="white" transform="scale(.55) translate(29, -16)" d="M31.229,17.736c0.064-0.571,0.104-1.148,0.104-1.736s-0.04-1.166-0.104-1.737l-4.377-1.557c-0.218-0.716-0.504-1.401-0.851-2.05l1.993-4.192c-0.725-0.91-1.549-1.734-2.458-2.459l-4.193,1.994c-0.647-0.347-1.334-0.632-2.049-0.849l-1.558-4.378C17.165,0.708,16.588,0.667,16,0.667s-1.166,0.041-1.737,0.105L12.707,5.15c-0.716,0.217-1.401,0.502-2.05,0.849L6.464,4.005C5.554,4.73,4.73,5.554,4.005,6.464l1.994,4.192c-0.347,0.648-0.632,1.334-0.849,2.05l-4.378,1.557C0.708,14.834,0.667,15.412,0.667,16s0.041,1.165,0.105,1.736l4.378,1.558c0.217,0.715,0.502,1.401,0.849,2.049l-1.994,4.193c0.725,0.909,1.549,1.733,2.459,2.458l4.192-1.993c0.648,0.347,1.334,0.633,2.05,0.851l1.557,4.377c0.571,0.064,1.148,0.104,1.737,0.104c0.588,0,1.165-0.04,1.736-0.104l1.558-4.377c0.715-0.218,1.399-0.504,2.049-0.851l4.193,1.993c0.909-0.725,1.733-1.549,2.458-2.458l-1.993-4.193c0.347-0.647,0.633-1.334,0.851-2.049L31.229,17.736zM16,20.871c-2.69,0-4.872-2.182-4.872-4.871c0-2.69,2.182-4.872,4.872-4.872c2.689,0,4.871,2.182,4.871,4.872C20.871,18.689,18.689,20.871,16,20.871z"></path><title>Link options.</title></g></g></g></g><!--z-index:54--><g   id="j_250" ><path  stroke="#707070" d="M 1228 1829 L 1146 1989 C 1143.0738825368685 1995.1566877898795 1143.407215870202 2001.1566877898795 1147 2007 L 1232 2142" id="v-4041" stroke-width="2" stroke-dasharray="30 30" fill="none"></path><path  fill="black" stroke="black" d="M 0 0 0 0" transform="matrix(-0.45339373381912523,0.8913103399678207,-0.8913103399678207,-0.45339373381912523,1227.6976318359375,1829)"></path><path  fill="#707070" stroke="#707070" d="M 20 0 L 0 10 L 20 20 z" id="v-4043" transform="matrix(-0.5311960637899948,-0.8472489255313432,0.8472489255313432,-0.5311960637899948,1223.548455757585,2147.7497819244645)"></path><path  d="M 1228 1829 L 1146 1989 C 1143.0738825368685 1995.1566877898795 1143.407215870202 2001.1566877898795 1147 2007 L 1232 2142" id="v-4042" fill="none" style="pointer-events: visiblepainted; cursor: auto;"></path><g ><g id="v-4031"  label-idx="0" cursor="move" transform="matrix(1,0,0,1,1146.3154296875,1988.384521484375)"><rect joint-selector="rect" id="v-4035" fill="#ffffff" rx="3" ry="3" pointer-events="none" width="176.07699584960938" height="84.61661148071289" transform="matrix(1,0,0,1,-88,-42.3)"></rect><text joint-selector="text" id="v-4034" font-size="24px" xml:space="preserve" y="0.8em" fill="#707070" text-anchor="middle" pointer-events="none" font-family="Arial" font-weight="normal" transform="matrix(1,0,0,1,0,-40.5)"><tspan dy="0" >14: Отображает</tspan><tspan dy="1.2em" x="0" >сообщение как</tspan><tspan dy="1.2em" x="0" >доставленное</tspan></text></g><g id="v-4032"  label-idx="1" cursor="move" transform="matrix(1,0,0,1,1146.3154296875,2043.5845947265625)"><rect joint-selector="rect" id="v-4037" fill="#ffffff" rx="3" ry="3" pointer-events="none" width="65.14942169189453" height="18.385748863220215" transform="matrix(1,0,0,1,-32.6,-9.2)"></rect><text joint-selector="text" id="v-4036" font-size="17px" xml:space="preserve" y="0.8em" fill="#707070" text-anchor="middle" pointer-events="none" font-family="Arial" font-weight="normal" transform="matrix(1,0,0,1,0,-7.8)"><tspan dy="0" >[HTTPS]</tspan></text></g><g id="v-4033"  label-idx="2" cursor="move" transform="matrix(1,0,0,1,1136.3154296875,2051.984619140625)"><rect joint-selector="rect" id="v-4039" fill="#ffffff" rx="3" ry="3"  width="0" height="0" transform="matrix(1,0,0,1,0,0)" display="none"></rect><text joint-selector="text" id="v-4038" fill="#000000" font-size="14" text-anchor="middle" pointer-events="none"></text></g></g><g  display="none" style="display: none;"><g  transform="translate(1141.610823805303, 1998.2350316848192)" id="v-4057"><circle  idx="0" r="10"></circle><path  idx="0" d="M16,5.333c-7.732,0-14,4.701-14,10.5c0,1.982,0.741,3.833,2.016,5.414L2,25.667l5.613-1.441c2.339,1.317,5.237,2.107,8.387,2.107c7.732,0,14-4.701,14-10.5C30,10.034,23.732,5.333,16,5.333z" transform="translate(5, -33)"></path><path  idx="0" transform="scale(.8) translate(9.5, -37)" d="M24.778,21.419 19.276,15.917 24.777,10.415 21.949,7.585 16.447,13.087 10.945,7.585 8.117,10.415 13.618,15.917 8.116,21.419 10.946,24.248 16.447,18.746 21.948,24.248z"><title>Remove vertex.</title></path></g></g><g  id="v-4045" display="none"><g  id="v-4029"><path  end="source" d="M 26 0 L 0 13 L 26 26 z"></path></g><g  id="v-4030"><path  end="target" d="M 26 0 L 0 13 L 26 26 z"></path></g></g><g  id="v-4044" display="none"><g  id="v-4028" transform="translate(1209.756368363584, 1864.597330022275) "><g  event="remove"><circle r="11"></circle><path transform="scale(.8) translate(-16, -16)" d="M24.778,21.419 19.276,15.917 24.777,10.415 21.949,7.585 16.447,13.087 10.945,7.585 8.117,10.415 13.618,15.917 8.116,21.419 10.946,24.248 16.447,18.746 21.948,24.248z"></path><title>Remove link.</title></g><g  event="link:options"><circle r="11" transform="translate(25)"></circle><path fill="white" transform="scale(.55) translate(29, -16)" d="M31.229,17.736c0.064-0.571,0.104-1.148,0.104-1.736s-0.04-1.166-0.104-1.737l-4.377-1.557c-0.218-0.716-0.504-1.401-0.851-2.05l1.993-4.192c-0.725-0.91-1.549-1.734-2.458-2.459l-4.193,1.994c-0.647-0.347-1.334-0.632-2.049-0.849l-1.558-4.378C17.165,0.708,16.588,0.667,16,0.667s-1.166,0.041-1.737,0.105L12.707,5.15c-0.716,0.217-1.401,0.502-2.05,0.849L6.464,4.005C5.554,4.73,4.73,5.554,4.005,6.464l1.994,4.192c-0.347,0.648-0.632,1.334-0.849,2.05l-4.378,1.557C0.708,14.834,0.667,15.412,0.667,16s0.041,1.165,0.105,1.736l4.378,1.558c0.217,0.715,0.502,1.401,0.849,2.049l-1.994,4.193c0.725,0.909,1.549,1.733,2.459,2.458l4.192-1.993c0.648,0.347,1.334,0.633,2.05,0.851l1.557,4.377c0.571,0.064,1.148,0.104,1.737,0.104c0.588,0,1.165-0.04,1.736-0.104l1.558-4.377c0.715-0.218,1.399-0.504,2.049-0.851l4.193,1.993c0.909-0.725,1.733-1.549,2.458-2.458l-1.993-4.193c0.347-0.647,0.633-1.334,0.851-2.049L31.229,17.736zM16,20.871c-2.69,0-4.872-2.182-4.872-4.871c0-2.69,2.182-4.872,4.872-4.872c2.689,0,4.871,2.182,4.871,4.872C20.871,18.689,18.689,20.871,16,20.871z"></path><title>Link options.</title></g></g></g></g><!--z-index:55--></g><g ></g><g ></g><g ></g></g></svg>