<svg xmlns="http://www.w3.org/2000/svg" xmlns:xlink="http://www.w3.org/1999/xlink" version="1.1" viewBox="0 0 3254 2654" style="background: #ffffff"><defs joint-selector="defs"></defs><g joint-selector="layers"  transform="matrix(1,0,0,1,0,0)"><g ></g><g ><!--z-index:0--><!--z-index:1--><!--z-index:2--><!--z-index:3--><!--z-index:4--><!--z-index:5--><!--z-index:6--><!--z-index:7--><!--z-index:8--><!--z-index:9--><!--z-index:10--><!--z-index:11--><!--z-index:12--><!--z-index:13--><!--z-index:14--><!--z-index:15--><!--z-index:16--><!--z-index:17--><!--z-index:18--><!--z-index:19--><!--z-index:20--><!--z-index:21--><!--z-index:22--><!--z-index:23--><!--z-index:24--><!--z-index:25--><!--z-index:26--><g   id="j_333"  transform="translate(20,2617.6)"><g id="v-5135"><text  id="v-5136" font-size="22px" xml:space="preserve" y="0.8em" font-weight="normal" text-anchor="start" fill="#aaaaaa" pointer-events="none" display="block" font-family="Arial"><tspan dy="0"  display="block">Wednesday, March 11, 2026 at 8:28 PM Moscow Standard Time</tspan></text></g></g><!--z-index:27--><g   id="j_332"  transform="translate(20,2591.2)"><g id="v-5133"><text  id="v-5134" font-size="22px" xml:space="preserve" y="0.8em" font-weight="normal" text-anchor="start" fill="#aaaaaa" pointer-events="none" display="block" font-family="Arial"><tspan dy="0"  display="block">Динамическая диаграмма процесса отправки P2P-сообщения</tspan></text></g></g><!--z-index:28--><g   id="j_331"  transform="translate(20,2548)"><g id="v-5131"><text  id="v-5132" font-size="36px" xml:space="preserve" y="0.8em" font-weight="normal" text-anchor="start" fill="#000000" pointer-events="none" display="block" font-family="Arial"><tspan dy="0"  display="block">[Dynamic] Social network</tspan></text></g></g><!--z-index:29--><g   id="j_334"  transform="translate(1079,2129)" style=""><g  id="v-5140" style="opacity: 1;"><rect  x="0" y="160" width="400" height="240" rx="70" id="v-5142" stroke="#073b6f" stroke-width="2" pointer-events="visiblePainted" fill="#08427b" style="fill: rgb(8, 66, 123); stroke: rgb(7, 59, 111);"></rect><circle  cx="200" cy="88.88888888888889" r="88.88888888888889" id="v-5141" stroke="#073b6f" stroke-width="2" pointer-events="visiblePainted" fill="#08427b" style="fill: rgb(8, 66, 123); stroke: rgb(7, 59, 111);"></circle><line  x1="80" y1="266.6666666666667" x2="80" y2="400" id="v-5148" stroke="#073b6f" stroke-width="2" style="stroke: rgb(7, 59, 111);"></line><line  x1="320" y1="266.6666666666667" x2="320" y2="400" id="v-5149" stroke="#073b6f" stroke-width="2" style="stroke: rgb(7, 59, 111);"></line><text  id="v-5143" font-size="34" xml:space="preserve" y="0.8em" font-weight="bold" text-anchor="middle" pointer-events="visible" font-family="Arial" fill="#ffffff" transform="matrix(1,0,0,1,200,231.5)" style="fill: rgb(255, 255, 255);"><tspan dy="0" >Авторизированный</tspan><tspan dy="1.2em" x="0" >пользователь</tspan></text><text  id="v-5144" font-size="17" xml:space="preserve" y="0.8em" text-anchor="middle" font-family="Arial" fill="#ffffff" transform="matrix(1,0,0,1,200,313.1)" style="fill: rgb(255, 255, 255);"><tspan dy="0" >[Person]</tspan></text><text  id="v-5145" font-size="24" xml:space="preserve" display="none" y="0.8em" text-anchor="middle" font-family="Arial" fill="#ffffff" transform="matrix(1,0,0,1,200,333.5)" style="fill: rgb(255, 255, 255);"><tspan dy="0" style="fill-opacity: 0; stroke-opacity: 0;" >-</tspan></text><g  id="v-5146" font-weight="normal" text-anchor="middle" color="#ffffff" transform="matrix(1,0,0,1,200,368)" display="none" style="fill: rgb(255, 255, 255);"><g ></g><g ></g><g ></g><g ></g></g><image  id="v-5147"></image></g></g><!--z-index:30--><g   id="j_336"  transform="translate(309,309)" style=""><g id="v-5161"><rect  id="v-5162" width="1990" height="1611" rx="0" ry="0" fill="#ffffff" stroke="#1168bd" stroke-width="1" stroke-dasharray="20,20" pointer-events="none"></rect><text  id="v-5163" font-size="24px" xml:space="preserve" y="1572" font-weight="normal" fill="#1168bd" text-anchor="start" pointer-events="visible" font-family="Arial" transform="matrix(1,0,0,1,15,0)"><tspan dy="0" >Social network</tspan></text><text  id="v-5164" font-size="17px" xml:space="preserve" y="1596" font-weight="normal" fill="#1168bd" text-anchor="start" pointer-events="visible" font-family="Arial" transform="matrix(1,0,0,1,15,0)"><tspan dy="0" >[Software System]</tspan></text><image  id="v-5165" pointer-events="visible"></image></g></g><!--z-index:31--><g   id="j_335"  transform="translate(329,1529)" style=""><g  id="v-5153" style="opacity: 1;"><path  d="M 0,30 a 225,30 0,0,0 450 0 a 225,30 0,0,0 -450 0 l 0,240 a 225,30 0,0,0 450 0 l 0,-240" id="v-5154" stroke="#cfcfe1" stroke-width="2" pointer-events="visiblePainted" fill="#e6e6fa" style="fill: rgb(230, 230, 250); stroke: rgb(207, 207, 225);"></path><rect  id="v-5155" stroke-width="0" pointer-events="visiblePainted" fill="none" stroke="none" width="450" height="270" x="0" y="30"></rect><text  id="v-5156" font-size="34" xml:space="preserve" y="0.8em" font-weight="bold" text-anchor="middle" pointer-events="visible" font-family="Arial" fill="#000000" transform="matrix(1,0,0,1,225,125)" style="fill: rgb(0, 0, 0);"><tspan dy="0" >User Database</tspan></text><text  id="v-5157" font-size="17" xml:space="preserve" y="0.8em" text-anchor="middle" font-family="Arial" fill="#000000" transform="matrix(1,0,0,1,225,165.8)" style="fill: rgb(0, 0, 0);"><tspan dy="0" >[Container: PostgreSQL]</tspan></text><text  id="v-5158" font-size="24" xml:space="preserve" y="0.8em" text-anchor="middle" font-family="Arial" fill="#000000" transform="matrix(1,0,0,1,225,196.2)" style="fill: rgb(0, 0, 0);"><tspan dy="0" >Хранит данные пользователей</tspan></text><g  id="v-5159" font-weight="normal" text-anchor="middle" color="#000000" transform="matrix(1,0,0,1,225,268)" display="none" style="fill: rgb(0, 0, 0);"><g ></g><g ></g><g ></g><g ></g></g><image  id="v-5160"></image></g></g><!--z-index:32--><g   id="j_337"  transform="translate(1829,929)" style=""><g  id="v-5169" style="opacity: 1;"><path  d="M 0,30 a 225,30 0,0,0 450 0 a 225,30 0,0,0 -450 0 l 0,240 a 225,30 0,0,0 450 0 l 0,-240" id="v-5170" stroke="#cfcfe1" stroke-width="2" pointer-events="visiblePainted" fill="#e6e6fa" style="fill: rgb(230, 230, 250); stroke: rgb(207, 207, 225);"></path><rect  id="v-5171" stroke-width="0" pointer-events="visiblePainted" fill="none" stroke="none" width="450" height="270" x="0" y="30"></rect><text  id="v-5172" font-size="34" xml:space="preserve" y="0.8em" font-weight="bold" text-anchor="middle" pointer-events="visible" font-family="Arial" fill="#000000" transform="matrix(1,0,0,1,225,110.6)" style="fill: rgb(0, 0, 0);"><tspan dy="0" >Chat Database</tspan></text><text  id="v-5173" font-size="17" xml:space="preserve" y="0.8em" text-anchor="middle" font-family="Arial" fill="#000000" transform="matrix(1,0,0,1,225,151.4)" style="fill: rgb(0, 0, 0);"><tspan dy="0" >[Container: MongoDB]</tspan></text><text  id="v-5174" font-size="24" xml:space="preserve" y="0.8em" text-anchor="middle" font-family="Arial" fill="#000000" transform="matrix(1,0,0,1,225,181.8)" style="fill: rgb(0, 0, 0);"><tspan dy="0" >Хранит историю P2P-сообщений,</tspan><tspan dy="1.2em" x="0" >чаты, статус доставки сообщений</tspan></text><g  id="v-5175" font-weight="normal" text-anchor="middle" color="#000000" transform="matrix(1,0,0,1,225,268)" display="none" style="fill: rgb(0, 0, 0);"><g ></g><g ></g><g ></g><g ></g></g><image  id="v-5176"></image></g></g><!--z-index:33--><g   id="j_338"  transform="translate(1079,329)" style=""><g  id="v-5183" style="opacity: 1;"><rect  id="v-5184" rx="20" ry="20" stroke="#3c7fc0" stroke-width="2" pointer-events="visiblePainted" fill="#438dd5" width="450" height="300" style="fill: rgb(67, 141, 213); stroke: rgb(60, 127, 192);"></rect><text  id="v-5185" font-size="34" xml:space="preserve" y="0.8em" font-weight="bold" text-anchor="middle" pointer-events="visible" font-family="Arial" fill="#ffffff" transform="matrix(1,0,0,1,225,73.7)" style="fill: rgb(255, 255, 255);"><tspan dy="0" >Chat Service</tspan></text><text  id="v-5186" font-size="17" xml:space="preserve" y="0.8em" text-anchor="middle" font-family="Arial" fill="#ffffff" transform="matrix(1,0,0,1,225,114.5)" style="fill: rgb(255, 255, 255);"><tspan dy="0" >[Container: Go, Gorilla WebSocket]</tspan></text><text  id="v-5187" font-size="24" xml:space="preserve" y="0.8em" text-anchor="middle" font-family="Arial" fill="#ffffff" transform="matrix(1,0,0,1,225,144.9)" style="fill: rgb(255, 255, 255);"><tspan dy="0" >Отправка P2P-сообщений,</tspan><tspan dy="1.2em" x="0" >получение списка сообщений,</tspan><tspan dy="1.2em" x="0" >доставка через WebSocket</tspan></text><g  id="v-5188" color="#ffffff" transform="matrix(1,0,0,1,0,268)" display="none" style="fill: rgb(255, 255, 255);"><g ></g><g ></g><g ></g><g ></g></g><image  id="v-5189"></image></g></g><!--z-index:34--><g   id="j_339"  transform="translate(329,929)" style=""><g  id="v-5193" style="opacity: 1;"><rect  id="v-5194" rx="20" ry="20" stroke="#3c7fc0" stroke-width="2" pointer-events="visiblePainted" fill="#438dd5" width="450" height="300" style="fill: rgb(67, 141, 213); stroke: rgb(60, 127, 192);"></rect><text  id="v-5195" font-size="34" xml:space="preserve" y="0.8em" font-weight="bold" text-anchor="middle" pointer-events="visible" font-family="Arial" fill="#ffffff" transform="matrix(1,0,0,1,225,88.1)" style="fill: rgb(255, 255, 255);"><tspan dy="0" >User Service</tspan></text><text  id="v-5196" font-size="17" xml:space="preserve" y="0.8em" text-anchor="middle" font-family="Arial" fill="#ffffff" transform="matrix(1,0,0,1,225,128.9)" style="fill: rgb(255, 255, 255);"><tspan dy="0" >[Container: Spring Boot]</tspan></text><text  id="v-5197" font-size="24" xml:space="preserve" y="0.8em" text-anchor="middle" font-family="Arial" fill="#ffffff" transform="matrix(1,0,0,1,225,159.3)" style="fill: rgb(255, 255, 255);"><tspan dy="0" >Создание пользователя, поиск по</tspan><tspan dy="1.2em" x="0" >маске и логину</tspan></text><g  id="v-5198" color="#ffffff" transform="matrix(1,0,0,1,0,268)" display="none" style="fill: rgb(255, 255, 255);"><g ></g><g ></g><g ></g><g ></g></g><image  id="v-5199"></image></g></g><!--z-index:35--><g   id="j_340"  transform="translate(1079,929)" style=""><g  id="v-5206" style="opacity: 1;"><rect  id="v-5207" rx="20" ry="20" stroke="#3c7fc0" stroke-width="2" pointer-events="visiblePainted" fill="#438dd5" width="450" height="300" style="fill: rgb(67, 141, 213); stroke: rgb(60, 127, 192);"></rect><text  id="v-5208" font-size="34" xml:space="preserve" y="0.8em" font-weight="bold" text-anchor="middle" pointer-events="visible" font-family="Arial" fill="#ffffff" transform="matrix(1,0,0,1,225,88.1)" style="fill: rgb(255, 255, 255);"><tspan dy="0" >API Gateway</tspan></text><text  id="v-5209" font-size="17" xml:space="preserve" y="0.8em" text-anchor="middle" font-family="Arial" fill="#ffffff" transform="matrix(1,0,0,1,225,128.9)" style="fill: rgb(255, 255, 255);"><tspan dy="0" >[Container: Spring Cloud Gateway]</tspan></text><text  id="v-5210" font-size="24" xml:space="preserve" y="0.8em" text-anchor="middle" font-family="Arial" fill="#ffffff" transform="matrix(1,0,0,1,225,159.3)" style="fill: rgb(255, 255, 255);"><tspan dy="0" >Единая точка входа,</tspan><tspan dy="1.2em" x="0" >маршрутизация, аутентификация</tspan></text><g  id="v-5211" color="#ffffff" transform="matrix(1,0,0,1,0,268)" display="none" style="fill: rgb(255, 255, 255);"><g ></g><g ></g><g ></g><g ></g></g><image  id="v-5212"></image></g></g><!--z-index:36--><g   id="j_341"  transform="translate(1079,1529)" style=""><g  id="v-5216" style="opacity: 1;"><rect  id="v-5217" rx="10" ry="10" stroke="#a6bfcc" stroke-width="2" pointer-events="visiblePainted" fill="#a6bfcc" width="450" height="300" style="fill: rgb(166, 191, 204); stroke: rgb(166, 191, 204);"></rect><rect  id="v-5218" rx="10" ry="10" stroke="#a6bfcc" stroke-width="0" pointer-events="visiblePainted" fill="#b8d4e3" width="430" height="250" x="10" y="40" style="fill: rgb(184, 212, 227);"></rect><ellipse  id="v-5225" fill="#b8d4e3" cx="20" cy="20" rx="10" ry="10" style="fill: rgb(184, 212, 227);"></ellipse><ellipse  id="v-5226" fill="#b8d4e3" cx="50" cy="20" rx="10" ry="10" style="fill: rgb(184, 212, 227);"></ellipse><ellipse  id="v-5227" fill="#b8d4e3" cx="80" cy="20" rx="10" ry="10" style="fill: rgb(184, 212, 227);"></ellipse><rect  id="v-5219" rx="10" ry="10" stroke="#444444" stroke-width="0" pointer-events="visiblePainted" fill="#b8d4e3" width="340" height="20" x="100" y="10" style="fill: rgb(184, 212, 227);"></rect><text  id="v-5220" font-size="34" xml:space="preserve" y="0.8em" font-weight="bold" text-anchor="middle" pointer-events="visible" font-family="Arial" fill="#000000" transform="matrix(1,0,0,1,225,117.5)" style="fill: rgb(0, 0, 0);"><tspan dy="0" >Web Application</tspan></text><text  id="v-5221" font-size="17" xml:space="preserve" y="0.8em" text-anchor="middle" font-family="Arial" fill="#000000" transform="matrix(1,0,0,1,225,158.3)" style="fill: rgb(0, 0, 0);"><tspan dy="0" >[Container: React]</tspan></text><text  id="v-5222" font-size="24" xml:space="preserve" y="0.8em" text-anchor="middle" font-family="Arial" fill="#000000" transform="matrix(1,0,0,1,225,188.7)" style="fill: rgb(0, 0, 0);"><tspan dy="0" >Веб-интерфейс для пользователей</tspan></text><g  id="v-5223" font-weight="normal" text-anchor="middle" color="#000000" transform="matrix(1,0,0,1,225,258)" display="none" style="fill: rgb(0, 0, 0);"><g ></g><g ></g><g ></g><g ></g></g><image  id="v-5224"></image></g></g><!--z-index:37--><g   id="j_342"  transform="translate(2579,929)" style=""><g  id="v-5231" style="opacity: 1;"><rect  id="v-5232" rx="20" ry="20" stroke="#0f5eaa" stroke-width="2" pointer-events="visiblePainted" fill="#1168bd" width="450" height="300" style="fill: rgb(17, 104, 189); stroke: rgb(15, 94, 170);"></rect><text  id="v-5233" font-size="34" xml:space="preserve" y="0.8em" font-weight="bold" text-anchor="middle" pointer-events="visible" font-family="Arial" fill="#ffffff" transform="matrix(1,0,0,1,225,88.1)" style="fill: rgb(255, 255, 255);"><tspan dy="0" >Push-сервис</tspan></text><text  id="v-5234" font-size="17" xml:space="preserve" y="0.8em" text-anchor="middle" font-family="Arial" fill="#ffffff" transform="matrix(1,0,0,1,225,128.9)" style="fill: rgb(255, 255, 255);"><tspan dy="0" >[Software System]</tspan></text><text  id="v-5235" font-size="24" xml:space="preserve" y="0.8em" text-anchor="middle" font-family="Arial" fill="#ffffff" transform="matrix(1,0,0,1,225,159.3)" style="fill: rgb(255, 255, 255);"><tspan dy="0" >Отправляет push-уведомления на</tspan><tspan dy="1.2em" x="0" >устройства</tspan></text><g  id="v-5236" color="#ffffff" transform="matrix(1,0,0,1,0,268)" display="none" style="fill: rgb(255, 255, 255);"><g ></g><g ></g><g ></g><g ></g></g><image  id="v-5237"></image></g></g><!--z-index:38--><g   id="j_343" ><path  stroke="#707070" d="M 1334 2148 L 1435 2018 C 1439.2594507964645 2012.509978876787 1440.2594507964645 2006.8433122101203 1438 2001 L 1366 1829" id="v-5254" stroke-width="2" stroke-dasharray="30 30" fill="none"></path><path  fill="black" stroke="black" d="M 0 0 0 0" transform="matrix(0.6147006992254941,-0.7887604518303949,0.7887604518303949,0.6147006992254941,1333.74853515625,2147.88525390625)"></path><path  fill="#707070" stroke="#707070" d="M 20 0 L 0 10 L 20 20 z" id="v-5256" transform="matrix(0.38359324032717806,0.9235021526641375,-0.9235021526641375,0.38359324032717806,1375.5402024046195,1825.1640314216493)"></path><path  d="M 1334 2148 L 1435 2018 C 1439.2594507964645 2012.509978876787 1440.2594507964645 2006.8433122101203 1438 2001 L 1366 1829" id="v-5255" fill="none" style="pointer-events: visiblepainted; cursor: auto;"></path><g ><g id="v-5244"  label-idx="0" cursor="move" transform="matrix(1,0,0,1,1437.2850341796875,1999.2919921875)"><rect joint-selector="rect" id="v-5248" fill="#ffffff" rx="3" ry="3" pointer-events="none" width="194.9407958984375" height="88.13351440429688" transform="matrix(1,0,0,1,-95.5,-44.1)"></rect><text joint-selector="text" id="v-5247" font-size="24px" xml:space="preserve" y="0.8em" fill="#707070" text-anchor="middle" pointer-events="none" font-family="Arial" font-weight="normal" transform="matrix(1,0,0,1,0,-41.5)"><tspan dy="0" >1: Вводит текст и</tspan><tspan dy="1.2em" x="0" >нажимает</tspan><tspan dy="1.2em" x="0" >Отправить</tspan></text></g><g id="v-5245"  label-idx="1" cursor="move" transform="matrix(1,0,0,1,1437.2850341796875,2054.491943359375)"><rect joint-selector="rect" id="v-5250" fill="#ffffff" rx="3" ry="3" pointer-events="none" width="69.05582427978516" height="21.809651374816895" transform="matrix(1,0,0,1,-32.5,-10.9)"></rect><text joint-selector="text" id="v-5249" font-size="17px" xml:space="preserve" y="0.8em" fill="#707070" text-anchor="middle" pointer-events="none" font-family="Arial" font-weight="normal" transform="matrix(1,0,0,1,0,-7.1)"><tspan dy="0" >[HTTPS]</tspan></text></g><g id="v-5246"  label-idx="2" cursor="move" transform="matrix(1,0,0,1,1427.2850341796875,2062.89208984375)"><rect joint-selector="rect" id="v-5252" fill="#ffffff" rx="3" ry="3"  width="0" height="0" transform="matrix(1,0,0,1,0,0)" display="none"></rect><text joint-selector="text" id="v-5251" fill="#000000" font-size="14" text-anchor="middle" pointer-events="none"></text></g></g><g  display="none" style="display: none;"><g  transform="translate(1441.389176194697, 2009.7649683151806)" id="v-5501"><circle  idx="0" r="10"></circle><path  idx="0" d="M16,5.333c-7.732,0-14,4.701-14,10.5c0,1.982,0.741,3.833,2.016,5.414L2,25.667l5.613-1.441c2.339,1.317,5.237,2.107,8.387,2.107c7.732,0,14-4.701,14-10.5C30,10.034,23.732,5.333,16,5.333z" transform="translate(5, -33)"></path><path  idx="0" transform="scale(.8) translate(9.5, -37)" d="M24.778,21.419 19.276,15.917 24.777,10.415 21.949,7.585 16.447,13.087 10.945,7.585 8.117,10.415 13.618,15.917 8.116,21.419 10.946,24.248 16.447,18.746 21.948,24.248z"><title>Remove vertex.</title></path></g></g><g  id="v-5258" display="none"><g  id="v-5242"><path  end="source" d="M 26 0 L 0 13 L 26 26 z"></path></g><g  id="v-5243"><path  end="target" d="M 26 0 L 0 13 L 26 26 z"></path></g></g><g  id="v-5257" display="none"><g  id="v-5241" transform="translate(1358.5407994868224, 2116.412832343694) "><g  event="remove"><circle r="11"></circle><path transform="scale(.8) translate(-16, -16)" d="M24.778,21.419 19.276,15.917 24.777,10.415 21.949,7.585 16.447,13.087 10.945,7.585 8.117,10.415 13.618,15.917 8.116,21.419 10.946,24.248 16.447,18.746 21.948,24.248z"></path><title>Remove link.</title></g><g  event="link:options"><circle r="11" transform="translate(25)"></circle><path fill="white" transform="scale(.55) translate(29, -16)" d="M31.229,17.736c0.064-0.571,0.104-1.148,0.104-1.736s-0.04-1.166-0.104-1.737l-4.377-1.557c-0.218-0.716-0.504-1.401-0.851-2.05l1.993-4.192c-0.725-0.91-1.549-1.734-2.458-2.459l-4.193,1.994c-0.647-0.347-1.334-0.632-2.049-0.849l-1.558-4.378C17.165,0.708,16.588,0.667,16,0.667s-1.166,0.041-1.737,0.105L12.707,5.15c-0.716,0.217-1.401,0.502-2.05,0.849L6.464,4.005C5.554,4.73,4.73,5.554,4.005,6.464l1.994,4.192c-0.347,0.648-0.632,1.334-0.849,2.05l-4.378,1.557C0.708,14.834,0.667,15.412,0.667,16s0.041,1.165,0.105,1.736l4.378,1.558c0.217,0.715,0.502,1.401,0.849,2.049l-1.994,4.193c0.725,0.909,1.549,1.733,2.459,2.458l4.192-1.993c0.648,0.347,1.334,0.633,2.05,0.851l1.557,4.377c0.571,0.064,1.148,0.104,1.737,0.104c0.588,0,1.165-0.04,1.736-0.104l1.558-4.377c0.715-0.218,1.399-0.504,2.049-0.851l4.193,1.993c0.909-0.725,1.733-1.549,2.458-2.458l-1.993-4.193c0.347-0.647,0.633-1.334,0.851-2.049L31.229,17.736zM16,20.871c-2.69,0-4.872-2.182-4.872-4.871c0-2.69,2.182-4.872,4.872-4.872c2.689,0,4.871,2.182,4.871,4.872C20.871,18.689,18.689,20.871,16,20.871z"></path><title>Link options.</title></g></g></g></g><!--z-index:39--><g   id="j_344" ><path  stroke="#707070" d="M 1379 1529 L 1450 1388 C 1452.6666666666665 1382 1452.6666666666665 1376 1450 1370 L 1379 1229" id="v-5274" stroke-width="2" stroke-dasharray="30 30" fill="none"></path><path  fill="black" stroke="black" d="M 0 0 0 0" transform="matrix(0.4472137875035034,-0.8944270949981173,0.8944270949981173,0.4472137875035034,1379,1529)"></path><path  fill="#707070" stroke="#707070" d="M 20 0 L 0 10 L 20 20 z" id="v-5276" transform="matrix(0.4472136088532365,0.8944271843232765,-0.8944271843232765,0.4472136088532365,1387.9443037234505,1224.5278059354223)"></path><path  d="M 1379 1529 L 1450 1388 C 1452.6666666666665 1382 1452.6666666666665 1376 1450 1370 L 1379 1229" id="v-5275" fill="none" style="pointer-events: visiblepainted; cursor: auto;"></path><g ><g id="v-5265"  label-idx="0" cursor="move" transform="matrix(1,0,0,1,1452,1379)"><rect joint-selector="rect" id="v-5269" fill="#ffffff" rx="3" ry="3" pointer-events="none" width="210.7240447998047" height="116.93351745605469" transform="matrix(1,0,0,1,-104.8,-58.5)"></rect><text joint-selector="text" id="v-5268" font-size="24px" xml:space="preserve" y="0.8em" fill="#707070" text-anchor="middle" pointer-events="none" font-family="Arial" font-weight="normal" transform="matrix(1,0,0,1,0,-55.9)"><tspan dy="0" >2: POST /api/chats</tspan><tspan dy="1.2em" x="0" >/messages</tspan><tspan dy="1.2em" x="0" >(получатель,</tspan><tspan dy="1.2em" x="0" >текст)</tspan></text></g><g id="v-5266"  label-idx="1" cursor="move" transform="matrix(1,0,0,1,1452,1448.5999755859375)"><rect joint-selector="rect" id="v-5271" fill="#ffffff" rx="3" ry="3" pointer-events="none" width="119.02313995361328" height="21.809651374816895" transform="matrix(1,0,0,1,-57.5,-10.9)"></rect><text joint-selector="text" id="v-5270" font-size="17px" xml:space="preserve" y="0.8em" fill="#707070" text-anchor="middle" pointer-events="none" font-family="Arial" font-weight="normal" transform="matrix(1,0,0,1,0,-7.1)"><tspan dy="0" >[HTTPS/REST]</tspan></text></g><g id="v-5267"  label-idx="2" cursor="move" transform="matrix(1,0,0,1,1442,1457)"><rect joint-selector="rect" id="v-5273" fill="#ffffff" rx="3" ry="3"  width="0" height="0" transform="matrix(1,0,0,1,0,0)" display="none"></rect><text joint-selector="text" id="v-5272" fill="#000000" font-size="14" text-anchor="middle" pointer-events="none"></text></g></g><g  display="none" style="display: none;"><g  transform="translate(1454, 1379)" id="v-5505"><circle  idx="0" r="10"></circle><path  idx="0" d="M16,5.333c-7.732,0-14,4.701-14,10.5c0,1.982,0.741,3.833,2.016,5.414L2,25.667l5.613-1.441c2.339,1.317,5.237,2.107,8.387,2.107c7.732,0,14-4.701,14-10.5C30,10.034,23.732,5.333,16,5.333z" transform="translate(5, -33)"></path><path  idx="0" transform="scale(.8) translate(9.5, -37)" d="M24.778,21.419 19.276,15.917 24.777,10.415 21.949,7.585 16.447,13.087 10.945,7.585 8.117,10.415 13.618,15.917 8.116,21.419 10.946,24.248 16.447,18.746 21.948,24.248z"><title>Remove vertex.</title></path></g></g><g  id="v-5278" display="none"><g  id="v-5263"><path  end="source" d="M 26 0 L 0 13 L 26 26 z"></path></g><g  id="v-5264"><path  end="target" d="M 26 0 L 0 13 L 26 26 z"></path></g></g><g  id="v-5277" display="none"><g  id="v-5262" transform="translate(1396.989823158115, 1493.2737314747294) "><g  event="remove"><circle r="11"></circle><path transform="scale(.8) translate(-16, -16)" d="M24.778,21.419 19.276,15.917 24.777,10.415 21.949,7.585 16.447,13.087 10.945,7.585 8.117,10.415 13.618,15.917 8.116,21.419 10.946,24.248 16.447,18.746 21.948,24.248z"></path><title>Remove link.</title></g><g  event="link:options"><circle r="11" transform="translate(25)"></circle><path fill="white" transform="scale(.55) translate(29, -16)" d="M31.229,17.736c0.064-0.571,0.104-1.148,0.104-1.736s-0.04-1.166-0.104-1.737l-4.377-1.557c-0.218-0.716-0.504-1.401-0.851-2.05l1.993-4.192c-0.725-0.91-1.549-1.734-2.458-2.459l-4.193,1.994c-0.647-0.347-1.334-0.632-2.049-0.849l-1.558-4.378C17.165,0.708,16.588,0.667,16,0.667s-1.166,0.041-1.737,0.105L12.707,5.15c-0.716,0.217-1.401,0.502-2.05,0.849L6.464,4.005C5.554,4.73,4.73,5.554,4.005,6.464l1.994,4.192c-0.347,0.648-0.632,1.334-0.849,2.05l-4.378,1.557C0.708,14.834,0.667,15.412,0.667,16s0.041,1.165,0.105,1.736l4.378,1.558c0.217,0.715,0.502,1.401,0.849,2.049l-1.994,4.193c0.725,0.909,1.549,1.733,2.459,2.458l4.192-1.993c0.648,0.347,1.334,0.633,2.05,0.851l1.557,4.377c0.571,0.064,1.148,0.104,1.737,0.104c0.588,0,1.165-0.04,1.736-0.104l1.558-4.377c0.715-0.218,1.399-0.504,2.049-0.851l4.193,1.993c0.909-0.725,1.733-1.549,2.458-2.458l-1.993-4.193c0.347-0.647,0.633-1.334,0.851-2.049L31.229,17.736zM16,20.871c-2.69,0-4.872-2.182-4.872-4.871c0-2.69,2.182-4.872,4.872-4.872c2.689,0,4.871,2.182,4.871,4.872C20.871,18.689,18.689,20.871,16,20.871z"></path><title>Link options.</title></g></g></g></g><!--z-index:40--><g   id="j_345" ><path  stroke="#707070" d="M 1379 929 L 1450 788 C 1452.6666666666665 781.9999999999999 1452.6666666666665 775.9999999999999 1450 770 L 1379 629" id="v-5294" stroke-width="2" stroke-dasharray="30 30" fill="none"></path><path  fill="black" stroke="black" d="M 0 0 0 0" transform="matrix(0.4472137875035034,-0.8944270949981173,0.8944270949981173,0.4472137875035034,1379,929)"></path><path  fill="#707070" stroke="#707070" d="M 20 0 L 0 10 L 20 20 z" id="v-5296" transform="matrix(0.4472136088532365,0.8944271843232765,-0.8944271843232765,0.4472136088532365,1387.9443037234505,624.5278669705787)"></path><path  d="M 1379 929 L 1450 788 C 1452.6666666666665 781.9999999999999 1452.6666666666665 775.9999999999999 1450 770 L 1379 629" id="v-5295" fill="none" style="pointer-events: visiblepainted; cursor: auto;"></path><g ><g id="v-5285"  label-idx="0" cursor="move" transform="matrix(1,0,0,1,1452,779)"><rect joint-selector="rect" id="v-5289" fill="#ffffff" rx="3" ry="3" pointer-events="none" width="199.24415588378906" height="88.13351440429688" transform="matrix(1,0,0,1,-99.8,-44.1)"></rect><text joint-selector="text" id="v-5288" font-size="24px" xml:space="preserve" y="0.8em" fill="#707070" text-anchor="middle" pointer-events="none" font-family="Arial" font-weight="normal" transform="matrix(1,0,0,1,0,-41.5)"><tspan dy="0" >3: POST</tspan><tspan dy="1.2em" x="0" >/messages (те же</tspan><tspan dy="1.2em" x="0" >данные)</tspan></text></g><g id="v-5286"  label-idx="1" cursor="move" transform="matrix(1,0,0,1,1452,834.2000122070312)"><rect joint-selector="rect" id="v-5291" fill="#ffffff" rx="3" ry="3" pointer-events="none" width="119.02313995361328" height="21.809651374816895" transform="matrix(1,0,0,1,-57.5,-10.9)"></rect><text joint-selector="text" id="v-5290" font-size="17px" xml:space="preserve" y="0.8em" fill="#707070" text-anchor="middle" pointer-events="none" font-family="Arial" font-weight="normal" transform="matrix(1,0,0,1,0,-7.1)"><tspan dy="0" >[HTTPS/REST]</tspan></text></g><g id="v-5287"  label-idx="2" cursor="move" transform="matrix(1,0,0,1,1442,842.5999755859375)"><rect joint-selector="rect" id="v-5293" fill="#ffffff" rx="3" ry="3"  width="0" height="0" transform="matrix(1,0,0,1,0,0)" display="none"></rect><text joint-selector="text" id="v-5292" fill="#000000" font-size="14" text-anchor="middle" pointer-events="none"></text></g></g><g  display="none" style="display: none;"><g  transform="translate(1454, 779)" id="v-5507"><circle  idx="0" r="10"></circle><path  idx="0" d="M16,5.333c-7.732,0-14,4.701-14,10.5c0,1.982,0.741,3.833,2.016,5.414L2,25.667l5.613-1.441c2.339,1.317,5.237,2.107,8.387,2.107c7.732,0,14-4.701,14-10.5C30,10.034,23.732,5.333,16,5.333z" transform="translate(5, -33)"></path><path  idx="0" transform="scale(.8) translate(9.5, -37)" d="M24.778,21.419 19.276,15.917 24.777,10.415 21.949,7.585 16.447,13.087 10.945,7.585 8.117,10.415 13.618,15.917 8.116,21.419 10.946,24.248 16.447,18.746 21.948,24.248z"><title>Remove vertex.</title></path></g></g><g  id="v-5298" display="none"><g  id="v-5283"><path  end="source" d="M 26 0 L 0 13 L 26 26 z"></path></g><g  id="v-5284"><path  end="target" d="M 26 0 L 0 13 L 26 26 z"></path></g></g><g  id="v-5297" display="none"><g  id="v-5282" transform="translate(1396.989823158115, 893.2737314747293) "><g  event="remove"><circle r="11"></circle><path transform="scale(.8) translate(-16, -16)" d="M24.778,21.419 19.276,15.917 24.777,10.415 21.949,7.585 16.447,13.087 10.945,7.585 8.117,10.415 13.618,15.917 8.116,21.419 10.946,24.248 16.447,18.746 21.948,24.248z"></path><title>Remove link.</title></g><g  event="link:options"><circle r="11" transform="translate(25)"></circle><path fill="white" transform="scale(.55) translate(29, -16)" d="M31.229,17.736c0.064-0.571,0.104-1.148,0.104-1.736s-0.04-1.166-0.104-1.737l-4.377-1.557c-0.218-0.716-0.504-1.401-0.851-2.05l1.993-4.192c-0.725-0.91-1.549-1.734-2.458-2.459l-4.193,1.994c-0.647-0.347-1.334-0.632-2.049-0.849l-1.558-4.378C17.165,0.708,16.588,0.667,16,0.667s-1.166,0.041-1.737,0.105L12.707,5.15c-0.716,0.217-1.401,0.502-2.05,0.849L6.464,4.005C5.554,4.73,4.73,5.554,4.005,6.464l1.994,4.192c-0.347,0.648-0.632,1.334-0.849,2.05l-4.378,1.557C0.708,14.834,0.667,15.412,0.667,16s0.041,1.165,0.105,1.736l4.378,1.558c0.217,0.715,0.502,1.401,0.849,2.049l-1.994,4.193c0.725,0.909,1.549,1.733,2.459,2.458l4.192-1.993c0.648,0.347,1.334,0.633,2.05,0.851l1.557,4.377c0.571,0.064,1.148,0.104,1.737,0.104c0.588,0,1.165-0.04,1.736-0.104l1.558-4.377c0.715-0.218,1.399-0.504,2.049-0.851l4.193,1.993c0.909-0.725,1.733-1.549,2.458-2.458l-1.993-4.193c0.347-0.647,0.633-1.334,0.851-2.049L31.229,17.736zM16,20.871c-2.69,0-4.872-2.182-4.872-4.871c0-2.69,2.182-4.872,4.872-4.872c2.689,0,4.871,2.182,4.871,4.872C20.871,18.689,18.689,20.871,16,20.871z"></path><title>Link options.</title></g></g></g></g><!--z-index:41--><g   id="j_346" ><path  stroke="#707070" d="M 1079 567 L 845 658 C 838.5304952445575 660.5797857223636 833.5304952445575 664.5797857223636 830 670 L 655 929" id="v-5311" stroke-width="2" stroke-dasharray="30 30" fill="none"></path><path  fill="black" stroke="black" d="M 0 0 0 0" transform="matrix(-0.9316041157754884,0.36347458160120427,-0.36347458160120427,-0.9316041157754884,1079,566.7860107421875)"></path><path  fill="#707070" stroke="#707070" d="M 20 0 L 0 10 L 20 20 z" id="v-5313" transform="matrix(0.5591081186995676,-0.8290947542978608,0.8290947542978608,0.5591081186995676,646.8629663872132,923.4089117661392)"></path><path  d="M 1079 567 L 845 658 C 838.5304952445575 660.5797857223636 833.5304952445575 664.5797857223636 830 670 L 655 929" id="v-5312" fill="none" style="pointer-events: visiblepainted; cursor: auto;"></path><g ><g id="v-5305"  label-idx="0" cursor="move" transform="matrix(1,0,0,1,818.2467041015625,687.3948974609375)"><rect joint-selector="rect" id="v-5308" fill="#ffffff" rx="3" ry="3" pointer-events="none" width="189.80999755859375" height="88.13351440429688" transform="matrix(1,0,0,1,-92.9,-44.1)"></rect><text joint-selector="text" id="v-5307" font-size="24px" xml:space="preserve" y="0.8em" fill="#707070" text-anchor="middle" pointer-events="none" font-family="Arial" font-weight="normal" transform="matrix(1,0,0,1,0,-41.5)"><tspan dy="0" >4: Проверяет</tspan><tspan dy="1.2em" x="0" >существование</tspan><tspan dy="1.2em" x="0" >получателя по id</tspan></text></g><g id="v-5306"  label-idx="1" cursor="move" transform="matrix(1,0,0,1,808.2467041015625,742.5949096679688)"><rect joint-selector="rect" id="v-5310" fill="#ffffff" rx="3" ry="3"  width="0" height="0" transform="matrix(1,0,0,1,0,0)" display="none"></rect><text joint-selector="text" id="v-5309" fill="#000000" font-size="14" text-anchor="middle" pointer-events="none"></text></g></g><g  display="none" style="display: none;"><g  transform="translate(835.2957428668363, 661.8696785835455)" id="v-5509"><circle  idx="0" r="10"></circle><path  idx="0" d="M16,5.333c-7.732,0-14,4.701-14,10.5c0,1.982,0.741,3.833,2.016,5.414L2,25.667l5.613-1.441c2.339,1.317,5.237,2.107,8.387,2.107c7.732,0,14-4.701,14-10.5C30,10.034,23.732,5.333,16,5.333z" transform="translate(5, -33)"></path><path  idx="0" transform="scale(.8) translate(9.5, -37)" d="M24.778,21.419 19.276,15.917 24.777,10.415 21.949,7.585 16.447,13.087 10.945,7.585 8.117,10.415 13.618,15.917 8.116,21.419 10.946,24.248 16.447,18.746 21.948,24.248z"><title>Remove vertex.</title></path></g></g><g  id="v-5315" display="none"><g  id="v-5303"><path  end="source" d="M 26 0 L 0 13 L 26 26 z"></path></g><g  id="v-5304"><path  end="target" d="M 26 0 L 0 13 L 26 26 z"></path></g></g><g  id="v-5314" display="none"><g  id="v-5302" transform="translate(1041.7198131383482, 581.497850446198) "><g  event="remove"><circle r="11"></circle><path transform="scale(.8) translate(-16, -16)" d="M24.778,21.419 19.276,15.917 24.777,10.415 21.949,7.585 16.447,13.087 10.945,7.585 8.117,10.415 13.618,15.917 8.116,21.419 10.946,24.248 16.447,18.746 21.948,24.248z"></path><title>Remove link.</title></g><g  event="link:options"><circle r="11" transform="translate(25)"></circle><path fill="white" transform="scale(.55) translate(29, -16)" d="M31.229,17.736c0.064-0.571,0.104-1.148,0.104-1.736s-0.04-1.166-0.104-1.737l-4.377-1.557c-0.218-0.716-0.504-1.401-0.851-2.05l1.993-4.192c-0.725-0.91-1.549-1.734-2.458-2.459l-4.193,1.994c-0.647-0.347-1.334-0.632-2.049-0.849l-1.558-4.378C17.165,0.708,16.588,0.667,16,0.667s-1.166,0.041-1.737,0.105L12.707,5.15c-0.716,0.217-1.401,0.502-2.05,0.849L6.464,4.005C5.554,4.73,4.73,5.554,4.005,6.464l1.994,4.192c-0.347,0.648-0.632,1.334-0.849,2.05l-4.378,1.557C0.708,14.834,0.667,15.412,0.667,16s0.041,1.165,0.105,1.736l4.378,1.558c0.217,0.715,0.502,1.401,0.849,2.049l-1.994,4.193c0.725,0.909,1.549,1.733,2.459,2.458l4.192-1.993c0.648,0.347,1.334,0.633,2.05,0.851l1.557,4.377c0.571,0.064,1.148,0.104,1.737,0.104c0.588,0,1.165-0.04,1.736-0.104l1.558-4.377c0.715-0.218,1.399-0.504,2.049-0.851l4.193,1.993c0.909-0.725,1.733-1.549,2.458-2.458l-1.993-4.193c0.347-0.647,0.633-1.334,0.851-2.049L31.229,17.736zM16,20.871c-2.69,0-4.872-2.182-4.872-4.871c0-2.69,2.182-4.872,4.872-4.872c2.689,0,4.871,2.182,4.871,4.872C20.871,18.689,18.689,20.871,16,20.871z"></path><title>Link options.</title></g></g></g></g><!--z-index:42--><g   id="j_347" ><path  stroke="#707070" d="M 479 1229 L 408 1370 C 405.3333333333333 1376 405.3333333333333 1382 408 1388 L 479 1529" id="v-5331" stroke-width="2" stroke-dasharray="30 30" fill="none"></path><path  fill="black" stroke="black" d="M 0 0 0 0" transform="matrix(-0.4472135493031434,0.8944272140983217,-0.8944272140983217,-0.4472135493031434,479,1229)"></path><path  fill="#707070" stroke="#707070" d="M 20 0 L 0 10 L 20 20 z" id="v-5333" transform="matrix(-0.4472135493031436,-0.8944272140983216,0.8944272140983216,-0.4472135493031436,470.0557259008763,1533.472193766827)"></path><path  d="M 479 1229 L 408 1370 C 405.3333333333333 1376 405.3333333333333 1382 408 1388 L 479 1529" id="v-5332" fill="none" style="pointer-events: visiblepainted; cursor: auto;"></path><g ><g id="v-5322"  label-idx="0" cursor="move" transform="matrix(1,0,0,1,406,1379)"><rect joint-selector="rect" id="v-5326" fill="#ffffff" rx="3" ry="3" pointer-events="none" width="189.025146484375" height="83.77157592773438" transform="matrix(1,0,0,1,-92.5,-41.9)"></rect><text joint-selector="text" id="v-5325" font-size="24px" xml:space="preserve" y="0.8em" fill="#707070" text-anchor="middle" pointer-events="none" font-family="Arial" font-weight="normal" transform="matrix(1,0,0,1,0,-39.3)"><tspan dy="0" >5: Поиск</tspan><tspan dy="1.2em" x="0" >пользователя по</tspan><tspan dy="1.2em" x="0" >id</tspan></text></g><g id="v-5323"  label-idx="1" cursor="move" transform="matrix(1,0,0,1,406,1434.199951171875)"><rect joint-selector="rect" id="v-5328" fill="#ffffff" rx="3" ry="3" pointer-events="none" width="57.74665832519531" height="21.809651374816895" transform="matrix(1,0,0,1,-26.9,-10.9)"></rect><text joint-selector="text" id="v-5327" font-size="17px" xml:space="preserve" y="0.8em" fill="#707070" text-anchor="middle" pointer-events="none" font-family="Arial" font-weight="normal" transform="matrix(1,0,0,1,0,-7.1)"><tspan dy="0" >[JDBC]</tspan></text></g><g id="v-5324"  label-idx="2" cursor="move" transform="matrix(1,0,0,1,396,1442.5999755859375)"><rect joint-selector="rect" id="v-5330" fill="#ffffff" rx="3" ry="3"  width="0" height="0" transform="matrix(1,0,0,1,0,0)" display="none"></rect><text joint-selector="text" id="v-5329" fill="#000000" font-size="14" text-anchor="middle" pointer-events="none"></text></g></g><g  display="none" style="display: none;"><g  transform="translate(404, 1379)" id="v-5511"><circle  idx="0" r="10"></circle><path  idx="0" d="M16,5.333c-7.732,0-14,4.701-14,10.5c0,1.982,0.741,3.833,2.016,5.414L2,25.667l5.613-1.441c2.339,1.317,5.237,2.107,8.387,2.107c7.732,0,14-4.701,14-10.5C30,10.034,23.732,5.333,16,5.333z" transform="translate(5, -33)"></path><path  idx="0" transform="scale(.8) translate(9.5, -37)" d="M24.778,21.419 19.276,15.917 24.777,10.415 21.949,7.585 16.447,13.087 10.945,7.585 8.117,10.415 13.618,15.917 8.116,21.419 10.946,24.248 16.447,18.746 21.948,24.248z"><title>Remove vertex.</title></path></g></g><g  id="v-5335" display="none"><g  id="v-5320"><path  end="source" d="M 26 0 L 0 13 L 26 26 z"></path></g><g  id="v-5321"><path  end="target" d="M 26 0 L 0 13 L 26 26 z"></path></g></g><g  id="v-5334" display="none"><g  id="v-5319" transform="translate(461.010176841885, 1264.7262685252708) "><g  event="remove"><circle r="11"></circle><path transform="scale(.8) translate(-16, -16)" d="M24.778,21.419 19.276,15.917 24.777,10.415 21.949,7.585 16.447,13.087 10.945,7.585 8.117,10.415 13.618,15.917 8.116,21.419 10.946,24.248 16.447,18.746 21.948,24.248z"></path><title>Remove link.</title></g><g  event="link:options"><circle r="11" transform="translate(25)"></circle><path fill="white" transform="scale(.55) translate(29, -16)" d="M31.229,17.736c0.064-0.571,0.104-1.148,0.104-1.736s-0.04-1.166-0.104-1.737l-4.377-1.557c-0.218-0.716-0.504-1.401-0.851-2.05l1.993-4.192c-0.725-0.91-1.549-1.734-2.458-2.459l-4.193,1.994c-0.647-0.347-1.334-0.632-2.049-0.849l-1.558-4.378C17.165,0.708,16.588,0.667,16,0.667s-1.166,0.041-1.737,0.105L12.707,5.15c-0.716,0.217-1.401,0.502-2.05,0.849L6.464,4.005C5.554,4.73,4.73,5.554,4.005,6.464l1.994,4.192c-0.347,0.648-0.632,1.334-0.849,2.05l-4.378,1.557C0.708,14.834,0.667,15.412,0.667,16s0.041,1.165,0.105,1.736l4.378,1.558c0.217,0.715,0.502,1.401,0.849,2.049l-1.994,4.193c0.725,0.909,1.549,1.733,2.459,2.458l4.192-1.993c0.648,0.347,1.334,0.633,2.05,0.851l1.557,4.377c0.571,0.064,1.148,0.104,1.737,0.104c0.588,0,1.165-0.04,1.736-0.104l1.558-4.377c0.715-0.218,1.399-0.504,2.049-0.851l4.193,1.993c0.909-0.725,1.733-1.549,2.458-2.458l-1.993-4.193c0.347-0.647,0.633-1.334,0.851-2.049L31.229,17.736zM16,20.871c-2.69,0-4.872-2.182-4.872-4.871c0-2.69,2.182-4.872,4.872-4.872c2.689,0,4.871,2.182,4.871,4.872C20.871,18.689,18.689,20.871,16,20.871z"></path><title>Link options.</title></g></g></g></g><!--z-index:43--><g   id="j_348" ><path  stroke="#707070" d="M 629 1529 L 700 1388 C 702.6666666666666 1382 702.6666666666666 1376 700 1370 L 629 1229" id="v-5351" stroke-width="2" stroke-dasharray="30 30" fill="none"></path><path  fill="black" stroke="black" d="M 0 0 0 0" transform="matrix(0.4472137875035034,-0.8944270949981173,0.8944270949981173,0.4472137875035034,629,1529)"></path><path  fill="#707070" stroke="#707070" d="M 20 0 L 0 10 L 20 20 z" id="v-5353" transform="matrix(0.4472136088532365,0.8944271843232765,-0.8944271843232765,0.4472136088532365,637.9442426882941,1224.5278059354223)"></path><path  d="M 629 1529 L 700 1388 C 702.6666666666666 1382 702.6666666666666 1376 700 1370 L 629 1229" id="v-5352" fill="none" style="pointer-events: visiblepainted; cursor: auto;"></path><g ><g id="v-5342"  label-idx="0" cursor="move" transform="matrix(1,0,0,1,702,1379)"><rect joint-selector="rect" id="v-5346" fill="#ffffff" rx="3" ry="3" pointer-events="none" width="169.2516326904297" height="83.77157592773438" transform="matrix(1,0,0,1,-85.8,-41.9)"></rect><text joint-selector="text" id="v-5345" font-size="24px" xml:space="preserve" y="0.8em" fill="#707070" text-anchor="middle" pointer-events="none" font-family="Arial" font-weight="normal" transform="matrix(1,0,0,1,0,-39.3)"><tspan dy="0" >6: Возвращает</tspan><tspan dy="1.2em" x="0" >данные</tspan><tspan dy="1.2em" x="0" >пользователя</tspan></text></g><g id="v-5343"  label-idx="1" cursor="move" transform="matrix(1,0,0,1,702,1434.199951171875)"><rect joint-selector="rect" id="v-5348" fill="#ffffff" rx="3" ry="3" pointer-events="none" width="57.74665832519531" height="21.809651374816895" transform="matrix(1,0,0,1,-26.9,-10.9)"></rect><text joint-selector="text" id="v-5347" font-size="17px" xml:space="preserve" y="0.8em" fill="#707070" text-anchor="middle" pointer-events="none" font-family="Arial" font-weight="normal" transform="matrix(1,0,0,1,0,-7.1)"><tspan dy="0" >[JDBC]</tspan></text></g><g id="v-5344"  label-idx="2" cursor="move" transform="matrix(1,0,0,1,692,1442.5999755859375)"><rect joint-selector="rect" id="v-5350" fill="#ffffff" rx="3" ry="3"  width="0" height="0" transform="matrix(1,0,0,1,0,0)" display="none"></rect><text joint-selector="text" id="v-5349" fill="#000000" font-size="14" text-anchor="middle" pointer-events="none"></text></g></g><g  display="none" style="display: none;"><g  transform="translate(704, 1379)" id="v-5512"><circle  idx="0" r="10"></circle><path  idx="0" d="M16,5.333c-7.732,0-14,4.701-14,10.5c0,1.982,0.741,3.833,2.016,5.414L2,25.667l5.613-1.441c2.339,1.317,5.237,2.107,8.387,2.107c7.732,0,14-4.701,14-10.5C30,10.034,23.732,5.333,16,5.333z" transform="translate(5, -33)"></path><path  idx="0" transform="scale(.8) translate(9.5, -37)" d="M24.778,21.419 19.276,15.917 24.777,10.415 21.949,7.585 16.447,13.087 10.945,7.585 8.117,10.415 13.618,15.917 8.116,21.419 10.946,24.248 16.447,18.746 21.948,24.248z"><title>Remove vertex.</title></path></g></g><g  id="v-5355" display="none"><g  id="v-5340"><path  end="source" d="M 26 0 L 0 13 L 26 26 z"></path></g><g  id="v-5341"><path  end="target" d="M 26 0 L 0 13 L 26 26 z"></path></g></g><g  id="v-5354" display="none"><g  id="v-5339" transform="translate(646.9898231581151, 1493.2737314747294) "><g  event="remove"><circle r="11"></circle><path transform="scale(.8) translate(-16, -16)" d="M24.778,21.419 19.276,15.917 24.777,10.415 21.949,7.585 16.447,13.087 10.945,7.585 8.117,10.415 13.618,15.917 8.116,21.419 10.946,24.248 16.447,18.746 21.948,24.248z"></path><title>Remove link.</title></g><g  event="link:options"><circle r="11" transform="translate(25)"></circle><path fill="white" transform="scale(.55) translate(29, -16)" d="M31.229,17.736c0.064-0.571,0.104-1.148,0.104-1.736s-0.04-1.166-0.104-1.737l-4.377-1.557c-0.218-0.716-0.504-1.401-0.851-2.05l1.993-4.192c-0.725-0.91-1.549-1.734-2.458-2.459l-4.193,1.994c-0.647-0.347-1.334-0.632-2.049-0.849l-1.558-4.378C17.165,0.708,16.588,0.667,16,0.667s-1.166,0.041-1.737,0.105L12.707,5.15c-0.716,0.217-1.401,0.502-2.05,0.849L6.464,4.005C5.554,4.73,4.73,5.554,4.005,6.464l1.994,4.192c-0.347,0.648-0.632,1.334-0.849,2.05l-4.378,1.557C0.708,14.834,0.667,15.412,0.667,16s0.041,1.165,0.105,1.736l4.378,1.558c0.217,0.715,0.502,1.401,0.849,2.049l-1.994,4.193c0.725,0.909,1.549,1.733,2.459,2.458l4.192-1.993c0.648,0.347,1.334,0.633,2.05,0.851l1.557,4.377c0.571,0.064,1.148,0.104,1.737,0.104c0.588,0,1.165-0.04,1.736-0.104l1.558-4.377c0.715-0.218,1.399-0.504,2.049-0.851l4.193,1.993c0.909-0.725,1.733-1.549,2.458-2.458l-1.993-4.193c0.347-0.647,0.633-1.334,0.851-2.049L31.229,17.736zM16,20.871c-2.69,0-4.872-2.182-4.872-4.871c0-2.69,2.182-4.872,4.872-4.872c2.689,0,4.871,2.182,4.871,4.872C20.871,18.689,18.689,20.871,16,20.871z"></path><title>Link options.</title></g></g></g></g><!--z-index:44--><g   id="j_349" ><path  stroke="#707070" d="M 779 991 L 1013 900 C 1019.4695047554422 897.4202142776363 1024.4695047554424 893.4202142776363 1028 888 L 1203 629" id="v-5368" stroke-width="2" stroke-dasharray="30 30" fill="none"></path><path  fill="black" stroke="black" d="M 0 0 0 0" transform="matrix(0.9316040189763191,-0.36347482970237444,0.36347482970237444,0.9316040189763191,779,991.2139892578125)"></path><path  fill="#707070" stroke="#707070" d="M 20 0 L 0 10 L 20 20 z" id="v-5370" transform="matrix(-0.5591078978982588,0.8290949031973301,-0.8290949031973301,-0.5591078978982588,1211.1370328937685,634.591084536853)"></path><path  d="M 779 991 L 1013 900 C 1019.4695047554422 897.4202142776363 1024.4695047554424 893.4202142776363 1028 888 L 1203 629" id="v-5369" fill="none" style="pointer-events: visiblepainted; cursor: auto;"></path><g ><g id="v-5362"  label-idx="0" cursor="move" transform="matrix(1,0,0,1,1039.7532958984375,870.6051025390625)"><rect joint-selector="rect" id="v-5365" fill="#ffffff" rx="3" ry="3" pointer-events="none" width="162.75027465820312" height="54.97158241271973" transform="matrix(1,0,0,1,-78.9,-27.5)"></rect><text joint-selector="text" id="v-5364" font-size="24px" xml:space="preserve" y="0.8em" fill="#707070" text-anchor="middle" pointer-events="none" font-family="Arial" font-weight="normal" transform="matrix(1,0,0,1,0,-24.9)"><tspan dy="0" >7: Получатель</tspan><tspan dy="1.2em" x="0" >найден</tspan></text></g><g id="v-5363"  label-idx="1" cursor="move" transform="matrix(1,0,0,1,1029.7532958984375,911.4050903320312)"><rect joint-selector="rect" id="v-5367" fill="#ffffff" rx="3" ry="3"  width="0" height="0" transform="matrix(1,0,0,1,0,0)" display="none"></rect><text joint-selector="text" id="v-5366" fill="#000000" font-size="14" text-anchor="middle" pointer-events="none"></text></g></g><g  display="none" style="display: none;"><g  transform="translate(1022.7042571331635, 896.1303214164545)" id="v-5510"><circle  idx="0" r="10"></circle><path  idx="0" d="M16,5.333c-7.732,0-14,4.701-14,10.5c0,1.982,0.741,3.833,2.016,5.414L2,25.667l5.613-1.441c2.339,1.317,5.237,2.107,8.387,2.107c7.732,0,14-4.701,14-10.5C30,10.034,23.732,5.333,16,5.333z" transform="translate(5, -33)"></path><path  idx="0" transform="scale(.8) translate(9.5, -37)" d="M24.778,21.419 19.276,15.917 24.777,10.415 21.949,7.585 16.447,13.087 10.945,7.585 8.117,10.415 13.618,15.917 8.116,21.419 10.946,24.248 16.447,18.746 21.948,24.248z"><title>Remove vertex.</title></path></g></g><g  id="v-5372" display="none"><g  id="v-5360"><path  end="source" d="M 26 0 L 0 13 L 26 26 z"></path></g><g  id="v-5361"><path  end="target" d="M 26 0 L 0 13 L 26 26 z"></path></g></g><g  id="v-5371" display="none"><g  id="v-5359" transform="translate(816.2801868616518, 976.502149553802) "><g  event="remove"><circle r="11"></circle><path transform="scale(.8) translate(-16, -16)" d="M24.778,21.419 19.276,15.917 24.777,10.415 21.949,7.585 16.447,13.087 10.945,7.585 8.117,10.415 13.618,15.917 8.116,21.419 10.946,24.248 16.447,18.746 21.948,24.248z"></path><title>Remove link.</title></g><g  event="link:options"><circle r="11" transform="translate(25)"></circle><path fill="white" transform="scale(.55) translate(29, -16)" d="M31.229,17.736c0.064-0.571,0.104-1.148,0.104-1.736s-0.04-1.166-0.104-1.737l-4.377-1.557c-0.218-0.716-0.504-1.401-0.851-2.05l1.993-4.192c-0.725-0.91-1.549-1.734-2.458-2.459l-4.193,1.994c-0.647-0.347-1.334-0.632-2.049-0.849l-1.558-4.378C17.165,0.708,16.588,0.667,16,0.667s-1.166,0.041-1.737,0.105L12.707,5.15c-0.716,0.217-1.401,0.502-2.05,0.849L6.464,4.005C5.554,4.73,4.73,5.554,4.005,6.464l1.994,4.192c-0.347,0.648-0.632,1.334-0.849,2.05l-4.378,1.557C0.708,14.834,0.667,15.412,0.667,16s0.041,1.165,0.105,1.736l4.378,1.558c0.217,0.715,0.502,1.401,0.849,2.049l-1.994,4.193c0.725,0.909,1.549,1.733,2.459,2.458l4.192-1.993c0.648,0.347,1.334,0.633,2.05,0.851l1.557,4.377c0.571,0.064,1.148,0.104,1.737,0.104c0.588,0,1.165-0.04,1.736-0.104l1.558-4.377c0.715-0.218,1.399-0.504,2.049-0.851l4.193,1.993c0.909-0.725,1.733-1.549,2.458-2.458l-1.993-4.193c0.347-0.647,0.633-1.334,0.851-2.049L31.229,17.736zM16,20.871c-2.69,0-4.872-2.182-4.872-4.871c0-2.69,2.182-4.872,4.872-4.872c2.689,0,4.871,2.182,4.871,4.872C20.871,18.689,18.689,20.871,16,20.871z"></path><title>Link options.</title></g></g></g></g><!--z-index:45--><g   id="j_350" ><path  stroke="#707070" d="M 1405 629 L 1580 888 C 1583.5304952445576 893.4202142776363 1588.5304952445576 897.4202142776363 1595 900 L 1829 991" id="v-5388" stroke-width="2" stroke-dasharray="30 30" fill="none"></path><path  fill="black" stroke="black" d="M 0 0 0 0" transform="matrix(0.5591078978982587,0.8290949031973303,-0.8290949031973303,0.5591078978982587,1405.1539306640625,629)"></path><path  fill="#707070" stroke="#707070" d="M 20 0 L 0 10 L 20 20 z" id="v-5390" transform="matrix(-0.9316041157754884,-0.36347458160120405,0.36347458160120405,-0.9316041157754884,1825.3652553026802,1000.5300106065794)"></path><path  d="M 1405 629 L 1580 888 C 1583.5304952445576 893.4202142776363 1588.5304952445576 897.4202142776363 1595 900 L 1829 991" id="v-5389" fill="none" style="pointer-events: visiblepainted; cursor: auto;"></path><g ><g id="v-5379"  label-idx="0" cursor="move" transform="matrix(1,0,0,1,1568.2467041015625,870.6051025390625)"><rect joint-selector="rect" id="v-5383" fill="#ffffff" rx="3" ry="3" pointer-events="none" width="166.233642578125" height="116.93351745605469" transform="matrix(1,0,0,1,-83.3,-58.5)"></rect><text joint-selector="text" id="v-5382" font-size="24px" xml:space="preserve" y="0.8em" fill="#707070" text-anchor="middle" pointer-events="none" font-family="Arial" font-weight="normal" transform="matrix(1,0,0,1,0,-55.9)"><tspan dy="0" >8: Сохраняет</tspan><tspan dy="1.2em" x="0" >сообщение со</tspan><tspan dy="1.2em" x="0" >статусом</tspan><tspan dy="1.2em" x="0" >Отправлено</tspan></text></g><g id="v-5380"  label-idx="1" cursor="move" transform="matrix(1,0,0,1,1568.2467041015625,940.205078125)"><rect joint-selector="rect" id="v-5385" fill="#ffffff" rx="3" ry="3" pointer-events="none" width="138.8492431640625" height="21.809651374816895" transform="matrix(1,0,0,1,-67.4,-10.9)"></rect><text joint-selector="text" id="v-5384" font-size="17px" xml:space="preserve" y="0.8em" fill="#707070" text-anchor="middle" pointer-events="none" font-family="Arial" font-weight="normal" transform="matrix(1,0,0,1,0,-7.1)"><tspan dy="0" >[MongoDB Driver]</tspan></text></g><g id="v-5381"  label-idx="2" cursor="move" transform="matrix(1,0,0,1,1558.2467041015625,948.6051025390625)"><rect joint-selector="rect" id="v-5387" fill="#ffffff" rx="3" ry="3"  width="0" height="0" transform="matrix(1,0,0,1,0,0)" display="none"></rect><text joint-selector="text" id="v-5386" fill="#000000" font-size="14" text-anchor="middle" pointer-events="none"></text></g></g><g  display="none" style="display: none;"><g  transform="translate(1585.2957428668365, 896.1303214164545)" id="v-5513"><circle  idx="0" r="10"></circle><path  idx="0" d="M16,5.333c-7.732,0-14,4.701-14,10.5c0,1.982,0.741,3.833,2.016,5.414L2,25.667l5.613-1.441c2.339,1.317,5.237,2.107,8.387,2.107c7.732,0,14-4.701,14-10.5C30,10.034,23.732,5.333,16,5.333z" transform="translate(5, -33)"></path><path  idx="0" transform="scale(.8) translate(9.5, -37)" d="M24.778,21.419 19.276,15.917 24.777,10.415 21.949,7.585 16.447,13.087 10.945,7.585 8.117,10.415 13.618,15.917 8.116,21.419 10.946,24.248 16.447,18.746 21.948,24.248z"><title>Remove vertex.</title></path></g></g><g  id="v-5392" display="none"><g  id="v-5377"><path  end="source" d="M 26 0 L 0 13 L 26 26 z"></path></g><g  id="v-5378"><path  end="target" d="M 26 0 L 0 13 L 26 26 z"></path></g></g><g  id="v-5391" display="none"><g  id="v-5376" transform="translate(1427.3942964511195, 662.1435587476568) "><g  event="remove"><circle r="11"></circle><path transform="scale(.8) translate(-16, -16)" d="M24.778,21.419 19.276,15.917 24.777,10.415 21.949,7.585 16.447,13.087 10.945,7.585 8.117,10.415 13.618,15.917 8.116,21.419 10.946,24.248 16.447,18.746 21.948,24.248z"></path><title>Remove link.</title></g><g  event="link:options"><circle r="11" transform="translate(25)"></circle><path fill="white" transform="scale(.55) translate(29, -16)" d="M31.229,17.736c0.064-0.571,0.104-1.148,0.104-1.736s-0.04-1.166-0.104-1.737l-4.377-1.557c-0.218-0.716-0.504-1.401-0.851-2.05l1.993-4.192c-0.725-0.91-1.549-1.734-2.458-2.459l-4.193,1.994c-0.647-0.347-1.334-0.632-2.049-0.849l-1.558-4.378C17.165,0.708,16.588,0.667,16,0.667s-1.166,0.041-1.737,0.105L12.707,5.15c-0.716,0.217-1.401,0.502-2.05,0.849L6.464,4.005C5.554,4.73,4.73,5.554,4.005,6.464l1.994,4.192c-0.347,0.648-0.632,1.334-0.849,2.05l-4.378,1.557C0.708,14.834,0.667,15.412,0.667,16s0.041,1.165,0.105,1.736l4.378,1.558c0.217,0.715,0.502,1.401,0.849,2.049l-1.994,4.193c0.725,0.909,1.549,1.733,2.459,2.458l4.192-1.993c0.648,0.347,1.334,0.633,2.05,0.851l1.557,4.377c0.571,0.064,1.148,0.104,1.737,0.104c0.588,0,1.165-0.04,1.736-0.104l1.558-4.377c0.715-0.218,1.399-0.504,2.049-0.851l4.193,1.993c0.909-0.725,1.733-1.549,2.458-2.458l-1.993-4.193c0.347-0.647,0.633-1.334,0.851-2.049L31.229,17.736zM16,20.871c-2.69,0-4.872-2.182-4.872-4.871c0-2.69,2.182-4.872,4.872-4.872c2.689,0,4.871,2.182,4.871,4.872C20.871,18.689,18.689,20.871,16,20.871z"></path><title>Link options.</title></g></g></g></g><!--z-index:46--><g   id="j_351" ><path  stroke="#707070" d="M 1953 929 L 1778 670 C 1774.4695047554424 664.5797857223636 1769.4695047554424 660.5797857223636 1763 658 L 1529 567" id="v-5408" stroke-width="2" stroke-dasharray="30 30" fill="none"></path><path  fill="black" stroke="black" d="M 0 0 0 0" transform="matrix(-0.5591078978982585,-0.8290949031973303,0.8290949031973303,-0.5591078978982585,1952.8460693359375,929)"></path><path  fill="#707070" stroke="#707070" d="M 20 0 L 0 10 L 20 20 z" id="v-5410" transform="matrix(0.931604067375912,0.3634747056517925,-0.3634747056517925,0.931604067375912,1532.6347464218213,557.4699886369104)"></path><path  d="M 1953 929 L 1778 670 C 1774.4695047554424 664.5797857223636 1769.4695047554424 660.5797857223636 1763 658 L 1529 567" id="v-5409" fill="none" style="pointer-events: visiblepainted; cursor: auto;"></path><g ><g id="v-5399"  label-idx="0" cursor="move" transform="matrix(1,0,0,1,1789.7532958984375,687.3948974609375)"><rect joint-selector="rect" id="v-5403" fill="#ffffff" rx="3" ry="3" pointer-events="none" width="181.69207763671875" height="141.37159729003906" transform="matrix(1,0,0,1,-88.8,-70.7)"></rect><text joint-selector="text" id="v-5402" font-size="24px" xml:space="preserve" y="0.8em" fill="#707070" text-anchor="middle" pointer-events="none" font-family="Arial" font-weight="normal" transform="matrix(1,0,0,1,0,-68.1)"><tspan dy="0" >9:</tspan><tspan dy="1.2em" x="0" >Подтверждение</tspan><tspan dy="1.2em" x="0" >сохранения,</tspan><tspan dy="1.2em" x="0" >возвращает id</tspan><tspan dy="1.2em" x="0" >сообщения</tspan></text></g><g id="v-5400"  label-idx="1" cursor="move" transform="matrix(1,0,0,1,1789.7532958984375,771.3948974609375)"><rect joint-selector="rect" id="v-5405" fill="#ffffff" rx="3" ry="3" pointer-events="none" width="138.8492431640625" height="21.809651374816895" transform="matrix(1,0,0,1,-67.4,-10.9)"></rect><text joint-selector="text" id="v-5404" font-size="17px" xml:space="preserve" y="0.8em" fill="#707070" text-anchor="middle" pointer-events="none" font-family="Arial" font-weight="normal" transform="matrix(1,0,0,1,0,-7.1)"><tspan dy="0" >[MongoDB Driver]</tspan></text></g><g id="v-5401"  label-idx="2" cursor="move" transform="matrix(1,0,0,1,1779.7532958984375,779.794921875)"><rect joint-selector="rect" id="v-5407" fill="#ffffff" rx="3" ry="3"  width="0" height="0" transform="matrix(1,0,0,1,0,0)" display="none"></rect><text joint-selector="text" id="v-5406" fill="#000000" font-size="14" text-anchor="middle" pointer-events="none"></text></g></g><g  display="none" style="display: none;"><g  transform="translate(1772.7042571331635, 661.8696785835455)" id="v-5514"><circle  idx="0" r="10"></circle><path  idx="0" d="M16,5.333c-7.732,0-14,4.701-14,10.5c0,1.982,0.741,3.833,2.016,5.414L2,25.667l5.613-1.441c2.339,1.317,5.237,2.107,8.387,2.107c7.732,0,14-4.701,14-10.5C30,10.034,23.732,5.333,16,5.333z" transform="translate(5, -33)"></path><path  idx="0" transform="scale(.8) translate(9.5, -37)" d="M24.778,21.419 19.276,15.917 24.777,10.415 21.949,7.585 16.447,13.087 10.945,7.585 8.117,10.415 13.618,15.917 8.116,21.419 10.946,24.248 16.447,18.746 21.948,24.248z"><title>Remove vertex.</title></path></g></g><g  id="v-5412" display="none"><g  id="v-5397"><path  end="source" d="M 26 0 L 0 13 L 26 26 z"></path></g><g  id="v-5398"><path  end="target" d="M 26 0 L 0 13 L 26 26 z"></path></g></g><g  id="v-5411" display="none"><g  id="v-5396" transform="translate(1930.6057035488807, 895.8564412523433) "><g  event="remove"><circle r="11"></circle><path transform="scale(.8) translate(-16, -16)" d="M24.778,21.419 19.276,15.917 24.777,10.415 21.949,7.585 16.447,13.087 10.945,7.585 8.117,10.415 13.618,15.917 8.116,21.419 10.946,24.248 16.447,18.746 21.948,24.248z"></path><title>Remove link.</title></g><g  event="link:options"><circle r="11" transform="translate(25)"></circle><path fill="white" transform="scale(.55) translate(29, -16)" d="M31.229,17.736c0.064-0.571,0.104-1.148,0.104-1.736s-0.04-1.166-0.104-1.737l-4.377-1.557c-0.218-0.716-0.504-1.401-0.851-2.05l1.993-4.192c-0.725-0.91-1.549-1.734-2.458-2.459l-4.193,1.994c-0.647-0.347-1.334-0.632-2.049-0.849l-1.558-4.378C17.165,0.708,16.588,0.667,16,0.667s-1.166,0.041-1.737,0.105L12.707,5.15c-0.716,0.217-1.401,0.502-2.05,0.849L6.464,4.005C5.554,4.73,4.73,5.554,4.005,6.464l1.994,4.192c-0.347,0.648-0.632,1.334-0.849,2.05l-4.378,1.557C0.708,14.834,0.667,15.412,0.667,16s0.041,1.165,0.105,1.736l4.378,1.558c0.217,0.715,0.502,1.401,0.849,2.049l-1.994,4.193c0.725,0.909,1.549,1.733,2.459,2.458l4.192-1.993c0.648,0.347,1.334,0.633,2.05,0.851l1.557,4.377c0.571,0.064,1.148,0.104,1.737,0.104c0.588,0,1.165-0.04,1.736-0.104l1.558-4.377c0.715-0.218,1.399-0.504,2.049-0.851l4.193,1.993c0.909-0.725,1.733-1.549,2.458-2.458l-1.993-4.193c0.347-0.647,0.633-1.334,0.851-2.049L31.229,17.736zM16,20.871c-2.69,0-4.872-2.182-4.872-4.871c0-2.69,2.182-4.872,4.872-4.872c2.689,0,4.871,2.182,4.871,4.872C20.871,18.689,18.689,20.871,16,20.871z"></path><title>Link options.</title></g></g></g></g><!--z-index:47--><g   id="j_352" ><path  stroke="#707070" d="M 1529 567 L 2449 925 C 2455 927.6666666666665 2461 930.3333333333333 2467 933 L 2579 981" id="v-5429" stroke-width="2" stroke-dasharray="30 30" fill="none"></path><path  fill="black" stroke="black" d="M 0 0 0 0" transform="matrix(0.9316709519213494,0.3633032305746352,-0.3633032305746352,0.9316709519213494,1529,566.73828125)"></path><path  fill="#707070" stroke="#707070" d="M 20 0 L 0 10 L 20 20 z" id="v-5431" transform="matrix(-0.917491106755739,-0.3977562935066261,0.3977562935066261,-0.917491106755739,2575.0225434449912,990.6315389440299)"></path><path  d="M 1529 567 L 2449 925 C 2455 927.6666666666665 2461 930.3333333333333 2467 933 L 2579 981" id="v-5430" fill="none" style="pointer-events: visiblepainted; cursor: auto;"></path><g ><g id="v-5420"  label-idx="0" cursor="move" transform="matrix(1,0,0,1,2054.957275390625,771.666015625)"><rect joint-selector="rect" id="v-5424" fill="#ffffff" rx="3" ry="3" pointer-events="none" width="175.65501403808594" height="112.57157897949219" transform="matrix(1,0,0,1,-86.8,-56.3)"></rect><text joint-selector="text" id="v-5423" font-size="24px" xml:space="preserve" y="0.8em" fill="#707070" text-anchor="middle" pointer-events="none" font-family="Arial" font-weight="normal" transform="matrix(1,0,0,1,0,-53.7)"><tspan dy="0" >10: Уведомляет</tspan><tspan dy="1.2em" x="0" >получателя о</tspan><tspan dy="1.2em" x="0" >новом</tspan><tspan dy="1.2em" x="0" >сообщении</tspan></text></g><g id="v-5421"  label-idx="1" cursor="move" transform="matrix(1,0,0,1,2054.957275390625,841.2659912109375)"><rect joint-selector="rect" id="v-5426" fill="#ffffff" rx="3" ry="3" pointer-events="none" width="69.05582427978516" height="21.809651374816895" transform="matrix(1,0,0,1,-32.5,-10.9)"></rect><text joint-selector="text" id="v-5425" font-size="17px" xml:space="preserve" y="0.8em" fill="#707070" text-anchor="middle" pointer-events="none" font-family="Arial" font-weight="normal" transform="matrix(1,0,0,1,0,-7.1)"><tspan dy="0" >[HTTPS]</tspan></text></g><g id="v-5422"  label-idx="2" cursor="move" transform="matrix(1,0,0,1,2044.957275390625,849.666015625)"><rect joint-selector="rect" id="v-5428" fill="#ffffff" rx="3" ry="3"  width="0" height="0" transform="matrix(1,0,0,1,0,0)" display="none"></rect><text joint-selector="text" id="v-5427" fill="#000000" font-size="14" text-anchor="middle" pointer-events="none"></text></g></g><g  display="none" style="display: none;"><g  transform="translate(2458, 929)" id="v-5417"><circle  idx="0" r="10"></circle><path  idx="0" d="M16,5.333c-7.732,0-14,4.701-14,10.5c0,1.982,0.741,3.833,2.016,5.414L2,25.667l5.613-1.441c2.339,1.317,5.237,2.107,8.387,2.107c7.732,0,14-4.701,14-10.5C30,10.034,23.732,5.333,16,5.333z" transform="translate(5, -33)"></path><path  idx="0" transform="scale(.8) translate(9.5, -37)" d="M24.778,21.419 19.276,15.917 24.777,10.415 21.949,7.585 16.447,13.087 10.945,7.585 8.117,10.415 13.618,15.917 8.116,21.419 10.946,24.248 16.447,18.746 21.948,24.248z"><title>Remove vertex.</title></path></g></g><g  id="v-5433" display="none"><g  id="v-5418"><path  end="source" d="M 26 0 L 0 13 L 26 26 z"></path></g><g  id="v-5419"><path  end="target" d="M 26 0 L 0 13 L 26 26 z"></path></g></g><g  id="v-5432" display="none"><g  id="v-5416" transform="translate(1566.2771444278383, 581.5056714186587) "><g  event="remove"><circle r="11"></circle><path transform="scale(.8) translate(-16, -16)" d="M24.778,21.419 19.276,15.917 24.777,10.415 21.949,7.585 16.447,13.087 10.945,7.585 8.117,10.415 13.618,15.917 8.116,21.419 10.946,24.248 16.447,18.746 21.948,24.248z"></path><title>Remove link.</title></g><g  event="link:options"><circle r="11" transform="translate(25)"></circle><path fill="white" transform="scale(.55) translate(29, -16)" d="M31.229,17.736c0.064-0.571,0.104-1.148,0.104-1.736s-0.04-1.166-0.104-1.737l-4.377-1.557c-0.218-0.716-0.504-1.401-0.851-2.05l1.993-4.192c-0.725-0.91-1.549-1.734-2.458-2.459l-4.193,1.994c-0.647-0.347-1.334-0.632-2.049-0.849l-1.558-4.378C17.165,0.708,16.588,0.667,16,0.667s-1.166,0.041-1.737,0.105L12.707,5.15c-0.716,0.217-1.401,0.502-2.05,0.849L6.464,4.005C5.554,4.73,4.73,5.554,4.005,6.464l1.994,4.192c-0.347,0.648-0.632,1.334-0.849,2.05l-4.378,1.557C0.708,14.834,0.667,15.412,0.667,16s0.041,1.165,0.105,1.736l4.378,1.558c0.217,0.715,0.502,1.401,0.849,2.049l-1.994,4.193c0.725,0.909,1.549,1.733,2.459,2.458l4.192-1.993c0.648,0.347,1.334,0.633,2.05,0.851l1.557,4.377c0.571,0.064,1.148,0.104,1.737,0.104c0.588,0,1.165-0.04,1.736-0.104l1.558-4.377c0.715-0.218,1.399-0.504,2.049-0.851l4.193,1.993c0.909-0.725,1.733-1.549,2.458-2.458l-1.993-4.193c0.347-0.647,0.633-1.334,0.851-2.049L31.229,17.736zM16,20.871c-2.69,0-4.872-2.182-4.872-4.871c0-2.69,2.182-4.872,4.872-4.872c2.689,0,4.871,2.182,4.871,4.872C20.871,18.689,18.689,20.871,16,20.871z"></path><title>Link options.</title></g></g></g></g><!--z-index:48--><g   id="j_353" ><path  stroke="#707070" d="M 1229 629 L 1158 770 C 1155.3333333333333 775.9999999999999 1155.3333333333333 781.9999999999999 1158 788 L 1229 929" id="v-5449" stroke-width="2" stroke-dasharray="30 30" fill="none"></path><path  fill="black" stroke="black" d="M 0 0 0 0" transform="matrix(-0.4472135493031434,0.8944272140983217,-0.8944272140983217,-0.4472135493031434,1229,629)"></path><path  fill="#707070" stroke="#707070" d="M 20 0 L 0 10 L 20 20 z" id="v-5451" transform="matrix(-0.4472135493031436,-0.8944272140983216,0.8944272140983216,-0.4472135493031436,1220.0556953832981,933.4721327316709)"></path><path  d="M 1229 629 L 1158 770 C 1155.3333333333333 775.9999999999999 1155.3333333333333 781.9999999999999 1158 788 L 1229 929" id="v-5450" fill="none" style="pointer-events: visiblepainted; cursor: auto;"></path><g ><g id="v-5440"  label-idx="0" cursor="move" transform="matrix(1,0,0,1,1156,779)"><rect joint-selector="rect" id="v-5444" fill="#ffffff" rx="3" ry="3" pointer-events="none" width="208.1469268798828" height="83.77157592773438" transform="matrix(1,0,0,1,-103.6,-41.9)"></rect><text joint-selector="text" id="v-5443" font-size="24px" xml:space="preserve" y="0.8em" fill="#707070" text-anchor="middle" pointer-events="none" font-family="Arial" font-weight="normal" transform="matrix(1,0,0,1,0,-39.3)"><tspan dy="0" >11: Возвращает</tspan><tspan dy="1.2em" x="0" >успешный ответ с</tspan><tspan dy="1.2em" x="0" >id сообщения</tspan></text></g><g id="v-5441"  label-idx="1" cursor="move" transform="matrix(1,0,0,1,1156,834.2000122070312)"><rect joint-selector="rect" id="v-5446" fill="#ffffff" rx="3" ry="3" pointer-events="none" width="119.02313995361328" height="21.809651374816895" transform="matrix(1,0,0,1,-57.5,-10.9)"></rect><text joint-selector="text" id="v-5445" font-size="17px" xml:space="preserve" y="0.8em" fill="#707070" text-anchor="middle" pointer-events="none" font-family="Arial" font-weight="normal" transform="matrix(1,0,0,1,0,-7.1)"><tspan dy="0" >[HTTPS/REST]</tspan></text></g><g id="v-5442"  label-idx="2" cursor="move" transform="matrix(1,0,0,1,1146,842.5999755859375)"><rect joint-selector="rect" id="v-5448" fill="#ffffff" rx="3" ry="3"  width="0" height="0" transform="matrix(1,0,0,1,0,0)" display="none"></rect><text joint-selector="text" id="v-5447" fill="#000000" font-size="14" text-anchor="middle" pointer-events="none"></text></g></g><g  display="none" style="display: none;"><g  transform="translate(1154, 779)" id="v-5508"><circle  idx="0" r="10"></circle><path  idx="0" d="M16,5.333c-7.732,0-14,4.701-14,10.5c0,1.982,0.741,3.833,2.016,5.414L2,25.667l5.613-1.441c2.339,1.317,5.237,2.107,8.387,2.107c7.732,0,14-4.701,14-10.5C30,10.034,23.732,5.333,16,5.333z" transform="translate(5, -33)"></path><path  idx="0" transform="scale(.8) translate(9.5, -37)" d="M24.778,21.419 19.276,15.917 24.777,10.415 21.949,7.585 16.447,13.087 10.945,7.585 8.117,10.415 13.618,15.917 8.116,21.419 10.946,24.248 16.447,18.746 21.948,24.248z"><title>Remove vertex.</title></path></g></g><g  id="v-5453" display="none"><g  id="v-5438"><path  end="source" d="M 26 0 L 0 13 L 26 26 z"></path></g><g  id="v-5439"><path  end="target" d="M 26 0 L 0 13 L 26 26 z"></path></g></g><g  id="v-5452" display="none"><g  id="v-5437" transform="translate(1211.0101768418851, 664.7262685252707) "><g  event="remove"><circle r="11"></circle><path transform="scale(.8) translate(-16, -16)" d="M24.778,21.419 19.276,15.917 24.777,10.415 21.949,7.585 16.447,13.087 10.945,7.585 8.117,10.415 13.618,15.917 8.116,21.419 10.946,24.248 16.447,18.746 21.948,24.248z"></path><title>Remove link.</title></g><g  event="link:options"><circle r="11" transform="translate(25)"></circle><path fill="white" transform="scale(.55) translate(29, -16)" d="M31.229,17.736c0.064-0.571,0.104-1.148,0.104-1.736s-0.04-1.166-0.104-1.737l-4.377-1.557c-0.218-0.716-0.504-1.401-0.851-2.05l1.993-4.192c-0.725-0.91-1.549-1.734-2.458-2.459l-4.193,1.994c-0.647-0.347-1.334-0.632-2.049-0.849l-1.558-4.378C17.165,0.708,16.588,0.667,16,0.667s-1.166,0.041-1.737,0.105L12.707,5.15c-0.716,0.217-1.401,0.502-2.05,0.849L6.464,4.005C5.554,4.73,4.73,5.554,4.005,6.464l1.994,4.192c-0.347,0.648-0.632,1.334-0.849,2.05l-4.378,1.557C0.708,14.834,0.667,15.412,0.667,16s0.041,1.165,0.105,1.736l4.378,1.558c0.217,0.715,0.502,1.401,0.849,2.049l-1.994,4.193c0.725,0.909,1.549,1.733,2.459,2.458l4.192-1.993c0.648,0.347,1.334,0.633,2.05,0.851l1.557,4.377c0.571,0.064,1.148,0.104,1.737,0.104c0.588,0,1.165-0.04,1.736-0.104l1.558-4.377c0.715-0.218,1.399-0.504,2.049-0.851l4.193,1.993c0.909-0.725,1.733-1.549,2.458-2.458l-1.993-4.193c0.347-0.647,0.633-1.334,0.851-2.049L31.229,17.736zM16,20.871c-2.69,0-4.872-2.182-4.872-4.871c0-2.69,2.182-4.872,4.872-4.872c2.689,0,4.871,2.182,4.871,4.872C20.871,18.689,18.689,20.871,16,20.871z"></path><title>Link options.</title></g></g></g></g><!--z-index:49--><g   id="j_354" ><path  stroke="#707070" d="M 1229 1229 L 1158 1370 C 1155.3333333333333 1376 1155.3333333333333 1382 1158 1388 L 1229 1529" id="v-5469" stroke-width="2" stroke-dasharray="30 30" fill="none"></path><path  fill="black" stroke="black" d="M 0 0 0 0" transform="matrix(-0.4472135493031434,0.8944272140983217,-0.8944272140983217,-0.4472135493031434,1229,1229)"></path><path  fill="#707070" stroke="#707070" d="M 20 0 L 0 10 L 20 20 z" id="v-5471" transform="matrix(-0.4472135493031436,-0.8944272140983216,0.8944272140983216,-0.4472135493031436,1220.0556953832981,1533.472193766827)"></path><path  d="M 1229 1229 L 1158 1370 C 1155.3333333333333 1376 1155.3333333333333 1382 1158 1388 L 1229 1529" id="v-5470" fill="none" style="pointer-events: visiblepainted; cursor: auto;"></path><g ><g id="v-5460"  label-idx="0" cursor="move" transform="matrix(1,0,0,1,1156,1379)"><rect joint-selector="rect" id="v-5464" fill="#ffffff" rx="3" ry="3" pointer-events="none" width="178.2321319580078" height="54.97158241271973" transform="matrix(1,0,0,1,-88.1,-27.5)"></rect><text joint-selector="text" id="v-5463" font-size="24px" xml:space="preserve" y="0.8em" fill="#707070" text-anchor="middle" pointer-events="none" font-family="Arial" font-weight="normal" transform="matrix(1,0,0,1,0,-24.9)"><tspan dy="0" >12: Возвращает</tspan><tspan dy="1.2em" x="0" >ответ</tspan></text></g><g id="v-5461"  label-idx="1" cursor="move" transform="matrix(1,0,0,1,1156,1419.800048828125)"><rect joint-selector="rect" id="v-5466" fill="#ffffff" rx="3" ry="3" pointer-events="none" width="119.02313995361328" height="21.809651374816895" transform="matrix(1,0,0,1,-57.5,-10.9)"></rect><text joint-selector="text" id="v-5465" font-size="17px" xml:space="preserve" y="0.8em" fill="#707070" text-anchor="middle" pointer-events="none" font-family="Arial" font-weight="normal" transform="matrix(1,0,0,1,0,-7.1)"><tspan dy="0" >[HTTPS/REST]</tspan></text></g><g id="v-5462"  label-idx="2" cursor="move" transform="matrix(1,0,0,1,1146,1428.199951171875)"><rect joint-selector="rect" id="v-5468" fill="#ffffff" rx="3" ry="3"  width="0" height="0" transform="matrix(1,0,0,1,0,0)" display="none"></rect><text joint-selector="text" id="v-5467" fill="#000000" font-size="14" text-anchor="middle" pointer-events="none"></text></g></g><g  display="none" style="display: none;"><g  transform="translate(1154, 1379)" id="v-5506"><circle  idx="0" r="10"></circle><path  idx="0" d="M16,5.333c-7.732,0-14,4.701-14,10.5c0,1.982,0.741,3.833,2.016,5.414L2,25.667l5.613-1.441c2.339,1.317,5.237,2.107,8.387,2.107c7.732,0,14-4.701,14-10.5C30,10.034,23.732,5.333,16,5.333z" transform="translate(5, -33)"></path><path  idx="0" transform="scale(.8) translate(9.5, -37)" d="M24.778,21.419 19.276,15.917 24.777,10.415 21.949,7.585 16.447,13.087 10.945,7.585 8.117,10.415 13.618,15.917 8.116,21.419 10.946,24.248 16.447,18.746 21.948,24.248z"><title>Remove vertex.</title></path></g></g><g  id="v-5473" display="none"><g  id="v-5458"><path  end="source" d="M 26 0 L 0 13 L 26 26 z"></path></g><g  id="v-5459"><path  end="target" d="M 26 0 L 0 13 L 26 26 z"></path></g></g><g  id="v-5472" display="none"><g  id="v-5457" transform="translate(1211.0101768418851, 1264.7262685252708) "><g  event="remove"><circle r="11"></circle><path transform="scale(.8) translate(-16, -16)" d="M24.778,21.419 19.276,15.917 24.777,10.415 21.949,7.585 16.447,13.087 10.945,7.585 8.117,10.415 13.618,15.917 8.116,21.419 10.946,24.248 16.447,18.746 21.948,24.248z"></path><title>Remove link.</title></g><g  event="link:options"><circle r="11" transform="translate(25)"></circle><path fill="white" transform="scale(.55) translate(29, -16)" d="M31.229,17.736c0.064-0.571,0.104-1.148,0.104-1.736s-0.04-1.166-0.104-1.737l-4.377-1.557c-0.218-0.716-0.504-1.401-0.851-2.05l1.993-4.192c-0.725-0.91-1.549-1.734-2.458-2.459l-4.193,1.994c-0.647-0.347-1.334-0.632-2.049-0.849l-1.558-4.378C17.165,0.708,16.588,0.667,16,0.667s-1.166,0.041-1.737,0.105L12.707,5.15c-0.716,0.217-1.401,0.502-2.05,0.849L6.464,4.005C5.554,4.73,4.73,5.554,4.005,6.464l1.994,4.192c-0.347,0.648-0.632,1.334-0.849,2.05l-4.378,1.557C0.708,14.834,0.667,15.412,0.667,16s0.041,1.165,0.105,1.736l4.378,1.558c0.217,0.715,0.502,1.401,0.849,2.049l-1.994,4.193c0.725,0.909,1.549,1.733,2.459,2.458l4.192-1.993c0.648,0.347,1.334,0.633,2.05,0.851l1.557,4.377c0.571,0.064,1.148,0.104,1.737,0.104c0.588,0,1.165-0.04,1.736-0.104l1.558-4.377c0.715-0.218,1.399-0.504,2.049-0.851l4.193,1.993c0.909-0.725,1.733-1.549,2.458-2.458l-1.993-4.193c0.347-0.647,0.633-1.334,0.851-2.049L31.229,17.736zM16,20.871c-2.69,0-4.872-2.182-4.872-4.871c0-2.69,2.182-4.872,4.872-4.872c2.689,0,4.871,2.182,4.871,4.872C20.871,18.689,18.689,20.871,16,20.871z"></path><title>Link options.</title></g></g></g></g><!--z-index:50--><g   id="j_355" ><path  stroke="#707070" d="M 1228 1829 L 1146 1989 C 1143.0738825368685 1995.1566877898795 1143.407215870202 2001.1566877898795 1147 2007 L 1232 2142" id="v-5490" stroke-width="2" stroke-dasharray="30 30" fill="none"></path><path  fill="black" stroke="black" d="M 0 0 0 0" transform="matrix(-0.45339373381912523,0.8913103399678207,-0.8913103399678207,-0.45339373381912523,1227.6976318359375,1829)"></path><path  fill="#707070" stroke="#707070" d="M 20 0 L 0 10 L 20 20 z" id="v-5492" transform="matrix(-0.5311960637899948,-0.8472489255313433,0.8472489255313433,-0.5311960637899948,1223.5484557575865,2147.749781924463)"></path><path  d="M 1228 1829 L 1146 1989 C 1143.0738825368685 1995.1566877898795 1143.407215870202 2001.1566877898795 1147 2007 L 1232 2142" id="v-5491" fill="none" style="pointer-events: visiblepainted; cursor: auto;"></path><g ><g id="v-5480"  label-idx="0" cursor="move" transform="matrix(1,0,0,1,1146.3154296875,1988.384521484375)"><rect joint-selector="rect" id="v-5484" fill="#ffffff" rx="3" ry="3" pointer-events="none" width="178.18528747558594" height="83.77157592773438" transform="matrix(1,0,0,1,-88.1,-41.9)"></rect><text joint-selector="text" id="v-5483" font-size="24px" xml:space="preserve" y="0.8em" fill="#707070" text-anchor="middle" pointer-events="none" font-family="Arial" font-weight="normal" transform="matrix(1,0,0,1,0,-39.3)"><tspan dy="0" >13: Отображает</tspan><tspan dy="1.2em" x="0" >сообщение как</tspan><tspan dy="1.2em" x="0" >доставленное</tspan></text></g><g id="v-5481"  label-idx="1" cursor="move" transform="matrix(1,0,0,1,1146.3154296875,2043.5845947265625)"><rect joint-selector="rect" id="v-5486" fill="#ffffff" rx="3" ry="3" pointer-events="none" width="69.05582427978516" height="21.809651374816895" transform="matrix(1,0,0,1,-32.5,-10.9)"></rect><text joint-selector="text" id="v-5485" font-size="17px" xml:space="preserve" y="0.8em" fill="#707070" text-anchor="middle" pointer-events="none" font-family="Arial" font-weight="normal" transform="matrix(1,0,0,1,0,-7.1)"><tspan dy="0" >[HTTPS]</tspan></text></g><g id="v-5482"  label-idx="2" cursor="move" transform="matrix(1,0,0,1,1136.3154296875,2051.984619140625)"><rect joint-selector="rect" id="v-5488" fill="#ffffff" rx="3" ry="3"  width="0" height="0" transform="matrix(1,0,0,1,0,0)" display="none"></rect><text joint-selector="text" id="v-5487" fill="#000000" font-size="14" text-anchor="middle" pointer-events="none"></text></g></g><g  display="none" style="display: none;"><g  transform="translate(1141.610823805303, 1998.2350316848192)" id="v-5503"><circle  idx="0" r="10"></circle><path  idx="0" d="M16,5.333c-7.732,0-14,4.701-14,10.5c0,1.982,0.741,3.833,2.016,5.414L2,25.667l5.613-1.441c2.339,1.317,5.237,2.107,8.387,2.107c7.732,0,14-4.701,14-10.5C30,10.034,23.732,5.333,16,5.333z" transform="translate(5, -33)"></path><path  idx="0" transform="scale(.8) translate(9.5, -37)" d="M24.778,21.419 19.276,15.917 24.777,10.415 21.949,7.585 16.447,13.087 10.945,7.585 8.117,10.415 13.618,15.917 8.116,21.419 10.946,24.248 16.447,18.746 21.948,24.248z"><title>Remove vertex.</title></path></g></g><g  id="v-5494" display="none"><g  id="v-5478"><path  end="source" d="M 26 0 L 0 13 L 26 26 z"></path></g><g  id="v-5479"><path  end="target" d="M 26 0 L 0 13 L 26 26 z"></path></g></g><g  id="v-5493" display="none"><g  id="v-5477" transform="translate(1209.756368363584, 1864.597330022275) "><g  event="remove"><circle r="11"></circle><path transform="scale(.8) translate(-16, -16)" d="M24.778,21.419 19.276,15.917 24.777,10.415 21.949,7.585 16.447,13.087 10.945,7.585 8.117,10.415 13.618,15.917 8.116,21.419 10.946,24.248 16.447,18.746 21.948,24.248z"></path><title>Remove link.</title></g><g  event="link:options"><circle r="11" transform="translate(25)"></circle><path fill="white" transform="scale(.55) translate(29, -16)" d="M31.229,17.736c0.064-0.571,0.104-1.148,0.104-1.736s-0.04-1.166-0.104-1.737l-4.377-1.557c-0.218-0.716-0.504-1.401-0.851-2.05l1.993-4.192c-0.725-0.91-1.549-1.734-2.458-2.459l-4.193,1.994c-0.647-0.347-1.334-0.632-2.049-0.849l-1.558-4.378C17.165,0.708,16.588,0.667,16,0.667s-1.166,0.041-1.737,0.105L12.707,5.15c-0.716,0.217-1.401,0.502-2.05,0.849L6.464,4.005C5.554,4.73,4.73,5.554,4.005,6.464l1.994,4.192c-0.347,0.648-0.632,1.334-0.849,2.05l-4.378,1.557C0.708,14.834,0.667,15.412,0.667,16s0.041,1.165,0.105,1.736l4.378,1.558c0.217,0.715,0.502,1.401,0.849,2.049l-1.994,4.193c0.725,0.909,1.549,1.733,2.459,2.458l4.192-1.993c0.648,0.347,1.334,0.633,2.05,0.851l1.557,4.377c0.571,0.064,1.148,0.104,1.737,0.104c0.588,0,1.165-0.04,1.736-0.104l1.558-4.377c0.715-0.218,1.399-0.504,2.049-0.851l4.193,1.993c0.909-0.725,1.733-1.549,2.458-2.458l-1.993-4.193c0.347-0.647,0.633-1.334,0.851-2.049L31.229,17.736zM16,20.871c-2.69,0-4.872-2.182-4.872-4.871c0-2.69,2.182-4.872,4.872-4.872c2.689,0,4.871,2.182,4.871,4.872C20.871,18.689,18.689,20.871,16,20.871z"></path><title>Link options.</title></g></g></g></g><!--z-index:51--></g><g ></g><g ></g><g ></g></g></svg>