<svg xmlns="http://www.w3.org/2000/svg" xmlns:xlink="http://www.w3.org/1999/xlink" version="1.1" viewBox="0 0 3116 2216" style="background: #ffffff"><defs joint-selector="defs"></defs><g joint-selector="layers"  transform="matrix(1,0,0,1,0,0)"><g ></g><g ><!--z-index:1--><!--z-index:2--><!--z-index:3--><!--z-index:4--><!--z-index:5--><!--z-index:6--><!--z-index:7--><!--z-index:8--><!--z-index:9--><!--z-index:10--><!--z-index:11--><!--z-index:12--><!--z-index:13--><!--z-index:14--><!--z-index:15--><!--z-index:16--><!--z-index:17--><g   id="j_219"  transform="translate(20,2179.6)"><g id="v-3324"><text  id="v-3325" font-size="22px" xml:space="preserve" y="0.8em" font-weight="normal" text-anchor="start" fill="#aaaaaa" pointer-events="none" display="block" font-family="Arial"><tspan dy="0"  display="block">Wednesday, March 11, 2026 at 8:28 PM Moscow Standard Time</tspan></text></g></g><!--z-index:18--><g   id="j_218"  transform="translate(20,2136.4)"><g id="v-3322"><text  id="v-3323" font-size="36px" xml:space="preserve" y="0.8em" font-weight="normal" text-anchor="start" fill="#000000" pointer-events="none" display="block" font-family="Arial"><tspan dy="0"  display="block">[System Context] Social network</tspan></text></g></g><!--z-index:19--><g   id="j_220"  transform="translate(208,1708)" style=""><g  id="v-3329" style="opacity: 1;"><rect  x="0" y="160" width="400" height="240" rx="70" id="v-3331" stroke="#073b6f" stroke-width="2" pointer-events="visiblePainted" fill="#08427b" style="fill: rgb(8, 66, 123); stroke: rgb(7, 59, 111);"></rect><circle  cx="200" cy="88.88888888888889" r="88.88888888888889" id="v-3330" stroke="#073b6f" stroke-width="2" pointer-events="visiblePainted" fill="#08427b" style="fill: rgb(8, 66, 123); stroke: rgb(7, 59, 111);"></circle><line  x1="80" y1="266.6666666666667" x2="80" y2="400" id="v-3337" stroke="#073b6f" stroke-width="2" style="stroke: rgb(7, 59, 111);"></line><line  x1="320" y1="266.6666666666667" x2="320" y2="400" id="v-3338" stroke="#073b6f" stroke-width="2" style="stroke: rgb(7, 59, 111);"></line><text  id="v-3332" font-size="34" xml:space="preserve" y="0.8em" font-weight="bold" text-anchor="middle" pointer-events="visible" font-family="Arial" fill="#ffffff" transform="matrix(1,0,0,1,200,231.5)" style="fill: rgb(255, 255, 255);"><tspan dy="0" >Неавторизированный</tspan><tspan dy="1.2em" x="0" >пользователь (гость)</tspan></text><text  id="v-3333" font-size="17" xml:space="preserve" y="0.8em" text-anchor="middle" font-family="Arial" fill="#ffffff" transform="matrix(1,0,0,1,200,313.1)" style="fill: rgb(255, 255, 255);"><tspan dy="0" >[Person]</tspan></text><text  id="v-3334" font-size="24" xml:space="preserve" display="none" y="0.8em" text-anchor="middle" font-family="Arial" fill="#ffffff" transform="matrix(1,0,0,1,200,333.5)" style="fill: rgb(255, 255, 255);"><tspan dy="0" style="fill-opacity: 0; stroke-opacity: 0;" >-</tspan></text><g  id="v-3335" font-weight="normal" text-anchor="middle" color="#ffffff" transform="matrix(1,0,0,1,200,368)" display="none" style="fill: rgb(255, 255, 255);"><g ></g><g ></g><g ></g><g ></g></g><image  id="v-3336"></image></g></g><!--z-index:20--><g   id="j_221"  transform="translate(2458,208)" style=""><g  id="v-3342" style="opacity: 1;"><rect  x="0" y="160" width="400" height="240" rx="70" id="v-3344" stroke="#073b6f" stroke-width="2" pointer-events="visiblePainted" fill="#08427b" style="fill: rgb(8, 66, 123); stroke: rgb(7, 59, 111);"></rect><circle  cx="200" cy="88.88888888888889" r="88.88888888888889" id="v-3343" stroke="#073b6f" stroke-width="2" pointer-events="visiblePainted" fill="#08427b" style="fill: rgb(8, 66, 123); stroke: rgb(7, 59, 111);"></circle><line  x1="80" y1="266.6666666666667" x2="80" y2="400" id="v-3350" stroke="#073b6f" stroke-width="2" style="stroke: rgb(7, 59, 111);"></line><line  x1="320" y1="266.6666666666667" x2="320" y2="400" id="v-3351" stroke="#073b6f" stroke-width="2" style="stroke: rgb(7, 59, 111);"></line><text  id="v-3345" font-size="34" xml:space="preserve" y="0.8em" font-weight="bold" text-anchor="middle" pointer-events="visible" font-family="Arial" fill="#ffffff" transform="matrix(1,0,0,1,200,231.5)" style="fill: rgb(255, 255, 255);"><tspan dy="0" >Авторизированный</tspan><tspan dy="1.2em" x="0" >пользователь</tspan></text><text  id="v-3346" font-size="17" xml:space="preserve" y="0.8em" text-anchor="middle" font-family="Arial" fill="#ffffff" transform="matrix(1,0,0,1,200,313.1)" style="fill: rgb(255, 255, 255);"><tspan dy="0" >[Person]</tspan></text><text  id="v-3347" font-size="24" xml:space="preserve" display="none" y="0.8em" text-anchor="middle" font-family="Arial" fill="#ffffff" transform="matrix(1,0,0,1,200,333.5)" style="fill: rgb(255, 255, 255);"><tspan dy="0" style="fill-opacity: 0; stroke-opacity: 0;" >-</tspan></text><g  id="v-3348" font-weight="normal" text-anchor="middle" color="#ffffff" transform="matrix(1,0,0,1,200,368)" display="none" style="fill: rgb(255, 255, 255);"><g ></g><g ></g><g ></g><g ></g></g><image  id="v-3349"></image></g></g><!--z-index:21--><g   id="j_222"  transform="translate(208,1104)" style=""><g  id="v-3355" style="opacity: 1;"><rect  x="0" y="160" width="400" height="240" rx="70" id="v-3357" stroke="#073b6f" stroke-width="2" pointer-events="visiblePainted" fill="#08427b" style="fill: rgb(8, 66, 123); stroke: rgb(7, 59, 111);"></rect><circle  cx="200" cy="88.88888888888889" r="88.88888888888889" id="v-3356" stroke="#073b6f" stroke-width="2" pointer-events="visiblePainted" fill="#08427b" style="fill: rgb(8, 66, 123); stroke: rgb(7, 59, 111);"></circle><line  x1="80" y1="266.6666666666667" x2="80" y2="400" id="v-3363" stroke="#073b6f" stroke-width="2" style="stroke: rgb(7, 59, 111);"></line><line  x1="320" y1="266.6666666666667" x2="320" y2="400" id="v-3364" stroke="#073b6f" stroke-width="2" style="stroke: rgb(7, 59, 111);"></line><text  id="v-3358" font-size="34" xml:space="preserve" y="0.8em" font-weight="bold" text-anchor="middle" pointer-events="visible" font-family="Arial" fill="#ffffff" transform="matrix(1,0,0,1,200,211.1)" style="fill: rgb(255, 255, 255);"><tspan dy="0" >Сотрудник</tspan><tspan dy="1.2em" x="0" >технической</tspan><tspan dy="1.2em" x="0" >поддержки</tspan></text><text  id="v-3359" font-size="17" xml:space="preserve" y="0.8em" text-anchor="middle" font-family="Arial" fill="#ffffff" transform="matrix(1,0,0,1,200,333.5)" style="fill: rgb(255, 255, 255);"><tspan dy="0" >[Person]</tspan></text><text  id="v-3360" font-size="24" xml:space="preserve" display="none" y="0.8em" text-anchor="middle" font-family="Arial" fill="#ffffff" transform="matrix(1,0,0,1,200,353.9)" style="fill: rgb(255, 255, 255);"><tspan dy="0" style="fill-opacity: 0; stroke-opacity: 0;" >-</tspan></text><g  id="v-3361" font-weight="normal" text-anchor="middle" color="#ffffff" transform="matrix(1,0,0,1,200,368)" display="none" style="fill: rgb(255, 255, 255);"><g ></g><g ></g><g ></g><g ></g></g><image  id="v-3362"></image></g></g><!--z-index:22--><g   id="j_223"  transform="translate(958,1104)" style=""><g  id="v-3365" style="opacity: 1;"><rect  id="v-3366" rx="20" ry="20" stroke="#0f5eaa" stroke-width="2" pointer-events="visiblePainted" fill="#1168bd" width="450" height="300" style="fill: rgb(17, 104, 189); stroke: rgb(15, 94, 170);"></rect><text  id="v-3367" font-size="34" xml:space="preserve" y="0.8em" font-weight="bold" text-anchor="middle" pointer-events="visible" font-family="Arial" fill="#ffffff" transform="matrix(1,0,0,1,225,121.9)" style="fill: rgb(255, 255, 255);"><tspan dy="0" >Social network</tspan></text><text  id="v-3368" font-size="17" xml:space="preserve" y="0.8em" text-anchor="middle" font-family="Arial" fill="#ffffff" transform="matrix(1,0,0,1,225,162.7)" style="fill: rgb(255, 255, 255);"><tspan dy="0" >[Software System]</tspan></text><text  id="v-3369" font-size="24" xml:space="preserve" display="none" y="0.8em" text-anchor="middle" font-family="Arial" fill="#ffffff" transform="matrix(1,0,0,1,225,183.1)" style="fill: rgb(255, 255, 255);"><tspan dy="0" style="fill-opacity: 0; stroke-opacity: 0;" >-</tspan></text><g  id="v-3370" color="#ffffff" transform="matrix(1,0,0,1,0,268)" display="none" style="fill: rgb(255, 255, 255);"><g ></g><g ></g><g ></g><g ></g></g><image  id="v-3371"></image></g></g><!--z-index:23--><g   id="j_224"  transform="translate(1708,1708)" style=""><g  id="v-3375" style="opacity: 1;"><rect  id="v-3376" rx="20" ry="20" stroke="#0f5eaa" stroke-width="2" pointer-events="visiblePainted" fill="#1168bd" width="450" height="300" style="fill: rgb(17, 104, 189); stroke: rgb(15, 94, 170);"></rect><text  id="v-3377" font-size="34" xml:space="preserve" y="0.8em" font-weight="bold" text-anchor="middle" pointer-events="visible" font-family="Arial" fill="#ffffff" transform="matrix(1,0,0,1,225,102.5)" style="fill: rgb(255, 255, 255);"><tspan dy="0" >Email-сервис</tspan></text><text  id="v-3378" font-size="17" xml:space="preserve" y="0.8em" text-anchor="middle" font-family="Arial" fill="#ffffff" transform="matrix(1,0,0,1,225,143.3)" style="fill: rgb(255, 255, 255);"><tspan dy="0" >[Software System]</tspan></text><text  id="v-3379" font-size="24" xml:space="preserve" y="0.8em" text-anchor="middle" font-family="Arial" fill="#ffffff" transform="matrix(1,0,0,1,225,173.7)" style="fill: rgb(255, 255, 255);"><tspan dy="0" >Отправляет email-уведомления</tspan></text><g  id="v-3380" color="#ffffff" transform="matrix(1,0,0,1,0,268)" display="none" style="fill: rgb(255, 255, 255);"><g ></g><g ></g><g ></g><g ></g></g><image  id="v-3381"></image></g></g><!--z-index:24--><g   id="j_225"  transform="translate(1708,508)" style=""><g  id="v-3385" style="opacity: 1;"><rect  id="v-3386" rx="20" ry="20" stroke="#0f5eaa" stroke-width="2" pointer-events="visiblePainted" fill="#1168bd" width="450" height="300" style="fill: rgb(17, 104, 189); stroke: rgb(15, 94, 170);"></rect><text  id="v-3387" font-size="34" xml:space="preserve" y="0.8em" font-weight="bold" text-anchor="middle" pointer-events="visible" font-family="Arial" fill="#ffffff" transform="matrix(1,0,0,1,225,88.1)" style="fill: rgb(255, 255, 255);"><tspan dy="0" >Push-сервис</tspan></text><text  id="v-3388" font-size="17" xml:space="preserve" y="0.8em" text-anchor="middle" font-family="Arial" fill="#ffffff" transform="matrix(1,0,0,1,225,128.9)" style="fill: rgb(255, 255, 255);"><tspan dy="0" >[Software System]</tspan></text><text  id="v-3389" font-size="24" xml:space="preserve" y="0.8em" text-anchor="middle" font-family="Arial" fill="#ffffff" transform="matrix(1,0,0,1,225,159.3)" style="fill: rgb(255, 255, 255);"><tspan dy="0" >Отправляет push-уведомления на</tspan><tspan dy="1.2em" x="0" >устройства</tspan></text><g  id="v-3390" color="#ffffff" transform="matrix(1,0,0,1,0,268)" display="none" style="fill: rgb(255, 255, 255);"><g ></g><g ></g><g ></g><g ></g></g><image  id="v-3391"></image></g></g><!--z-index:25--><g   id="j_226"  transform="translate(1708,1108)" style=""><g  id="v-3395" style="opacity: 1;"><rect  id="v-3396" rx="20" ry="20" stroke="#0f5eaa" stroke-width="2" pointer-events="visiblePainted" fill="#1168bd" width="450" height="300" style="fill: rgb(17, 104, 189); stroke: rgb(15, 94, 170);"></rect><text  id="v-3397" font-size="34" xml:space="preserve" y="0.8em" font-weight="bold" text-anchor="middle" pointer-events="visible" font-family="Arial" fill="#ffffff" transform="matrix(1,0,0,1,225,102.5)" style="fill: rgb(255, 255, 255);"><tspan dy="0" >Реклама</tspan></text><text  id="v-3398" font-size="17" xml:space="preserve" y="0.8em" text-anchor="middle" font-family="Arial" fill="#ffffff" transform="matrix(1,0,0,1,225,143.3)" style="fill: rgb(255, 255, 255);"><tspan dy="0" >[Software System]</tspan></text><text  id="v-3399" font-size="24" xml:space="preserve" y="0.8em" text-anchor="middle" font-family="Arial" fill="#ffffff" transform="matrix(1,0,0,1,225,173.7)" style="fill: rgb(255, 255, 255);"><tspan dy="0" >Система таргетированной рекламы</tspan></text><g  id="v-3400" color="#ffffff" transform="matrix(1,0,0,1,0,268)" display="none" style="fill: rgb(255, 255, 255);"><g ></g><g ></g><g ></g><g ></g></g><image  id="v-3401"></image></g></g><!--z-index:26--><g   id="j_227" ><path  stroke="#707070" d="M 1708 1865 L 608 1901" id="v-3414" stroke-width="2" stroke-dasharray="30 30" fill="none" style="opacity: 1;"></path><path  fill="black" stroke="black" d="M 0 0 0 0" transform="matrix(-0.9994629393363432,0.03276938957559338,-0.03276938957559338,-0.9994629393363432,1708,1865.3770751953125)"></path><path  fill="#707070" stroke="#707070" d="M 20 0 L 0 10 L 20 20 z" id="v-3416" transform="matrix(0.9994629480633241,-0.03276912340251108,0.03276912340251108,0.9994629480633241,607.6723081915917,1891.4480519877668)" style="opacity: 1;"></path><path  d="M 1708 1865 L 608 1901" id="v-3415" fill="none" style="pointer-events: visiblepainted; cursor: auto;"></path><g ><g id="v-3408"  label-idx="0" cursor="move" transform="matrix(1,0,0,1,1158,1883)" style="opacity: 1;"><rect joint-selector="rect" id="v-3411" fill="#ffffff" rx="3" ry="3" pointer-events="none" width="134.42300415039062" height="53.86166000366211" transform="matrix(1,0,0,1,-66.9,-26.9)"></rect><text joint-selector="text" id="v-3410" font-size="24px" xml:space="preserve" y="0.8em" fill="#707070" text-anchor="middle" pointer-events="none" font-family="Arial" font-weight="normal" transform="matrix(1,0,0,1,0,-25.2)"><tspan dy="0" >Отправляет</tspan><tspan dy="1.2em" x="0" >сообщение</tspan></text></g><g id="v-3409"  label-idx="1" cursor="move" transform="matrix(1,0,0,1,1148,1923.800048828125)" style="opacity: 1;"><rect joint-selector="rect" id="v-3413" fill="#ffffff" rx="3" ry="3"  width="0" height="0" transform="matrix(1,0,0,1,0,0)" display="none"></rect><text joint-selector="text" id="v-3412" fill="#000000" font-size="14" text-anchor="middle" pointer-events="none"></text></g></g><g  display="none" style="display: none;"></g><g  id="v-3418" display="none"><g  id="v-3406"><path  end="source" d="M 26 0 L 0 13 L 26 26 z"></path></g><g  id="v-3407"><path  end="target" d="M 26 0 L 0 13 L 26 26 z"></path></g></g><g  id="v-3417" display="none"><g  id="v-3405" transform="translate(1668.0214042949433, 1866.3083904048929) "><g  event="remove"><circle r="11"></circle><path transform="scale(.8) translate(-16, -16)" d="M24.778,21.419 19.276,15.917 24.777,10.415 21.949,7.585 16.447,13.087 10.945,7.585 8.117,10.415 13.618,15.917 8.116,21.419 10.946,24.248 16.447,18.746 21.948,24.248z"></path><title>Remove link.</title></g><g  event="link:options"><circle r="11" transform="translate(25)"></circle><path fill="white" transform="scale(.55) translate(29, -16)" d="M31.229,17.736c0.064-0.571,0.104-1.148,0.104-1.736s-0.04-1.166-0.104-1.737l-4.377-1.557c-0.218-0.716-0.504-1.401-0.851-2.05l1.993-4.192c-0.725-0.91-1.549-1.734-2.458-2.459l-4.193,1.994c-0.647-0.347-1.334-0.632-2.049-0.849l-1.558-4.378C17.165,0.708,16.588,0.667,16,0.667s-1.166,0.041-1.737,0.105L12.707,5.15c-0.716,0.217-1.401,0.502-2.05,0.849L6.464,4.005C5.554,4.73,4.73,5.554,4.005,6.464l1.994,4.192c-0.347,0.648-0.632,1.334-0.849,2.05l-4.378,1.557C0.708,14.834,0.667,15.412,0.667,16s0.041,1.165,0.105,1.736l4.378,1.558c0.217,0.715,0.502,1.401,0.849,2.049l-1.994,4.193c0.725,0.909,1.549,1.733,2.459,2.458l4.192-1.993c0.648,0.347,1.334,0.633,2.05,0.851l1.557,4.377c0.571,0.064,1.148,0.104,1.737,0.104c0.588,0,1.165-0.04,1.736-0.104l1.558-4.377c0.715-0.218,1.399-0.504,2.049-0.851l4.193,1.993c0.909-0.725,1.733-1.549,2.458-2.458l-1.993-4.193c0.347-0.647,0.633-1.334,0.851-2.049L31.229,17.736zM16,20.871c-2.69,0-4.872-2.182-4.872-4.871c0-2.69,2.182-4.872,4.872-4.872c2.689,0,4.871,2.182,4.871,4.872C20.871,18.689,18.689,20.871,16,20.871z"></path><title>Link options.</title></g></g></g></g><!--z-index:27--><g   id="j_228" ><path  stroke="#707070" d="M 2158 580 L 2458 477" id="v-3431" stroke-width="2" stroke-dasharray="30 30" fill="none" style="opacity: 1;"></path><path  fill="black" stroke="black" d="M 0 0 0 0" transform="matrix(0.9453729918079541,-0.3259906537925252,0.3259906537925252,0.9453729918079541,2158,580.413818359375)"></path><path  fill="#707070" stroke="#707070" d="M 20 0 L 0 10 L 20 20 z" id="v-3433" transform="matrix(-0.9453729918079542,0.3259906537925246,-0.3259906537925246,-0.9453729918079542,2461.2600231747547,486.4192567297637)" style="opacity: 1;"></path><path  d="M 2158 580 L 2458 477" id="v-3432" fill="none" style="pointer-events: visiblepainted; cursor: auto;"></path><g ><g id="v-3425"  label-idx="0" cursor="move" transform="matrix(1,0,0,1,2308,528.5)" style="opacity: 1;"><rect joint-selector="rect" id="v-3428" fill="#ffffff" rx="3" ry="3" pointer-events="none" width="155.91128540039062" height="58.038604736328125" transform="matrix(1,0,0,1,-78.4,-29)"></rect><text joint-selector="text" id="v-3427" font-size="24px" xml:space="preserve" y="0.8em" fill="#707070" text-anchor="middle" pointer-events="none" font-family="Arial" font-weight="normal" transform="matrix(1,0,0,1,0,-27.3)"><tspan dy="0" >Отправляет</tspan><tspan dy="1.2em" x="0" >уведомление</tspan></text></g><g id="v-3426"  label-idx="1" cursor="move" transform="matrix(1,0,0,1,2298,569.2999877929688)" style="opacity: 1;"><rect joint-selector="rect" id="v-3430" fill="#ffffff" rx="3" ry="3"  width="0" height="0" transform="matrix(1,0,0,1,0,0)" display="none"></rect><text joint-selector="text" id="v-3429" fill="#000000" font-size="14" text-anchor="middle" pointer-events="none"></text></g></g><g  display="none" style="display: none;"></g><g  id="v-3435" display="none"><g  id="v-3423"><path  end="source" d="M 26 0 L 0 13 L 26 26 z"></path></g><g  id="v-3424"><path  end="target" d="M 26 0 L 0 13 L 26 26 z"></path></g></g><g  id="v-3434" display="none"><g  id="v-3422" transform="translate(2195.832307404981, 567.0109077909566) "><g  event="remove"><circle r="11"></circle><path transform="scale(.8) translate(-16, -16)" d="M24.778,21.419 19.276,15.917 24.777,10.415 21.949,7.585 16.447,13.087 10.945,7.585 8.117,10.415 13.618,15.917 8.116,21.419 10.946,24.248 16.447,18.746 21.948,24.248z"></path><title>Remove link.</title></g><g  event="link:options"><circle r="11" transform="translate(25)"></circle><path fill="white" transform="scale(.55) translate(29, -16)" d="M31.229,17.736c0.064-0.571,0.104-1.148,0.104-1.736s-0.04-1.166-0.104-1.737l-4.377-1.557c-0.218-0.716-0.504-1.401-0.851-2.05l1.993-4.192c-0.725-0.91-1.549-1.734-2.458-2.459l-4.193,1.994c-0.647-0.347-1.334-0.632-2.049-0.849l-1.558-4.378C17.165,0.708,16.588,0.667,16,0.667s-1.166,0.041-1.737,0.105L12.707,5.15c-0.716,0.217-1.401,0.502-2.05,0.849L6.464,4.005C5.554,4.73,4.73,5.554,4.005,6.464l1.994,4.192c-0.347,0.648-0.632,1.334-0.849,2.05l-4.378,1.557C0.708,14.834,0.667,15.412,0.667,16s0.041,1.165,0.105,1.736l4.378,1.558c0.217,0.715,0.502,1.401,0.849,2.049l-1.994,4.193c0.725,0.909,1.549,1.733,2.459,2.458l4.192-1.993c0.648,0.347,1.334,0.633,2.05,0.851l1.557,4.377c0.571,0.064,1.148,0.104,1.737,0.104c0.588,0,1.165-0.04,1.736-0.104l1.558-4.377c0.715-0.218,1.399-0.504,2.049-0.851l4.193,1.993c0.909-0.725,1.733-1.549,2.458-2.458l-1.993-4.193c0.347-0.647,0.633-1.334,0.851-2.049L31.229,17.736zM16,20.871c-2.69,0-4.872-2.182-4.872-4.871c0-2.69,2.182-4.872,4.872-4.872c2.689,0,4.871,2.182,4.871,4.872C20.871,18.689,18.689,20.871,16,20.871z"></path><title>Link options.</title></g></g></g></g><!--z-index:28--><g   id="j_229" ><path  stroke="#707070" d="M 608 1739 L 1005 1404" id="v-3448" stroke-width="2" stroke-dasharray="30 30" fill="none" style="opacity: 1;"></path><path  fill="black" stroke="black" d="M 0 0 0 0" transform="matrix(0.7642460722104174,-0.6449247561622592,0.6449247561622592,0.7642460722104174,608,1739.225830078125)"></path><path  fill="#707070" stroke="#707070" d="M 20 0 L 0 10 L 20 20 z" id="v-3450" transform="matrix(-0.7642459004565386,0.6449249596932766,-0.6449249596932766,-0.7642459004565386,1011.6969332108731,1411.6424281576326)" style="opacity: 1;"></path><path  d="M 608 1739 L 1005 1404" id="v-3449" fill="none" style="pointer-events: visiblepainted; cursor: auto;"></path><g ><g id="v-3442"  label-idx="0" cursor="move" transform="matrix(1,0,0,1,806.5,1571.5)" style="opacity: 1;"><rect joint-selector="rect" id="v-3445" fill="#ffffff" rx="3" ry="3" pointer-events="none" width="192.9422607421875" height="144.43860626220703" transform="matrix(1,0,0,1,-94.8,-72.2)"></rect><text joint-selector="text" id="v-3444" font-size="24px" xml:space="preserve" y="0.8em" fill="#707070" text-anchor="middle" pointer-events="none" font-family="Arial" font-weight="normal" transform="matrix(1,0,0,1,0,-70.5)"><tspan dy="0" >Регистрация,</tspan><tspan dy="1.2em" x="0" >авторизация,</tspan><tspan dy="1.2em" x="0" >просмотр</tspan><tspan dy="1.2em" x="0" >публичных</tspan><tspan dy="1.2em" x="0" >профилей и стен</tspan></text></g><g id="v-3443"  label-idx="1" cursor="move" transform="matrix(1,0,0,1,796.5,1655.5)" style="opacity: 1;"><rect joint-selector="rect" id="v-3447" fill="#ffffff" rx="3" ry="3"  width="0" height="0" transform="matrix(1,0,0,1,0,0)" display="none"></rect><text joint-selector="text" id="v-3446" fill="#000000" font-size="14" text-anchor="middle" pointer-events="none"></text></g></g><g  display="none" style="display: none;"></g><g  id="v-3452" display="none"><g  id="v-3440"><path  end="source" d="M 26 0 L 0 13 L 26 26 z"></path></g><g  id="v-3441"><path  end="target" d="M 26 0 L 0 13 L 26 26 z"></path></g></g><g  id="v-3451" display="none"><g  id="v-3439" transform="translate(638.5704732839282, 1713.2037568007156) "><g  event="remove"><circle r="11"></circle><path transform="scale(.8) translate(-16, -16)" d="M24.778,21.419 19.276,15.917 24.777,10.415 21.949,7.585 16.447,13.087 10.945,7.585 8.117,10.415 13.618,15.917 8.116,21.419 10.946,24.248 16.447,18.746 21.948,24.248z"></path><title>Remove link.</title></g><g  event="link:options"><circle r="11" transform="translate(25)"></circle><path fill="white" transform="scale(.55) translate(29, -16)" d="M31.229,17.736c0.064-0.571,0.104-1.148,0.104-1.736s-0.04-1.166-0.104-1.737l-4.377-1.557c-0.218-0.716-0.504-1.401-0.851-2.05l1.993-4.192c-0.725-0.91-1.549-1.734-2.458-2.459l-4.193,1.994c-0.647-0.347-1.334-0.632-2.049-0.849l-1.558-4.378C17.165,0.708,16.588,0.667,16,0.667s-1.166,0.041-1.737,0.105L12.707,5.15c-0.716,0.217-1.401,0.502-2.05,0.849L6.464,4.005C5.554,4.73,4.73,5.554,4.005,6.464l1.994,4.192c-0.347,0.648-0.632,1.334-0.849,2.05l-4.378,1.557C0.708,14.834,0.667,15.412,0.667,16s0.041,1.165,0.105,1.736l4.378,1.558c0.217,0.715,0.502,1.401,0.849,2.049l-1.994,4.193c0.725,0.909,1.549,1.733,2.459,2.458l4.192-1.993c0.648,0.347,1.334,0.633,2.05,0.851l1.557,4.377c0.571,0.064,1.148,0.104,1.737,0.104c0.588,0,1.165-0.04,1.736-0.104l1.558-4.377c0.715-0.218,1.399-0.504,2.049-0.851l4.193,1.993c0.909-0.725,1.733-1.549,2.458-2.458l-1.993-4.193c0.347-0.647,0.633-1.334,0.851-2.049L31.229,17.736zM16,20.871c-2.69,0-4.872-2.182-4.872-4.871c0-2.69,2.182-4.872,4.872-4.872c2.689,0,4.871,2.182,4.871,4.872C20.871,18.689,18.689,20.871,16,20.871z"></path><title>Link options.</title></g></g></g></g><!--z-index:29--><g   id="j_230" ><path  stroke="#707070" d="M 2458 397 L 1718 359 C 1711.333333333333 358.3333333333333 1706.333333333333 361 1703 367 L 1271 1104" id="v-3466" stroke-width="2" stroke-dasharray="30 30" fill="none" style="opacity: 1;"></path><path  fill="black" stroke="black" d="M 0 0 0 0" transform="matrix(-0.9986178299186333,-0.0525588219864139,0.0525588219864139,-0.9986178299186333,2458,397.47369384765625)"></path><path  fill="#707070" stroke="#707070" d="M 20 0 L 0 10 L 20 20 z" id="v-3468" transform="matrix(0.5055466248611021,-0.8627992872572091,0.8627992872572091,0.5055466248611021,1262.2625858006918,1098.9444748661485)" style="opacity: 1;"></path><path  d="M 2458 397 L 1718 359 C 1711.333333333333 358.3333333333333 1706.333333333333 361 1703 367 L 1271 1104" id="v-3467" fill="none" style="pointer-events: visiblepainted; cursor: auto;"></path><g ><g id="v-3460"  label-idx="0" cursor="move" transform="matrix(1,0,0,1,1678.941162109375,408.0448303222656)" style="opacity: 1;"><rect joint-selector="rect" id="v-3463" fill="#ffffff" rx="3" ry="3" pointer-events="none" width="180.49110412597656" height="111.46165466308594" transform="matrix(1,0,0,1,-89.4,-55.7)"></rect><text joint-selector="text" id="v-3462" font-size="24px" xml:space="preserve" y="0.8em" fill="#707070" text-anchor="middle" pointer-events="none" font-family="Arial" font-weight="normal" transform="matrix(1,0,0,1,0,-54)"><tspan dy="0" >Пишет на стену,</tspan><tspan dy="1.2em" x="0" >отправляет</tspan><tspan dy="1.2em" x="0" >сообщения,</tspan><tspan dy="1.2em" x="0" >видит контент</tspan></text></g><g id="v-3461"  label-idx="1" cursor="move" transform="matrix(1,0,0,1,1668.941162109375,477.64483642578125)" style="opacity: 1;"><rect joint-selector="rect" id="v-3465" fill="#ffffff" rx="3" ry="3"  width="0" height="0" transform="matrix(1,0,0,1,0,0)" display="none"></rect><text joint-selector="text" id="v-3464" fill="#000000" font-size="14" text-anchor="middle" pointer-events="none"></text></g></g><g  display="none" style="display: none;"><g  transform="translate(1708, 358)" id="v-3457"><circle  idx="0" r="10"></circle><path  idx="0" d="M16,5.333c-7.732,0-14,4.701-14,10.5c0,1.982,0.741,3.833,2.016,5.414L2,25.667l5.613-1.441c2.339,1.317,5.237,2.107,8.387,2.107c7.732,0,14-4.701,14-10.5C30,10.034,23.732,5.333,16,5.333z" transform="translate(5, -33)"></path><path  idx="0" transform="scale(.8) translate(9.5, -37)" d="M24.778,21.419 19.276,15.917 24.777,10.415 21.949,7.585 16.447,13.087 10.945,7.585 8.117,10.415 13.618,15.917 8.116,21.419 10.946,24.248 16.447,18.746 21.948,24.248z"><title>Remove vertex.</title></path></g></g><g  id="v-3470" display="none"><g  id="v-3458"><path  end="source" d="M 26 0 L 0 13 L 26 26 z"></path></g><g  id="v-3459"><path  end="target" d="M 26 0 L 0 13 L 26 26 z"></path></g></g><g  id="v-3469" display="none"><g  id="v-3456" transform="translate(2418.052635150916, 394.94864883207407) "><g  event="remove"><circle r="11"></circle><path transform="scale(.8) translate(-16, -16)" d="M24.778,21.419 19.276,15.917 24.777,10.415 21.949,7.585 16.447,13.087 10.945,7.585 8.117,10.415 13.618,15.917 8.116,21.419 10.946,24.248 16.447,18.746 21.948,24.248z"></path><title>Remove link.</title></g><g  event="link:options"><circle r="11" transform="translate(25)"></circle><path fill="white" transform="scale(.55) translate(29, -16)" d="M31.229,17.736c0.064-0.571,0.104-1.148,0.104-1.736s-0.04-1.166-0.104-1.737l-4.377-1.557c-0.218-0.716-0.504-1.401-0.851-2.05l1.993-4.192c-0.725-0.91-1.549-1.734-2.458-2.459l-4.193,1.994c-0.647-0.347-1.334-0.632-2.049-0.849l-1.558-4.378C17.165,0.708,16.588,0.667,16,0.667s-1.166,0.041-1.737,0.105L12.707,5.15c-0.716,0.217-1.401,0.502-2.05,0.849L6.464,4.005C5.554,4.73,4.73,5.554,4.005,6.464l1.994,4.192c-0.347,0.648-0.632,1.334-0.849,2.05l-4.378,1.557C0.708,14.834,0.667,15.412,0.667,16s0.041,1.165,0.105,1.736l4.378,1.558c0.217,0.715,0.502,1.401,0.849,2.049l-1.994,4.193c0.725,0.909,1.549,1.733,2.459,2.458l4.192-1.993c0.648,0.347,1.334,0.633,2.05,0.851l1.557,4.377c0.571,0.064,1.148,0.104,1.737,0.104c0.588,0,1.165-0.04,1.736-0.104l1.558-4.377c0.715-0.218,1.399-0.504,2.049-0.851l4.193,1.993c0.909-0.725,1.733-1.549,2.458-2.458l-1.993-4.193c0.347-0.647,0.633-1.334,0.851-2.049L31.229,17.736zM16,20.871c-2.69,0-4.872-2.182-4.872-4.871c0-2.69,2.182-4.872,4.872-4.872c2.689,0,4.871,2.182,4.871,4.872C20.871,18.689,18.689,20.871,16,20.871z"></path><title>Link options.</title></g></g></g></g><!--z-index:30--><g   id="j_231" ><path  stroke="#707070" d="M 608 1291 L 958 1269" id="v-3483" stroke-width="2" stroke-dasharray="30 30" fill="none" style="opacity: 1;"></path><path  fill="black" stroke="black" d="M 0 0 0 0" transform="matrix(0.9979253204907179,-0.06438209940269021,0.06438209940269021,0.9979253204907179,608,1291.0968017578125)"></path><path  fill="#707070" stroke="#707070" d="M 20 0 L 0 10 L 20 20 z" id="v-3485" transform="matrix(-0.9979253033446924,0.06438236516627595,-0.06438236516627595,-0.9979253033446924,958.6438286382347,1278.4953414911593)" style="opacity: 1;"></path><path  d="M 608 1291 L 958 1269" id="v-3484" fill="none" style="pointer-events: visiblepainted; cursor: auto;"></path><g ><g id="v-3477"  label-idx="0" cursor="move" transform="matrix(1,0,0,1,783,1280)" style="opacity: 1;"><rect joint-selector="rect" id="v-3480" fill="#ffffff" rx="3" ry="3" pointer-events="none" width="188.93849182128906" height="169.0616683959961" transform="matrix(1,0,0,1,-92.8,-84.5)"></rect><text joint-selector="text" id="v-3479" font-size="24px" xml:space="preserve" y="0.8em" fill="#707070" text-anchor="middle" pointer-events="none" font-family="Arial" font-weight="normal" transform="matrix(1,0,0,1,0,-82.8)"><tspan dy="0" >Модерация</tspan><tspan dy="1.2em" x="0" >пользователей и</tspan><tspan dy="1.2em" x="0" >контента,</tspan><tspan dy="1.2em" x="0" >работает с</tspan><tspan dy="1.2em" x="0" >обращениями и</tspan><tspan dy="1.2em" x="0" >тикетами</tspan></text></g><g id="v-3478"  label-idx="1" cursor="move" transform="matrix(1,0,0,1,773,1378.4000244140625)" style="opacity: 1;"><rect joint-selector="rect" id="v-3482" fill="#ffffff" rx="3" ry="3"  width="0" height="0" transform="matrix(1,0,0,1,0,0)" display="none"></rect><text joint-selector="text" id="v-3481" fill="#000000" font-size="14" text-anchor="middle" pointer-events="none"></text></g></g><g  display="none" style="display: none;"></g><g  id="v-3487" display="none"><g  id="v-3475"><path  end="source" d="M 26 0 L 0 13 L 26 26 z"></path></g><g  id="v-3476"><path  end="target" d="M 26 0 L 0 13 L 26 26 z"></path></g></g><g  id="v-3486" display="none"><g  id="v-3474" transform="translate(647.9212129819559, 1288.4906666125628) "><g  event="remove"><circle r="11"></circle><path transform="scale(.8) translate(-16, -16)" d="M24.778,21.419 19.276,15.917 24.777,10.415 21.949,7.585 16.447,13.087 10.945,7.585 8.117,10.415 13.618,15.917 8.116,21.419 10.946,24.248 16.447,18.746 21.948,24.248z"></path><title>Remove link.</title></g><g  event="link:options"><circle r="11" transform="translate(25)"></circle><path fill="white" transform="scale(.55) translate(29, -16)" d="M31.229,17.736c0.064-0.571,0.104-1.148,0.104-1.736s-0.04-1.166-0.104-1.737l-4.377-1.557c-0.218-0.716-0.504-1.401-0.851-2.05l1.993-4.192c-0.725-0.91-1.549-1.734-2.458-2.459l-4.193,1.994c-0.647-0.347-1.334-0.632-2.049-0.849l-1.558-4.378C17.165,0.708,16.588,0.667,16,0.667s-1.166,0.041-1.737,0.105L12.707,5.15c-0.716,0.217-1.401,0.502-2.05,0.849L6.464,4.005C5.554,4.73,4.73,5.554,4.005,6.464l1.994,4.192c-0.347,0.648-0.632,1.334-0.849,2.05l-4.378,1.557C0.708,14.834,0.667,15.412,0.667,16s0.041,1.165,0.105,1.736l4.378,1.558c0.217,0.715,0.502,1.401,0.849,2.049l-1.994,4.193c0.725,0.909,1.549,1.733,2.459,2.458l4.192-1.993c0.648,0.347,1.334,0.633,2.05,0.851l1.557,4.377c0.571,0.064,1.148,0.104,1.737,0.104c0.588,0,1.165-0.04,1.736-0.104l1.558-4.377c0.715-0.218,1.399-0.504,2.049-0.851l4.193,1.993c0.909-0.725,1.733-1.549,2.458-2.458l-1.993-4.193c0.347-0.647,0.633-1.334,0.851-2.049L31.229,17.736zM16,20.871c-2.69,0-4.872-2.182-4.872-4.871c0-2.69,2.182-4.872,4.872-4.872c2.689,0,4.871,2.182,4.871,4.872C20.871,18.689,18.689,20.871,16,20.871z"></path><title>Link options.</title></g></g></g></g><!--z-index:31--><g   id="j_232" ><path  stroke="#707070" d="M 1369 1404 L 1747 1708" id="v-3503" stroke-width="2" stroke-dasharray="30 30" fill="none" style="opacity: 1;"></path><path  fill="black" stroke="black" d="M 0 0 0 0" transform="matrix(0.7788384368589516,0.6272245923679213,-0.6272245923679213,0.7788384368589516,1369.25830078125,1404)"></path><path  fill="#707070" stroke="#707070" d="M 20 0 L 0 10 L 20 20 z" id="v-3505" transform="matrix(-0.7788383950989466,-0.6272246442222253,0.6272246442222253,-0.7788383950989466,1740.4695066493923,1715.7884135963368)" style="opacity: 1;"></path><path  d="M 1369 1404 L 1747 1708" id="v-3504" fill="none" style="pointer-events: visiblepainted; cursor: auto;"></path><g ><g id="v-3494"  label-idx="0" cursor="move" transform="matrix(1,0,0,1,1558,1556)" style="opacity: 1;"><rect joint-selector="rect" id="v-3498" fill="#ffffff" rx="3" ry="3" pointer-events="none" width="191.13710021972656" height="58.038604736328125" transform="matrix(1,0,0,1,-96.2,-29)"></rect><text joint-selector="text" id="v-3497" font-size="24px" xml:space="preserve" y="0.8em" fill="#707070" text-anchor="middle" pointer-events="none" font-family="Arial" font-weight="normal" transform="matrix(1,0,0,1,0,-27.3)"><tspan dy="0" >Уведомление об</tspan><tspan dy="1.2em" x="0" >авторизации</tspan></text></g><g id="v-3495"  label-idx="1" cursor="move" transform="matrix(1,0,0,1,1558,1596.800048828125)" style="opacity: 1;"><rect joint-selector="rect" id="v-3500" fill="#ffffff" rx="3" ry="3" pointer-events="none" width="118.59119415283203" height="20.884716033935547" transform="matrix(1,0,0,1,-57.5,-10.4)"></rect><text joint-selector="text" id="v-3499" font-size="17px" xml:space="preserve" y="0.8em" fill="#707070" text-anchor="middle" pointer-events="none" font-family="Arial" font-weight="normal" transform="matrix(1,0,0,1,0,-7.3)"><tspan dy="0" >[HTTPS/REST]</tspan></text></g><g id="v-3496"  label-idx="2" cursor="move" transform="matrix(1,0,0,1,1548,1605.199951171875)" style="opacity: 1;"><rect joint-selector="rect" id="v-3502" fill="#ffffff" rx="3" ry="3"  width="0" height="0" transform="matrix(1,0,0,1,0,0)" display="none"></rect><text joint-selector="text" id="v-3501" fill="#000000" font-size="14" text-anchor="middle" pointer-events="none"></text></g></g><g  display="none" style="display: none;"></g><g  id="v-3507" display="none"><g  id="v-3492"><path  end="source" d="M 26 0 L 0 13 L 26 26 z"></path></g><g  id="v-3493"><path  end="target" d="M 26 0 L 0 13 L 26 26 z"></path></g></g><g  id="v-3506" display="none"><g  id="v-3491" transform="translate(1400.1702889034934, 1429.0681688536033) "><g  event="remove"><circle r="11"></circle><path transform="scale(.8) translate(-16, -16)" d="M24.778,21.419 19.276,15.917 24.777,10.415 21.949,7.585 16.447,13.087 10.945,7.585 8.117,10.415 13.618,15.917 8.116,21.419 10.946,24.248 16.447,18.746 21.948,24.248z"></path><title>Remove link.</title></g><g  event="link:options"><circle r="11" transform="translate(25)"></circle><path fill="white" transform="scale(.55) translate(29, -16)" d="M31.229,17.736c0.064-0.571,0.104-1.148,0.104-1.736s-0.04-1.166-0.104-1.737l-4.377-1.557c-0.218-0.716-0.504-1.401-0.851-2.05l1.993-4.192c-0.725-0.91-1.549-1.734-2.458-2.459l-4.193,1.994c-0.647-0.347-1.334-0.632-2.049-0.849l-1.558-4.378C17.165,0.708,16.588,0.667,16,0.667s-1.166,0.041-1.737,0.105L12.707,5.15c-0.716,0.217-1.401,0.502-2.05,0.849L6.464,4.005C5.554,4.73,4.73,5.554,4.005,6.464l1.994,4.192c-0.347,0.648-0.632,1.334-0.849,2.05l-4.378,1.557C0.708,14.834,0.667,15.412,0.667,16s0.041,1.165,0.105,1.736l4.378,1.558c0.217,0.715,0.502,1.401,0.849,2.049l-1.994,4.193c0.725,0.909,1.549,1.733,2.459,2.458l4.192-1.993c0.648,0.347,1.334,0.633,2.05,0.851l1.557,4.377c0.571,0.064,1.148,0.104,1.737,0.104c0.588,0,1.165-0.04,1.736-0.104l1.558-4.377c0.715-0.218,1.399-0.504,2.049-0.851l4.193,1.993c0.909-0.725,1.733-1.549,2.458-2.458l-1.993-4.193c0.347-0.647,0.633-1.334,0.851-2.049L31.229,17.736zM16,20.871c-2.69,0-4.872-2.182-4.872-4.871c0-2.69,2.182-4.872,4.872-4.872c2.689,0,4.871,2.182,4.871,4.872C20.871,18.689,18.689,20.871,16,20.871z"></path><title>Link options.</title></g></g></g></g><!--z-index:32--><g   id="j_233" ><path  stroke="#707070" d="M 1372 1104 L 1744 808" id="v-3523" stroke-width="2" stroke-dasharray="30 30" fill="none" style="opacity: 1;"></path><path  fill="black" stroke="black" d="M 0 0 0 0" transform="matrix(0.7829015105405309,-0.6221456620385253,0.6221456620385253,0.7829015105405309,1371.7584228515625,1104)"></path><path  fill="#707070" stroke="#707070" d="M 20 0 L 0 10 L 20 20 z" id="v-3525" transform="matrix(-0.782901510540531,0.6221456620385252,-0.6221456620385252,-0.782901510540531,1750.4630693820407,815.828994031895)" style="opacity: 1;"></path><path  d="M 1372 1104 L 1744 808" id="v-3524" fill="none" style="pointer-events: visiblepainted; cursor: auto;"></path><g ><g id="v-3514"  label-idx="0" cursor="move" transform="matrix(1,0,0,1,1558,956)" style="opacity: 1;"><rect joint-selector="rect" id="v-3518" fill="#ffffff" rx="3" ry="3" pointer-events="none" width="200.28250122070312" height="82.66165924072266" transform="matrix(1,0,0,1,-98.5,-41.3)"></rect><text joint-selector="text" id="v-3517" font-size="24px" xml:space="preserve" y="0.8em" fill="#707070" text-anchor="middle" pointer-events="none" font-family="Arial" font-weight="normal" transform="matrix(1,0,0,1,0,-39.6)"><tspan dy="0" >Уведомляет о</tspan><tspan dy="1.2em" x="0" >новых постах или</tspan><tspan dy="1.2em" x="0" >сообщениях</tspan></text></g><g id="v-3515"  label-idx="1" cursor="move" transform="matrix(1,0,0,1,1558,1011.2000122070312)" style="opacity: 1;"><rect joint-selector="rect" id="v-3520" fill="#ffffff" rx="3" ry="3" pointer-events="none" width="118.59119415283203" height="20.884716033935547" transform="matrix(1,0,0,1,-57.5,-10.4)"></rect><text joint-selector="text" id="v-3519" font-size="17px" xml:space="preserve" y="0.8em" fill="#707070" text-anchor="middle" pointer-events="none" font-family="Arial" font-weight="normal" transform="matrix(1,0,0,1,0,-7.3)"><tspan dy="0" >[HTTPS/REST]</tspan></text></g><g id="v-3516"  label-idx="2" cursor="move" transform="matrix(1,0,0,1,1548,1019.5999755859375)" style="opacity: 1;"><rect joint-selector="rect" id="v-3522" fill="#ffffff" rx="3" ry="3"  width="0" height="0" transform="matrix(1,0,0,1,0,0)" display="none"></rect><text joint-selector="text" id="v-3521" fill="#000000" font-size="14" text-anchor="middle" pointer-events="none"></text></g></g><g  display="none" style="display: none;"></g><g  id="v-3527" display="none"><g  id="v-3512"><path  end="source" d="M 26 0 L 0 13 L 26 26 z"></path></g><g  id="v-3513"><path  end="target" d="M 26 0 L 0 13 L 26 26 z"></path></g></g><g  id="v-3526" display="none"><g  id="v-3511" transform="translate(1403.3003152462284, 1079.094372814829) "><g  event="remove"><circle r="11"></circle><path transform="scale(.8) translate(-16, -16)" d="M24.778,21.419 19.276,15.917 24.777,10.415 21.949,7.585 16.447,13.087 10.945,7.585 8.117,10.415 13.618,15.917 8.116,21.419 10.946,24.248 16.447,18.746 21.948,24.248z"></path><title>Remove link.</title></g><g  event="link:options"><circle r="11" transform="translate(25)"></circle><path fill="white" transform="scale(.55) translate(29, -16)" d="M31.229,17.736c0.064-0.571,0.104-1.148,0.104-1.736s-0.04-1.166-0.104-1.737l-4.377-1.557c-0.218-0.716-0.504-1.401-0.851-2.05l1.993-4.192c-0.725-0.91-1.549-1.734-2.458-2.459l-4.193,1.994c-0.647-0.347-1.334-0.632-2.049-0.849l-1.558-4.378C17.165,0.708,16.588,0.667,16,0.667s-1.166,0.041-1.737,0.105L12.707,5.15c-0.716,0.217-1.401,0.502-2.05,0.849L6.464,4.005C5.554,4.73,4.73,5.554,4.005,6.464l1.994,4.192c-0.347,0.648-0.632,1.334-0.849,2.05l-4.378,1.557C0.708,14.834,0.667,15.412,0.667,16s0.041,1.165,0.105,1.736l4.378,1.558c0.217,0.715,0.502,1.401,0.849,2.049l-1.994,4.193c0.725,0.909,1.549,1.733,2.459,2.458l4.192-1.993c0.648,0.347,1.334,0.633,2.05,0.851l1.557,4.377c0.571,0.064,1.148,0.104,1.737,0.104c0.588,0,1.165-0.04,1.736-0.104l1.558-4.377c0.715-0.218,1.399-0.504,2.049-0.851l4.193,1.993c0.909-0.725,1.733-1.549,2.458-2.458l-1.993-4.193c0.347-0.647,0.633-1.334,0.851-2.049L31.229,17.736zM16,20.871c-2.69,0-4.872-2.182-4.872-4.871c0-2.69,2.182-4.872,4.872-4.872c2.689,0,4.871,2.182,4.871,4.872C20.871,18.689,18.689,20.871,16,20.871z"></path><title>Link options.</title></g></g></g></g><!--z-index:33--><g   id="j_234" ><path  stroke="#707070" d="M 1408 1255 L 1708 1257" id="v-3543" stroke-width="2" stroke-dasharray="30 30" fill="none" style="opacity: 1;"></path><path  fill="black" stroke="black" d="M 0 0 0 0" transform="matrix(0.9999857780809481,0.005333257526202107,-0.005333257526202107,0.9999857780809481,1408,1255.199951171875)"></path><path  fill="#707070" stroke="#707070" d="M 20 0 L 0 10 L 20 20 z" id="v-3545" transform="matrix(-0.9999857782751336,-0.005333221116314171,0.005333221116314171,-0.9999857782751336,1707.9466476419007,1266.799894095477)" style="opacity: 1;"></path><path  d="M 1408 1255 L 1708 1257" id="v-3544" fill="none" style="pointer-events: visiblepainted; cursor: auto;"></path><g ><g id="v-3534"  label-idx="0" cursor="move" transform="matrix(1,0,0,1,1558,1256)" style="opacity: 1;"><rect joint-selector="rect" id="v-3538" fill="#ffffff" rx="3" ry="3" pointer-events="none" width="125.18325424194336" height="58.038604736328125" transform="matrix(1,0,0,1,-60.9,-29)"></rect><text joint-selector="text" id="v-3537" font-size="24px" xml:space="preserve" y="0.8em" fill="#707070" text-anchor="middle" pointer-events="none" font-family="Arial" font-weight="normal" transform="matrix(1,0,0,1,0,-27.3)"><tspan dy="0" >Получение</tspan><tspan dy="1.2em" x="0" >рекламы</tspan></text></g><g id="v-3535"  label-idx="1" cursor="move" transform="matrix(1,0,0,1,1558,1296.800048828125)" style="opacity: 1;"><rect joint-selector="rect" id="v-3540" fill="#ffffff" rx="3" ry="3" pointer-events="none" width="118.59119415283203" height="20.884716033935547" transform="matrix(1,0,0,1,-57.5,-10.4)"></rect><text joint-selector="text" id="v-3539" font-size="17px" xml:space="preserve" y="0.8em" fill="#707070" text-anchor="middle" pointer-events="none" font-family="Arial" font-weight="normal" transform="matrix(1,0,0,1,0,-7.3)"><tspan dy="0" >[HTTPS/REST]</tspan></text></g><g id="v-3536"  label-idx="2" cursor="move" transform="matrix(1,0,0,1,1548,1305.199951171875)" style="opacity: 1;"><rect joint-selector="rect" id="v-3542" fill="#ffffff" rx="3" ry="3"  width="0" height="0" transform="matrix(1,0,0,1,0,0)" display="none"></rect><text joint-selector="text" id="v-3541" fill="#000000" font-size="14" text-anchor="middle" pointer-events="none"></text></g></g><g  display="none" style="display: none;"></g><g  id="v-3547" display="none"><g  id="v-3532"><path  end="source" d="M 26 0 L 0 13 L 26 26 z"></path></g><g  id="v-3533"><path  end="target" d="M 26 0 L 0 13 L 26 26 z"></path></g></g><g  id="v-3546" display="none"><g  id="v-3531" transform="translate(1447.9991111407394, 1255.2666607409383) "><g  event="remove"><circle r="11"></circle><path transform="scale(.8) translate(-16, -16)" d="M24.778,21.419 19.276,15.917 24.777,10.415 21.949,7.585 16.447,13.087 10.945,7.585 8.117,10.415 13.618,15.917 8.116,21.419 10.946,24.248 16.447,18.746 21.948,24.248z"></path><title>Remove link.</title></g><g  event="link:options"><circle r="11" transform="translate(25)"></circle><path fill="white" transform="scale(.55) translate(29, -16)" d="M31.229,17.736c0.064-0.571,0.104-1.148,0.104-1.736s-0.04-1.166-0.104-1.737l-4.377-1.557c-0.218-0.716-0.504-1.401-0.851-2.05l1.993-4.192c-0.725-0.91-1.549-1.734-2.458-2.459l-4.193,1.994c-0.647-0.347-1.334-0.632-2.049-0.849l-1.558-4.378C17.165,0.708,16.588,0.667,16,0.667s-1.166,0.041-1.737,0.105L12.707,5.15c-0.716,0.217-1.401,0.502-2.05,0.849L6.464,4.005C5.554,4.73,4.73,5.554,4.005,6.464l1.994,4.192c-0.347,0.648-0.632,1.334-0.849,2.05l-4.378,1.557C0.708,14.834,0.667,15.412,0.667,16s0.041,1.165,0.105,1.736l4.378,1.558c0.217,0.715,0.502,1.401,0.849,2.049l-1.994,4.193c0.725,0.909,1.549,1.733,2.459,2.458l4.192-1.993c0.648,0.347,1.334,0.633,2.05,0.851l1.557,4.377c0.571,0.064,1.148,0.104,1.737,0.104c0.588,0,1.165-0.04,1.736-0.104l1.558-4.377c0.715-0.218,1.399-0.504,2.049-0.851l4.193,1.993c0.909-0.725,1.733-1.549,2.458-2.458l-1.993-4.193c0.347-0.647,0.633-1.334,0.851-2.049L31.229,17.736zM16,20.871c-2.69,0-4.872-2.182-4.872-4.871c0-2.69,2.182-4.872,4.872-4.872c2.689,0,4.871,2.182,4.871,4.872C20.871,18.689,18.689,20.871,16,20.871z"></path><title>Link options.</title></g></g></g></g><!--z-index:34--></g><g ></g><g ></g><g ></g></g></svg>