<svg xmlns="http://www.w3.org/2000/svg" xmlns:xlink="http://www.w3.org/1999/xlink" version="1.1" viewBox="0 0 3116 2525" style="background: #ffffff"><defs joint-selector="defs"></defs><g joint-selector="layers"  transform="matrix(1,0,0,1,0,0)"><g ></g><g ><!--z-index:1--><!--z-index:2--><!--z-index:3--><!--z-index:4--><!--z-index:5--><!--z-index:6--><!--z-index:7--><!--z-index:8--><!--z-index:9--><!--z-index:10--><!--z-index:11--><!--z-index:12--><!--z-index:13--><!--z-index:14--><!--z-index:15--><!--z-index:16--><!--z-index:17--><!--z-index:18--><!--z-index:19--><g   id="j_2"  transform="translate(20,2488.6)"><g id="v-5"><text  id="v-6" font-size="22px" xml:space="preserve" y="0.8em" font-weight="normal" text-anchor="start" fill="#aaaaaa" pointer-events="none" display="block" font-family="Arial"><tspan dy="0"  display="block">пятница, 13 марта 2026 г. в 17:47 Москва, стандартное время</tspan></text></g></g><!--z-index:20--><g   id="j_1"  transform="translate(20,2445.4)"><g id="v-3"><text  id="v-4" font-size="36px" xml:space="preserve" y="0.8em" font-weight="normal" text-anchor="start" fill="#000000" pointer-events="none" display="block" font-family="Arial"><tspan dy="0"  display="block">[System Context] Social network</tspan></text></g></g><!--z-index:21--><g   id="j_3"  transform="translate(208,208)" style=""><g  id="v-10" style="opacity: 1;"><rect  x="0" y="160" width="400" height="240" rx="70" id="v-12" stroke="#073b6f" stroke-width="2" pointer-events="visiblePainted" fill="#08427b" style="fill: rgb(8, 66, 123); stroke: rgb(7, 59, 111);"></rect><circle  cx="200" cy="88.88888888888889" r="88.88888888888889" id="v-11" stroke="#073b6f" stroke-width="2" pointer-events="visiblePainted" fill="#08427b" style="fill: rgb(8, 66, 123); stroke: rgb(7, 59, 111);"></circle><line  x1="80" y1="266.6666666666667" x2="80" y2="400" id="v-18" stroke="#073b6f" stroke-width="2" style="stroke: rgb(7, 59, 111);"></line><line  x1="320" y1="266.6666666666667" x2="320" y2="400" id="v-19" stroke="#073b6f" stroke-width="2" style="stroke: rgb(7, 59, 111);"></line><text  id="v-13" font-size="34" xml:space="preserve" y="0.8em" font-weight="bold" text-anchor="middle" pointer-events="visible" font-family="Arial" fill="#ffffff" transform="matrix(1,0,0,1,200,231.5)" style="fill: rgb(255, 255, 255);"><tspan dy="0" >Неавторизированный</tspan><tspan dy="1.2em" x="0" >пользователь (гость)</tspan></text><text  id="v-14" font-size="17" xml:space="preserve" y="0.8em" text-anchor="middle" font-family="Arial" fill="#ffffff" transform="matrix(1,0,0,1,200,313.1)" style="fill: rgb(255, 255, 255);"><tspan dy="0" >[Person]</tspan></text><text  id="v-15" font-size="24" xml:space="preserve" display="none" y="0.8em" text-anchor="middle" font-family="Arial" fill="#ffffff" transform="matrix(1,0,0,1,200,333.5)" style="fill: rgb(255, 255, 255);"><tspan dy="0" style="fill-opacity: 0; stroke-opacity: 0;" >-</tspan></text><g  id="v-16" font-weight="normal" text-anchor="middle" color="#ffffff" transform="matrix(1,0,0,1,200,368)" display="none" style="fill: rgb(255, 255, 255);"><g ></g><g ></g><g ></g><g ></g></g><image  id="v-17"></image></g></g><!--z-index:22--><g   id="j_4"  transform="translate(208,808)" style=""><g  id="v-23" style="opacity: 1;"><rect  x="0" y="160" width="400" height="240" rx="70" id="v-25" stroke="#073b6f" stroke-width="2" pointer-events="visiblePainted" fill="#08427b" style="fill: rgb(8, 66, 123); stroke: rgb(7, 59, 111);"></rect><circle  cx="200" cy="88.88888888888889" r="88.88888888888889" id="v-24" stroke="#073b6f" stroke-width="2" pointer-events="visiblePainted" fill="#08427b" style="fill: rgb(8, 66, 123); stroke: rgb(7, 59, 111);"></circle><line  x1="80" y1="266.6666666666667" x2="80" y2="400" id="v-31" stroke="#073b6f" stroke-width="2" style="stroke: rgb(7, 59, 111);"></line><line  x1="320" y1="266.6666666666667" x2="320" y2="400" id="v-32" stroke="#073b6f" stroke-width="2" style="stroke: rgb(7, 59, 111);"></line><text  id="v-26" font-size="34" xml:space="preserve" y="0.8em" font-weight="bold" text-anchor="middle" pointer-events="visible" font-family="Arial" fill="#ffffff" transform="matrix(1,0,0,1,200,211.1)" style="fill: rgb(255, 255, 255);"><tspan dy="0" >Авторизированный</tspan><tspan dy="1.2em" x="0" >пользователь</tspan><tspan dy="1.2em" x="0" >(отправитель)</tspan></text><text  id="v-27" font-size="17" xml:space="preserve" y="0.8em" text-anchor="middle" font-family="Arial" fill="#ffffff" transform="matrix(1,0,0,1,200,333.5)" style="fill: rgb(255, 255, 255);"><tspan dy="0" >[Person]</tspan></text><text  id="v-28" font-size="24" xml:space="preserve" display="none" y="0.8em" text-anchor="middle" font-family="Arial" fill="#ffffff" transform="matrix(1,0,0,1,200,353.9)" style="fill: rgb(255, 255, 255);"><tspan dy="0" style="fill-opacity: 0; stroke-opacity: 0;" >-</tspan></text><g  id="v-29" font-weight="normal" text-anchor="middle" color="#ffffff" transform="matrix(1,0,0,1,200,368)" display="none" style="fill: rgb(255, 255, 255);"><g ></g><g ></g><g ></g><g ></g></g><image  id="v-30"></image></g></g><!--z-index:23--><g   id="j_5"  transform="translate(2458,1117)" style=""><g  id="v-36" style="opacity: 1;"><rect  x="0" y="160" width="400" height="240" rx="70" id="v-38" stroke="#073b6f" stroke-width="2" pointer-events="visiblePainted" fill="#08427b" style="fill: rgb(8, 66, 123); stroke: rgb(7, 59, 111);"></rect><circle  cx="200" cy="88.88888888888889" r="88.88888888888889" id="v-37" stroke="#073b6f" stroke-width="2" pointer-events="visiblePainted" fill="#08427b" style="fill: rgb(8, 66, 123); stroke: rgb(7, 59, 111);"></circle><line  x1="80" y1="266.6666666666667" x2="80" y2="400" id="v-44" stroke="#073b6f" stroke-width="2" style="stroke: rgb(7, 59, 111);"></line><line  x1="320" y1="266.6666666666667" x2="320" y2="400" id="v-45" stroke="#073b6f" stroke-width="2" style="stroke: rgb(7, 59, 111);"></line><text  id="v-39" font-size="34" xml:space="preserve" y="0.8em" font-weight="bold" text-anchor="middle" pointer-events="visible" font-family="Arial" fill="#ffffff" transform="matrix(1,0,0,1,200,211.1)" style="fill: rgb(255, 255, 255);"><tspan dy="0" >Авторизированный</tspan><tspan dy="1.2em" x="0" >пользователь</tspan><tspan dy="1.2em" x="0" >(получатель)</tspan></text><text  id="v-40" font-size="17" xml:space="preserve" y="0.8em" text-anchor="middle" font-family="Arial" fill="#ffffff" transform="matrix(1,0,0,1,200,333.5)" style="fill: rgb(255, 255, 255);"><tspan dy="0" >[Person]</tspan></text><text  id="v-41" font-size="24" xml:space="preserve" display="none" y="0.8em" text-anchor="middle" font-family="Arial" fill="#ffffff" transform="matrix(1,0,0,1,200,353.9)" style="fill: rgb(255, 255, 255);"><tspan dy="0" style="fill-opacity: 0; stroke-opacity: 0;" >-</tspan></text><g  id="v-42" font-weight="normal" text-anchor="middle" color="#ffffff" transform="matrix(1,0,0,1,200,368)" display="none" style="fill: rgb(255, 255, 255);"><g ></g><g ></g><g ></g><g ></g></g><image  id="v-43"></image></g></g><!--z-index:24--><g   id="j_6"  transform="translate(208,1408)" style=""><g  id="v-49" style="opacity: 1;"><rect  x="0" y="160" width="400" height="240" rx="70" id="v-51" stroke="#073b6f" stroke-width="2" pointer-events="visiblePainted" fill="#08427b" style="fill: rgb(8, 66, 123); stroke: rgb(7, 59, 111);"></rect><circle  cx="200" cy="88.88888888888889" r="88.88888888888889" id="v-50" stroke="#073b6f" stroke-width="2" pointer-events="visiblePainted" fill="#08427b" style="fill: rgb(8, 66, 123); stroke: rgb(7, 59, 111);"></circle><line  x1="80" y1="266.6666666666667" x2="80" y2="400" id="v-57" stroke="#073b6f" stroke-width="2" style="stroke: rgb(7, 59, 111);"></line><line  x1="320" y1="266.6666666666667" x2="320" y2="400" id="v-58" stroke="#073b6f" stroke-width="2" style="stroke: rgb(7, 59, 111);"></line><text  id="v-52" font-size="34" xml:space="preserve" y="0.8em" font-weight="bold" text-anchor="middle" pointer-events="visible" font-family="Arial" fill="#ffffff" transform="matrix(1,0,0,1,200,211.1)" style="fill: rgb(255, 255, 255);"><tspan dy="0" >Сотрудник</tspan><tspan dy="1.2em" x="0" >технической</tspan><tspan dy="1.2em" x="0" >поддержки</tspan></text><text  id="v-53" font-size="17" xml:space="preserve" y="0.8em" text-anchor="middle" font-family="Arial" fill="#ffffff" transform="matrix(1,0,0,1,200,333.5)" style="fill: rgb(255, 255, 255);"><tspan dy="0" >[Person]</tspan></text><text  id="v-54" font-size="24" xml:space="preserve" display="none" y="0.8em" text-anchor="middle" font-family="Arial" fill="#ffffff" transform="matrix(1,0,0,1,200,353.9)" style="fill: rgb(255, 255, 255);"><tspan dy="0" style="fill-opacity: 0; stroke-opacity: 0;" >-</tspan></text><g  id="v-55" font-weight="normal" text-anchor="middle" color="#ffffff" transform="matrix(1,0,0,1,200,368)" display="none" style="fill: rgb(255, 255, 255);"><g ></g><g ></g><g ></g><g ></g></g><image  id="v-56"></image></g></g><!--z-index:25--><g   id="j_7"  transform="translate(958,812)" style=""><g  id="v-59" style="opacity: 1;"><rect  id="v-60" rx="20" ry="20" stroke="#0f5eaa" stroke-width="2" pointer-events="visiblePainted" fill="#1168bd" width="450" height="300" style="fill: rgb(17, 104, 189); stroke: rgb(15, 94, 170);"></rect><text  id="v-61" font-size="34" xml:space="preserve" y="0.8em" font-weight="bold" text-anchor="middle" pointer-events="visible" font-family="Arial" fill="#ffffff" transform="matrix(1,0,0,1,225,121.9)" style="fill: rgb(255, 255, 255);"><tspan dy="0" >Social network</tspan></text><text  id="v-62" font-size="17" xml:space="preserve" y="0.8em" text-anchor="middle" font-family="Arial" fill="#ffffff" transform="matrix(1,0,0,1,225,162.7)" style="fill: rgb(255, 255, 255);"><tspan dy="0" >[Software System]</tspan></text><text  id="v-63" font-size="24" xml:space="preserve" display="none" y="0.8em" text-anchor="middle" font-family="Arial" fill="#ffffff" transform="matrix(1,0,0,1,225,183.1)" style="fill: rgb(255, 255, 255);"><tspan dy="0" style="fill-opacity: 0; stroke-opacity: 0;" >-</tspan></text><g  id="v-64" color="#ffffff" transform="matrix(1,0,0,1,0,268)" display="none" style="fill: rgb(255, 255, 255);"><g ></g><g ></g><g ></g><g ></g></g><image  id="v-65"></image></g></g><!--z-index:26--><g   id="j_8"  transform="translate(1708,208)" style=""><g  id="v-69" style="opacity: 1;"><rect  id="v-70" rx="20" ry="20" stroke="#a8a8a8" stroke-width="2" pointer-events="visiblePainted" fill="#bbbbbb" width="450" height="300" stroke-dasharray="10,10" style="fill: rgb(187, 187, 187); stroke: rgb(168, 168, 168);"></rect><text  id="v-71" font-size="34" xml:space="preserve" y="0.8em" font-weight="bold" text-anchor="middle" pointer-events="visible" font-family="Arial" fill="#555555" transform="matrix(1,0,0,1,225,102.5)" style="fill: rgb(85, 85, 85);"><tspan dy="0" >Email-сервис</tspan></text><text  id="v-72" font-size="17" xml:space="preserve" y="0.8em" text-anchor="middle" font-family="Arial" fill="#555555" transform="matrix(1,0,0,1,225,143.3)" style="fill: rgb(85, 85, 85);"><tspan dy="0" >[Software System]</tspan></text><text  id="v-73" font-size="24" xml:space="preserve" y="0.8em" text-anchor="middle" font-family="Arial" fill="#555555" transform="matrix(1,0,0,1,225,173.7)" style="fill: rgb(85, 85, 85);"><tspan dy="0" >Отправляет email-уведомления</tspan></text><g  id="v-74" color="#555555" transform="matrix(1,0,0,1,0,268)" display="none" style="fill: rgb(85, 85, 85);"><g ></g><g ></g><g ></g><g ></g></g><image  id="v-75"></image></g></g><!--z-index:27--><g   id="j_9"  transform="translate(1708,1417)" style=""><g  id="v-79" style="opacity: 1;"><rect  id="v-80" rx="20" ry="20" stroke="#a8a8a8" stroke-width="2" pointer-events="visiblePainted" fill="#bbbbbb" width="450" height="300" stroke-dasharray="10,10" style="fill: rgb(187, 187, 187); stroke: rgb(168, 168, 168);"></rect><text  id="v-81" font-size="34" xml:space="preserve" y="0.8em" font-weight="bold" text-anchor="middle" pointer-events="visible" font-family="Arial" fill="#555555" transform="matrix(1,0,0,1,225,88.1)" style="fill: rgb(85, 85, 85);"><tspan dy="0" >Push-сервис</tspan></text><text  id="v-82" font-size="17" xml:space="preserve" y="0.8em" text-anchor="middle" font-family="Arial" fill="#555555" transform="matrix(1,0,0,1,225,128.9)" style="fill: rgb(85, 85, 85);"><tspan dy="0" >[Software System]</tspan></text><text  id="v-83" font-size="24" xml:space="preserve" y="0.8em" text-anchor="middle" font-family="Arial" fill="#555555" transform="matrix(1,0,0,1,225,159.3)" style="fill: rgb(85, 85, 85);"><tspan dy="0" >Отправляет push-уведомления на</tspan><tspan dy="1.2em" x="0" >устройства</tspan></text><g  id="v-84" color="#555555" transform="matrix(1,0,0,1,0,268)" display="none" style="fill: rgb(85, 85, 85);"><g ></g><g ></g><g ></g><g ></g></g><image  id="v-85"></image></g></g><!--z-index:28--><g   id="j_10"  transform="translate(1708,2017)" style=""><g  id="v-89" style="opacity: 1;"><rect  id="v-90" rx="20" ry="20" stroke="#a8a8a8" stroke-width="2" pointer-events="visiblePainted" fill="#bbbbbb" width="450" height="300" stroke-dasharray="10,10" style="fill: rgb(187, 187, 187); stroke: rgb(168, 168, 168);"></rect><text  id="v-91" font-size="34" xml:space="preserve" y="0.8em" font-weight="bold" text-anchor="middle" pointer-events="visible" font-family="Arial" fill="#555555" transform="matrix(1,0,0,1,225,102.5)" style="fill: rgb(85, 85, 85);"><tspan dy="0" >Реклама</tspan></text><text  id="v-92" font-size="17" xml:space="preserve" y="0.8em" text-anchor="middle" font-family="Arial" fill="#555555" transform="matrix(1,0,0,1,225,143.3)" style="fill: rgb(85, 85, 85);"><tspan dy="0" >[Software System]</tspan></text><text  id="v-93" font-size="24" xml:space="preserve" y="0.8em" text-anchor="middle" font-family="Arial" fill="#555555" transform="matrix(1,0,0,1,225,173.7)" style="fill: rgb(85, 85, 85);"><tspan dy="0" >Система таргетированной рекламы</tspan></text><g  id="v-94" color="#555555" transform="matrix(1,0,0,1,0,268)" display="none" style="fill: rgb(85, 85, 85);"><g ></g><g ></g><g ></g><g ></g></g><image  id="v-95"></image></g></g><!--z-index:29--><g   id="j_11" ><path  stroke="#707070" d="M 1708 365 L 608 401" id="v-108" stroke-width="2" stroke-dasharray="30 30" fill="none" style="opacity: 1;"></path><path  fill="black" stroke="black" d="M 0 0 0 0" transform="matrix(-0.9994629393363432,0.03276938957559338,-0.03276938957559338,-0.9994629393363432,1708,365.3770446777344)"></path><path  fill="#707070" stroke="#707070" d="M 20 0 L 0 10 L 20 20 z" id="v-110" transform="matrix(0.9994629480633241,-0.03276912340251108,0.03276912340251108,0.9994629480633241,607.6723081915917,391.4479909526106)" style="opacity: 1;"></path><path  d="M 1708 365 L 608 401" id="v-109" fill="none" style="pointer-events: visiblepainted; cursor: auto;"></path><g ><g id="v-102"  label-idx="0" cursor="move" transform="matrix(1,0,0,1,1158,383)" style="opacity: 1;"><rect joint-selector="rect" id="v-105" fill="#ffffff" rx="3" ry="3" pointer-events="none" width="131.9592742919922" height="57.54538345336914" transform="matrix(1,0,0,1,-66,-28.8)"></rect><text joint-selector="text" id="v-104" font-size="24px" xml:space="preserve" y="0.8em" fill="#707070" text-anchor="middle" pointer-events="none" font-family="Arial" font-weight="normal" transform="matrix(1,0,0,1,0,-25)"><tspan dy="0" >Отправляет</tspan><tspan dy="1.2em" x="0" >сообщение</tspan></text></g><g id="v-103"  label-idx="1" cursor="move" transform="matrix(1,0,0,1,1148,423.79998779296875)" style="opacity: 1;"><rect joint-selector="rect" id="v-107" fill="#ffffff" rx="3" ry="3"  width="0" height="0" transform="matrix(1,0,0,1,0,0)" display="none"></rect><text joint-selector="text" id="v-106" fill="#000000" font-size="14" text-anchor="middle" pointer-events="none"></text></g></g><g  display="none" style="display: none;"></g><g  id="v-112" display="none"><g  id="v-100"><path  end="source" d="M 26 0 L 0 13 L 26 26 z"></path></g><g  id="v-101"><path  end="target" d="M 26 0 L 0 13 L 26 26 z"></path></g></g><g  id="v-111" display="none"><g  id="v-99" transform="translate(1668.0214042949433, 366.3083904048928) "><g  event="remove"><circle r="11"></circle><path transform="scale(.8) translate(-16, -16)" d="M24.778,21.419 19.276,15.917 24.777,10.415 21.949,7.585 16.447,13.087 10.945,7.585 8.117,10.415 13.618,15.917 8.116,21.419 10.946,24.248 16.447,18.746 21.948,24.248z"></path><title>Remove link.</title></g><g  event="link:options"><circle r="11" transform="translate(25)"></circle><path fill="white" transform="scale(.55) translate(29, -16)" d="M31.229,17.736c0.064-0.571,0.104-1.148,0.104-1.736s-0.04-1.166-0.104-1.737l-4.377-1.557c-0.218-0.716-0.504-1.401-0.851-2.05l1.993-4.192c-0.725-0.91-1.549-1.734-2.458-2.459l-4.193,1.994c-0.647-0.347-1.334-0.632-2.049-0.849l-1.558-4.378C17.165,0.708,16.588,0.667,16,0.667s-1.166,0.041-1.737,0.105L12.707,5.15c-0.716,0.217-1.401,0.502-2.05,0.849L6.464,4.005C5.554,4.73,4.73,5.554,4.005,6.464l1.994,4.192c-0.347,0.648-0.632,1.334-0.849,2.05l-4.378,1.557C0.708,14.834,0.667,15.412,0.667,16s0.041,1.165,0.105,1.736l4.378,1.558c0.217,0.715,0.502,1.401,0.849,2.049l-1.994,4.193c0.725,0.909,1.549,1.733,2.459,2.458l4.192-1.993c0.648,0.347,1.334,0.633,2.05,0.851l1.557,4.377c0.571,0.064,1.148,0.104,1.737,0.104c0.588,0,1.165-0.04,1.736-0.104l1.558-4.377c0.715-0.218,1.399-0.504,2.049-0.851l4.193,1.993c0.909-0.725,1.733-1.549,2.458-2.458l-1.993-4.193c0.347-0.647,0.633-1.334,0.851-2.049L31.229,17.736zM16,20.871c-2.69,0-4.872-2.182-4.872-4.871c0-2.69,2.182-4.872,4.872-4.872c2.689,0,4.871,2.182,4.871,4.872C20.871,18.689,18.689,20.871,16,20.871z"></path><title>Link options.</title></g></g></g></g><!--z-index:30--><g   id="j_12" ><path  stroke="#707070" d="M 2158 1489 L 2458 1386" id="v-125" stroke-width="2" stroke-dasharray="30 30" fill="none" style="opacity: 1;"></path><path  fill="black" stroke="black" d="M 0 0 0 0" transform="matrix(0.9453729918079541,-0.3259906537925252,0.3259906537925252,0.9453729918079541,2158,1489.413818359375)"></path><path  fill="#707070" stroke="#707070" d="M 20 0 L 0 10 L 20 20 z" id="v-127" transform="matrix(-0.9453729918079542,0.3259906537925246,-0.3259906537925246,-0.9453729918079542,2461.2600231747547,1395.4192872473418)" style="opacity: 1;"></path><path  d="M 2158 1489 L 2458 1386" id="v-126" fill="none" style="pointer-events: visiblepainted; cursor: auto;"></path><g ><g id="v-119"  label-idx="0" cursor="move" transform="matrix(1,0,0,1,2308,1437.5)" style="opacity: 1;"><rect joint-selector="rect" id="v-122" fill="#ffffff" rx="3" ry="3" pointer-events="none" width="148.35313415527344" height="57.54538345336914" transform="matrix(1,0,0,1,-74.2,-28.8)"></rect><text joint-selector="text" id="v-121" font-size="24px" xml:space="preserve" y="0.8em" fill="#707070" text-anchor="middle" pointer-events="none" font-family="Arial" font-weight="normal" transform="matrix(1,0,0,1,0,-25)"><tspan dy="0" >Отправляет</tspan><tspan dy="1.2em" x="0" >уведомление</tspan></text></g><g id="v-120"  label-idx="1" cursor="move" transform="matrix(1,0,0,1,2298,1478.300048828125)" style="opacity: 1;"><rect joint-selector="rect" id="v-124" fill="#ffffff" rx="3" ry="3"  width="0" height="0" transform="matrix(1,0,0,1,0,0)" display="none"></rect><text joint-selector="text" id="v-123" fill="#000000" font-size="14" text-anchor="middle" pointer-events="none"></text></g></g><g  display="none" style="display: none;"></g><g  id="v-129" display="none"><g  id="v-117"><path  end="source" d="M 26 0 L 0 13 L 26 26 z"></path></g><g  id="v-118"><path  end="target" d="M 26 0 L 0 13 L 26 26 z"></path></g></g><g  id="v-128" display="none"><g  id="v-116" transform="translate(2195.832307404981, 1476.0109077909565) "><g  event="remove"><circle r="11"></circle><path transform="scale(.8) translate(-16, -16)" d="M24.778,21.419 19.276,15.917 24.777,10.415 21.949,7.585 16.447,13.087 10.945,7.585 8.117,10.415 13.618,15.917 8.116,21.419 10.946,24.248 16.447,18.746 21.948,24.248z"></path><title>Remove link.</title></g><g  event="link:options"><circle r="11" transform="translate(25)"></circle><path fill="white" transform="scale(.55) translate(29, -16)" d="M31.229,17.736c0.064-0.571,0.104-1.148,0.104-1.736s-0.04-1.166-0.104-1.737l-4.377-1.557c-0.218-0.716-0.504-1.401-0.851-2.05l1.993-4.192c-0.725-0.91-1.549-1.734-2.458-2.459l-4.193,1.994c-0.647-0.347-1.334-0.632-2.049-0.849l-1.558-4.378C17.165,0.708,16.588,0.667,16,0.667s-1.166,0.041-1.737,0.105L12.707,5.15c-0.716,0.217-1.401,0.502-2.05,0.849L6.464,4.005C5.554,4.73,4.73,5.554,4.005,6.464l1.994,4.192c-0.347,0.648-0.632,1.334-0.849,2.05l-4.378,1.557C0.708,14.834,0.667,15.412,0.667,16s0.041,1.165,0.105,1.736l4.378,1.558c0.217,0.715,0.502,1.401,0.849,2.049l-1.994,4.193c0.725,0.909,1.549,1.733,2.459,2.458l4.192-1.993c0.648,0.347,1.334,0.633,2.05,0.851l1.557,4.377c0.571,0.064,1.148,0.104,1.737,0.104c0.588,0,1.165-0.04,1.736-0.104l1.558-4.377c0.715-0.218,1.399-0.504,2.049-0.851l4.193,1.993c0.909-0.725,1.733-1.549,2.458-2.458l-1.993-4.193c0.347-0.647,0.633-1.334,0.851-2.049L31.229,17.736zM16,20.871c-2.69,0-4.872-2.182-4.872-4.871c0-2.69,2.182-4.872,4.872-4.872c2.689,0,4.871,2.182,4.871,4.872C20.871,18.689,18.689,20.871,16,20.871z"></path><title>Link options.</title></g></g></g></g><!--z-index:31--><g   id="j_13" ><path  stroke="#707070" d="M 608 551 L 973 812" id="v-142" stroke-width="2" stroke-dasharray="30 30" fill="none" style="opacity: 1;"></path><path  fill="black" stroke="black" d="M 0 0 0 0" transform="matrix(0.8135206538608624,0.5815360227378825,-0.5815360227378825,0.8135206538608624,608,550.9677124023438)"></path><path  fill="#707070" stroke="#707070" d="M 20 0 L 0 10 L 20 20 z" id="v-144" transform="matrix(-0.8135206151427579,-0.5815360769012949,0.5815360769012949,-0.8135206151427579,967.3470670621022,820.1351982680968)" style="opacity: 1;"></path><path  d="M 608 551 L 973 812" id="v-143" fill="none" style="pointer-events: visiblepainted; cursor: auto;"></path><g ><g id="v-136"  label-idx="0" cursor="move" transform="matrix(1,0,0,1,790.5,681.5)" style="opacity: 1;"><rect joint-selector="rect" id="v-139" fill="#ffffff" rx="3" ry="3" pointer-events="none" width="189.49496459960938" height="143.94538116455078" transform="matrix(1,0,0,1,-94.7,-72)"></rect><text joint-selector="text" id="v-138" font-size="24px" xml:space="preserve" y="0.8em" fill="#707070" text-anchor="middle" pointer-events="none" font-family="Arial" font-weight="normal" transform="matrix(1,0,0,1,0,-68.2)"><tspan dy="0" >Регистрация,</tspan><tspan dy="1.2em" x="0" >авторизация,</tspan><tspan dy="1.2em" x="0" >просмотр</tspan><tspan dy="1.2em" x="0" >публичных</tspan><tspan dy="1.2em" x="0" >профилей и стен</tspan></text></g><g id="v-137"  label-idx="1" cursor="move" transform="matrix(1,0,0,1,780.5,765.5)" style="opacity: 1;"><rect joint-selector="rect" id="v-141" fill="#ffffff" rx="3" ry="3"  width="0" height="0" transform="matrix(1,0,0,1,0,0)" display="none"></rect><text joint-selector="text" id="v-140" fill="#000000" font-size="14" text-anchor="middle" pointer-events="none"></text></g></g><g  display="none" style="display: none;"></g><g  id="v-146" display="none"><g  id="v-134"><path  end="source" d="M 26 0 L 0 13 L 26 26 z"></path></g><g  id="v-135"><path  end="target" d="M 26 0 L 0 13 L 26 26 z"></path></g></g><g  id="v-145" display="none"><g  id="v-133" transform="translate(640.5372880932966, 574.2663895680834) "><g  event="remove"><circle r="11"></circle><path transform="scale(.8) translate(-16, -16)" d="M24.778,21.419 19.276,15.917 24.777,10.415 21.949,7.585 16.447,13.087 10.945,7.585 8.117,10.415 13.618,15.917 8.116,21.419 10.946,24.248 16.447,18.746 21.948,24.248z"></path><title>Remove link.</title></g><g  event="link:options"><circle r="11" transform="translate(25)"></circle><path fill="white" transform="scale(.55) translate(29, -16)" d="M31.229,17.736c0.064-0.571,0.104-1.148,0.104-1.736s-0.04-1.166-0.104-1.737l-4.377-1.557c-0.218-0.716-0.504-1.401-0.851-2.05l1.993-4.192c-0.725-0.91-1.549-1.734-2.458-2.459l-4.193,1.994c-0.647-0.347-1.334-0.632-2.049-0.849l-1.558-4.378C17.165,0.708,16.588,0.667,16,0.667s-1.166,0.041-1.737,0.105L12.707,5.15c-0.716,0.217-1.401,0.502-2.05,0.849L6.464,4.005C5.554,4.73,4.73,5.554,4.005,6.464l1.994,4.192c-0.347,0.648-0.632,1.334-0.849,2.05l-4.378,1.557C0.708,14.834,0.667,15.412,0.667,16s0.041,1.165,0.105,1.736l4.378,1.558c0.217,0.715,0.502,1.401,0.849,2.049l-1.994,4.193c0.725,0.909,1.549,1.733,2.459,2.458l4.192-1.993c0.648,0.347,1.334,0.633,2.05,0.851l1.557,4.377c0.571,0.064,1.148,0.104,1.737,0.104c0.588,0,1.165-0.04,1.736-0.104l1.558-4.377c0.715-0.218,1.399-0.504,2.049-0.851l4.193,1.993c0.909-0.725,1.733-1.549,2.458-2.458l-1.993-4.193c0.347-0.647,0.633-1.334,0.851-2.049L31.229,17.736zM16,20.871c-2.69,0-4.872-2.182-4.872-4.871c0-2.69,2.182-4.872,4.872-4.872c2.689,0,4.871,2.182,4.871,4.872C20.871,18.689,18.689,20.871,16,20.871z"></path><title>Link options.</title></g></g></g></g><!--z-index:32--><g   id="j_14" ><path  stroke="#707070" d="M 608 996 L 958 975" id="v-159" stroke-width="2" stroke-dasharray="30 30" fill="none" style="opacity: 1;"></path><path  fill="black" stroke="black" d="M 0 0 0 0" transform="matrix(0.9982431494653369,-0.059250439201116105,0.059250439201116105,0.9982431494653369,608,996.1290283203125)"></path><path  fill="#707070" stroke="#707070" d="M 20 0 L 0 10 L 20 20 z" id="v-161" transform="matrix(-0.9982431494653369,0.059250439201116424,-0.059250439201116424,-0.9982431494653369,958.5925140116645,985.3372537627985)" style="opacity: 1;"></path><path  d="M 608 996 L 958 975" id="v-160" fill="none" style="pointer-events: visiblepainted; cursor: auto;"></path><g ><g id="v-153"  label-idx="0" cursor="move" transform="matrix(1,0,0,1,783,985.5)" style="opacity: 1;"><rect joint-selector="rect" id="v-156" fill="#ffffff" rx="3" ry="3" pointer-events="none" width="202.87953186035156" height="115.14538955688477" transform="matrix(1,0,0,1,-101.4,-57.6)"></rect><text joint-selector="text" id="v-155" font-size="24px" xml:space="preserve" y="0.8em" fill="#707070" text-anchor="middle" pointer-events="none" font-family="Arial" font-weight="normal" transform="matrix(1,0,0,1,0,-53.8)"><tspan dy="0" >Пишет на стену,</tspan><tspan dy="1.2em" x="0" >отправляет</tspan><tspan dy="1.2em" x="0" >сообщения, видит</tspan><tspan dy="1.2em" x="0" >контент</tspan></text></g><g id="v-154"  label-idx="1" cursor="move" transform="matrix(1,0,0,1,773,1055.0999755859375)" style="opacity: 1;"><rect joint-selector="rect" id="v-158" fill="#ffffff" rx="3" ry="3"  width="0" height="0" transform="matrix(1,0,0,1,0,0)" display="none"></rect><text joint-selector="text" id="v-157" fill="#000000" font-size="14" text-anchor="middle" pointer-events="none"></text></g></g><g  display="none" style="display: none;"></g><g  id="v-163" display="none"><g  id="v-151"><path  end="source" d="M 26 0 L 0 13 L 26 26 z"></path></g><g  id="v-152"><path  end="target" d="M 26 0 L 0 13 L 26 26 z"></path></g></g><g  id="v-162" display="none"><g  id="v-150" transform="translate(647.9281938186311, 993.6043083708821) "><g  event="remove"><circle r="11"></circle><path transform="scale(.8) translate(-16, -16)" d="M24.778,21.419 19.276,15.917 24.777,10.415 21.949,7.585 16.447,13.087 10.945,7.585 8.117,10.415 13.618,15.917 8.116,21.419 10.946,24.248 16.447,18.746 21.948,24.248z"></path><title>Remove link.</title></g><g  event="link:options"><circle r="11" transform="translate(25)"></circle><path fill="white" transform="scale(.55) translate(29, -16)" d="M31.229,17.736c0.064-0.571,0.104-1.148,0.104-1.736s-0.04-1.166-0.104-1.737l-4.377-1.557c-0.218-0.716-0.504-1.401-0.851-2.05l1.993-4.192c-0.725-0.91-1.549-1.734-2.458-2.459l-4.193,1.994c-0.647-0.347-1.334-0.632-2.049-0.849l-1.558-4.378C17.165,0.708,16.588,0.667,16,0.667s-1.166,0.041-1.737,0.105L12.707,5.15c-0.716,0.217-1.401,0.502-2.05,0.849L6.464,4.005C5.554,4.73,4.73,5.554,4.005,6.464l1.994,4.192c-0.347,0.648-0.632,1.334-0.849,2.05l-4.378,1.557C0.708,14.834,0.667,15.412,0.667,16s0.041,1.165,0.105,1.736l4.378,1.558c0.217,0.715,0.502,1.401,0.849,2.049l-1.994,4.193c0.725,0.909,1.549,1.733,2.459,2.458l4.192-1.993c0.648,0.347,1.334,0.633,2.05,0.851l1.557,4.377c0.571,0.064,1.148,0.104,1.737,0.104c0.588,0,1.165-0.04,1.736-0.104l1.558-4.377c0.715-0.218,1.399-0.504,2.049-0.851l4.193,1.993c0.909-0.725,1.733-1.549,2.458-2.458l-1.993-4.193c0.347-0.647,0.633-1.334,0.851-2.049L31.229,17.736zM16,20.871c-2.69,0-4.872-2.182-4.872-4.871c0-2.69,2.182-4.872,4.872-4.872c2.689,0,4.871,2.182,4.871,4.872C20.871,18.689,18.689,20.871,16,20.871z"></path><title>Link options.</title></g></g></g></g><!--z-index:33--><g   id="j_15" ><path  stroke="#707070" d="M 2458 1269 L 1408 1016" id="v-176" stroke-width="2" stroke-dasharray="30 30" fill="none" style="opacity: 1;"></path><path  fill="black" stroke="black" d="M 0 0 0 0" transform="matrix(-0.9722375282572397,-0.2339961295582749,0.2339961295582749,-0.9722375282572397,2458,1268.8643798828125)"></path><path  fill="#707070" stroke="#707070" d="M 20 0 L 0 10 L 20 20 z" id="v-178" transform="matrix(0.9722375243624309,0.2339961457409321,-0.2339961457409321,0.9722375243624309,1410.33999832316,1006.4301559747477)" style="opacity: 1;"></path><path  d="M 2458 1269 L 1408 1016" id="v-177" fill="none" style="pointer-events: visiblepainted; cursor: auto;"></path><g ><g id="v-170"  label-idx="0" cursor="move" transform="matrix(1,0,0,1,1933,1142.5)" style="opacity: 1;"><rect joint-selector="rect" id="v-173" fill="#ffffff" rx="3" ry="3" pointer-events="none" width="202.87953186035156" height="86.34539413452148" transform="matrix(1,0,0,1,-101.4,-43.2)"></rect><text joint-selector="text" id="v-172" font-size="24px" xml:space="preserve" y="0.8em" fill="#707070" text-anchor="middle" pointer-events="none" font-family="Arial" font-weight="normal" transform="matrix(1,0,0,1,0,-39.4)"><tspan dy="0" >Получает</tspan><tspan dy="1.2em" x="0" >сообщения, видит</tspan><tspan dy="1.2em" x="0" >контент</tspan></text></g><g id="v-171"  label-idx="1" cursor="move" transform="matrix(1,0,0,1,1923,1197.699951171875)" style="opacity: 1;"><rect joint-selector="rect" id="v-175" fill="#ffffff" rx="3" ry="3"  width="0" height="0" transform="matrix(1,0,0,1,0,0)" display="none"></rect><text joint-selector="text" id="v-174" fill="#000000" font-size="14" text-anchor="middle" pointer-events="none"></text></g></g><g  display="none" style="display: none;"></g><g  id="v-180" display="none"><g  id="v-168"><path  end="source" d="M 26 0 L 0 13 L 26 26 z"></path></g><g  id="v-169"><path  end="target" d="M 26 0 L 0 13 L 26 26 z"></path></g></g><g  id="v-179" display="none"><g  id="v-167" transform="translate(2419.112928065766, 1259.63006742918) "><g  event="remove"><circle r="11"></circle><path transform="scale(.8) translate(-16, -16)" d="M24.778,21.419 19.276,15.917 24.777,10.415 21.949,7.585 16.447,13.087 10.945,7.585 8.117,10.415 13.618,15.917 8.116,21.419 10.946,24.248 16.447,18.746 21.948,24.248z"></path><title>Remove link.</title></g><g  event="link:options"><circle r="11" transform="translate(25)"></circle><path fill="white" transform="scale(.55) translate(29, -16)" d="M31.229,17.736c0.064-0.571,0.104-1.148,0.104-1.736s-0.04-1.166-0.104-1.737l-4.377-1.557c-0.218-0.716-0.504-1.401-0.851-2.05l1.993-4.192c-0.725-0.91-1.549-1.734-2.458-2.459l-4.193,1.994c-0.647-0.347-1.334-0.632-2.049-0.849l-1.558-4.378C17.165,0.708,16.588,0.667,16,0.667s-1.166,0.041-1.737,0.105L12.707,5.15c-0.716,0.217-1.401,0.502-2.05,0.849L6.464,4.005C5.554,4.73,4.73,5.554,4.005,6.464l1.994,4.192c-0.347,0.648-0.632,1.334-0.849,2.05l-4.378,1.557C0.708,14.834,0.667,15.412,0.667,16s0.041,1.165,0.105,1.736l4.378,1.558c0.217,0.715,0.502,1.401,0.849,2.049l-1.994,4.193c0.725,0.909,1.549,1.733,2.459,2.458l4.192-1.993c0.648,0.347,1.334,0.633,2.05,0.851l1.557,4.377c0.571,0.064,1.148,0.104,1.737,0.104c0.588,0,1.165-0.04,1.736-0.104l1.558-4.377c0.715-0.218,1.399-0.504,2.049-0.851l4.193,1.993c0.909-0.725,1.733-1.549,2.458-2.458l-1.993-4.193c0.347-0.647,0.633-1.334,0.851-2.049L31.229,17.736zM16,20.871c-2.69,0-4.872-2.182-4.872-4.871c0-2.69,2.182-4.872,4.872-4.872c2.689,0,4.871,2.182,4.871,4.872C20.871,18.689,18.689,20.871,16,20.871z"></path><title>Link options.</title></g></g></g></g><!--z-index:34--><g   id="j_16" ><path  stroke="#707070" d="M 608 1441 L 1003 1112" id="v-193" stroke-width="2" stroke-dasharray="30 30" fill="none" style="opacity: 1;"></path><path  fill="black" stroke="black" d="M 0 0 0 0" transform="matrix(0.7681401036692906,-0.6402817982224166,0.6402817982224166,0.7681401036692906,608,1441.290283203125)"></path><path  fill="#707070" stroke="#707070" d="M 20 0 L 0 10 L 20 20 z" id="v-195" transform="matrix(-0.7681401036692904,0.6402817982224168,-0.6402817982224168,-0.7681401036692904,1009.4492702884484,1119.6814150857188)" style="opacity: 1;"></path><path  d="M 608 1441 L 1003 1112" id="v-194" fill="none" style="pointer-events: visiblepainted; cursor: auto;"></path><g ><g id="v-187"  label-idx="0" cursor="move" transform="matrix(1,0,0,1,805.5,1276.5)" style="opacity: 1;"><rect joint-selector="rect" id="v-190" fill="#ffffff" rx="3" ry="3" pointer-events="none" width="185.63230895996094" height="172.74536895751953" transform="matrix(1,0,0,1,-92.8,-86.4)"></rect><text joint-selector="text" id="v-189" font-size="24px" xml:space="preserve" y="0.8em" fill="#707070" text-anchor="middle" pointer-events="none" font-family="Arial" font-weight="normal" transform="matrix(1,0,0,1,0,-82.6)"><tspan dy="0" >Модерация</tspan><tspan dy="1.2em" x="0" >пользователей и</tspan><tspan dy="1.2em" x="0" >контента,</tspan><tspan dy="1.2em" x="0" >работает с</tspan><tspan dy="1.2em" x="0" >обращениями и</tspan><tspan dy="1.2em" x="0" >тикетами</tspan></text></g><g id="v-188"  label-idx="1" cursor="move" transform="matrix(1,0,0,1,795.5,1374.9000244140625)" style="opacity: 1;"><rect joint-selector="rect" id="v-192" fill="#ffffff" rx="3" ry="3"  width="0" height="0" transform="matrix(1,0,0,1,0,0)" display="none"></rect><text joint-selector="text" id="v-191" fill="#000000" font-size="14" text-anchor="middle" pointer-events="none"></text></g></g><g  display="none" style="display: none;"></g><g  id="v-197" display="none"><g  id="v-185"><path  end="source" d="M 26 0 L 0 13 L 26 26 z"></path></g><g  id="v-186"><path  end="target" d="M 26 0 L 0 13 L 26 26 z"></path></g></g><g  id="v-196" display="none"><g  id="v-184" transform="translate(638.7352281573537, 1415.4002783195713) "><g  event="remove"><circle r="11"></circle><path transform="scale(.8) translate(-16, -16)" d="M24.778,21.419 19.276,15.917 24.777,10.415 21.949,7.585 16.447,13.087 10.945,7.585 8.117,10.415 13.618,15.917 8.116,21.419 10.946,24.248 16.447,18.746 21.948,24.248z"></path><title>Remove link.</title></g><g  event="link:options"><circle r="11" transform="translate(25)"></circle><path fill="white" transform="scale(.55) translate(29, -16)" d="M31.229,17.736c0.064-0.571,0.104-1.148,0.104-1.736s-0.04-1.166-0.104-1.737l-4.377-1.557c-0.218-0.716-0.504-1.401-0.851-2.05l1.993-4.192c-0.725-0.91-1.549-1.734-2.458-2.459l-4.193,1.994c-0.647-0.347-1.334-0.632-2.049-0.849l-1.558-4.378C17.165,0.708,16.588,0.667,16,0.667s-1.166,0.041-1.737,0.105L12.707,5.15c-0.716,0.217-1.401,0.502-2.05,0.849L6.464,4.005C5.554,4.73,4.73,5.554,4.005,6.464l1.994,4.192c-0.347,0.648-0.632,1.334-0.849,2.05l-4.378,1.557C0.708,14.834,0.667,15.412,0.667,16s0.041,1.165,0.105,1.736l4.378,1.558c0.217,0.715,0.502,1.401,0.849,2.049l-1.994,4.193c0.725,0.909,1.549,1.733,2.459,2.458l4.192-1.993c0.648,0.347,1.334,0.633,2.05,0.851l1.557,4.377c0.571,0.064,1.148,0.104,1.737,0.104c0.588,0,1.165-0.04,1.736-0.104l1.558-4.377c0.715-0.218,1.399-0.504,2.049-0.851l4.193,1.993c0.909-0.725,1.733-1.549,2.458-2.458l-1.993-4.193c0.347-0.647,0.633-1.334,0.851-2.049L31.229,17.736zM16,20.871c-2.69,0-4.872-2.182-4.872-4.871c0-2.69,2.182-4.872,4.872-4.872c2.689,0,4.871,2.182,4.871,4.872C20.871,18.689,18.689,20.871,16,20.871z"></path><title>Link options.</title></g></g></g></g><!--z-index:35--><g   id="j_17" ><path  stroke="#707070" d="M 1369 812 L 1747 508" id="v-213" stroke-width="2" stroke-dasharray="30 30" fill="none" style="opacity: 1;"></path><path  fill="black" stroke="black" d="M 0 0 0 0" transform="matrix(0.7788385621389456,-0.6272244368049923,0.6272244368049923,0.7788385621389456,1369.25830078125,812)"></path><path  fill="#707070" stroke="#707070" d="M 20 0 L 0 10 L 20 20 z" id="v-215" transform="matrix(-0.7788383950989465,0.6272246442222255,-0.6272246442222255,-0.7788383950989465,1753.0139995338368,515.7883543056422)" style="opacity: 1;"></path><path  d="M 1369 812 L 1747 508" id="v-214" fill="none" style="pointer-events: visiblepainted; cursor: auto;"></path><g ><g id="v-204"  label-idx="0" cursor="move" transform="matrix(1,0,0,1,1558,660)" style="opacity: 1;"><rect joint-selector="rect" id="v-208" fill="#ffffff" rx="3" ry="3" pointer-events="none" width="183.970458984375" height="57.54538345336914" transform="matrix(1,0,0,1,-92,-28.8)"></rect><text joint-selector="text" id="v-207" font-size="24px" xml:space="preserve" y="0.8em" fill="#707070" text-anchor="middle" pointer-events="none" font-family="Arial" font-weight="normal" transform="matrix(1,0,0,1,0,-25)"><tspan dy="0" >Уведомление об</tspan><tspan dy="1.2em" x="0" >авторизации</tspan></text></g><g id="v-205"  label-idx="1" cursor="move" transform="matrix(1,0,0,1,1558,700.7999877929688)" style="opacity: 1;"><rect joint-selector="rect" id="v-210" fill="#ffffff" rx="3" ry="3" pointer-events="none" width="115.16119384765625" height="17.748830795288086" transform="matrix(1,0,0,1,-57.6,-8.9)"></rect><text joint-selector="text" id="v-209" font-size="17px" xml:space="preserve" y="0.8em" fill="#707070" text-anchor="middle" pointer-events="none" font-family="Arial" font-weight="normal" transform="matrix(1,0,0,1,0,-8.1)"><tspan dy="0" >[HTTPS/REST]</tspan></text></g><g id="v-206"  label-idx="2" cursor="move" transform="matrix(1,0,0,1,1548,709.2000122070312)" style="opacity: 1;"><rect joint-selector="rect" id="v-212" fill="#ffffff" rx="3" ry="3"  width="0" height="0" transform="matrix(1,0,0,1,0,0)" display="none"></rect><text joint-selector="text" id="v-211" fill="#000000" font-size="14" text-anchor="middle" pointer-events="none"></text></g></g><g  display="none" style="display: none;"></g><g  id="v-217" display="none"><g  id="v-202"><path  end="source" d="M 26 0 L 0 13 L 26 26 z"></path></g><g  id="v-203"><path  end="target" d="M 26 0 L 0 13 L 26 26 z"></path></g></g><g  id="v-216" display="none"><g  id="v-201" transform="translate(1400.1702889034934, 786.9318311463968) "><g  event="remove"><circle r="11"></circle><path transform="scale(.8) translate(-16, -16)" d="M24.778,21.419 19.276,15.917 24.777,10.415 21.949,7.585 16.447,13.087 10.945,7.585 8.117,10.415 13.618,15.917 8.116,21.419 10.946,24.248 16.447,18.746 21.948,24.248z"></path><title>Remove link.</title></g><g  event="link:options"><circle r="11" transform="translate(25)"></circle><path fill="white" transform="scale(.55) translate(29, -16)" d="M31.229,17.736c0.064-0.571,0.104-1.148,0.104-1.736s-0.04-1.166-0.104-1.737l-4.377-1.557c-0.218-0.716-0.504-1.401-0.851-2.05l1.993-4.192c-0.725-0.91-1.549-1.734-2.458-2.459l-4.193,1.994c-0.647-0.347-1.334-0.632-2.049-0.849l-1.558-4.378C17.165,0.708,16.588,0.667,16,0.667s-1.166,0.041-1.737,0.105L12.707,5.15c-0.716,0.217-1.401,0.502-2.05,0.849L6.464,4.005C5.554,4.73,4.73,5.554,4.005,6.464l1.994,4.192c-0.347,0.648-0.632,1.334-0.849,2.05l-4.378,1.557C0.708,14.834,0.667,15.412,0.667,16s0.041,1.165,0.105,1.736l4.378,1.558c0.217,0.715,0.502,1.401,0.849,2.049l-1.994,4.193c0.725,0.909,1.549,1.733,2.459,2.458l4.192-1.993c0.648,0.347,1.334,0.633,2.05,0.851l1.557,4.377c0.571,0.064,1.148,0.104,1.737,0.104c0.588,0,1.165-0.04,1.736-0.104l1.558-4.377c0.715-0.218,1.399-0.504,2.049-0.851l4.193,1.993c0.909-0.725,1.733-1.549,2.458-2.458l-1.993-4.193c0.347-0.647,0.633-1.334,0.851-2.049L31.229,17.736zM16,20.871c-2.69,0-4.872-2.182-4.872-4.871c0-2.69,2.182-4.872,4.872-4.872c2.689,0,4.871,2.182,4.871,4.872C20.871,18.689,18.689,20.871,16,20.871z"></path><title>Link options.</title></g></g></g></g><!--z-index:36--><g   id="j_18" ><path  stroke="#707070" d="M 1369 1112 L 1747 1417" id="v-233" stroke-width="2" stroke-dasharray="30 30" fill="none" style="opacity: 1;"></path><path  fill="black" stroke="black" d="M 0 0 0 0" transform="matrix(0.7783312578695282,0.6278538468650471,-0.6278538468650471,0.7783312578695282,1368.950439453125,1112)"></path><path  fill="#707070" stroke="#707070" d="M 20 0 L 0 10 L 20 20 z" id="v-235" transform="matrix(-0.7783311742657246,-0.6278539505061176,0.6278539505061176,-0.7783311742657246,1740.7710075891587,1424.7832867945933)" style="opacity: 1;"></path><path  d="M 1369 1112 L 1747 1417" id="v-234" fill="none" style="pointer-events: visiblepainted; cursor: auto;"></path><g ><g id="v-224"  label-idx="0" cursor="move" transform="matrix(1,0,0,1,1558,1264.5)" style="opacity: 1;"><rect joint-selector="rect" id="v-228" fill="#ffffff" rx="3" ry="3" pointer-events="none" width="196.99571228027344" height="86.34539413452148" transform="matrix(1,0,0,1,-98.5,-43.2)"></rect><text joint-selector="text" id="v-227" font-size="24px" xml:space="preserve" y="0.8em" fill="#707070" text-anchor="middle" pointer-events="none" font-family="Arial" font-weight="normal" transform="matrix(1,0,0,1,0,-39.4)"><tspan dy="0" >Уведомляет о</tspan><tspan dy="1.2em" x="0" >новых постах или</tspan><tspan dy="1.2em" x="0" >сообщениях</tspan></text></g><g id="v-225"  label-idx="1" cursor="move" transform="matrix(1,0,0,1,1558,1319.699951171875)" style="opacity: 1;"><rect joint-selector="rect" id="v-230" fill="#ffffff" rx="3" ry="3" pointer-events="none" width="115.16119384765625" height="17.748830795288086" transform="matrix(1,0,0,1,-57.6,-8.9)"></rect><text joint-selector="text" id="v-229" font-size="17px" xml:space="preserve" y="0.8em" fill="#707070" text-anchor="middle" pointer-events="none" font-family="Arial" font-weight="normal" transform="matrix(1,0,0,1,0,-8.1)"><tspan dy="0" >[HTTPS/REST]</tspan></text></g><g id="v-226"  label-idx="2" cursor="move" transform="matrix(1,0,0,1,1548,1328.0999755859375)" style="opacity: 1;"><rect joint-selector="rect" id="v-232" fill="#ffffff" rx="3" ry="3"  width="0" height="0" transform="matrix(1,0,0,1,0,0)" display="none"></rect><text joint-selector="text" id="v-231" fill="#000000" font-size="14" text-anchor="middle" pointer-events="none"></text></g></g><g  display="none" style="display: none;"></g><g  id="v-237" display="none"><g  id="v-222"><path  end="source" d="M 26 0 L 0 13 L 26 26 z"></path></g><g  id="v-223"><path  end="target" d="M 26 0 L 0 13 L 26 26 z"></path></g></g><g  id="v-236" display="none"><g  id="v-221" transform="translate(1400.130029793491, 1137.1181457328435) "><g  event="remove"><circle r="11"></circle><path transform="scale(.8) translate(-16, -16)" d="M24.778,21.419 19.276,15.917 24.777,10.415 21.949,7.585 16.447,13.087 10.945,7.585 8.117,10.415 13.618,15.917 8.116,21.419 10.946,24.248 16.447,18.746 21.948,24.248z"></path><title>Remove link.</title></g><g  event="link:options"><circle r="11" transform="translate(25)"></circle><path fill="white" transform="scale(.55) translate(29, -16)" d="M31.229,17.736c0.064-0.571,0.104-1.148,0.104-1.736s-0.04-1.166-0.104-1.737l-4.377-1.557c-0.218-0.716-0.504-1.401-0.851-2.05l1.993-4.192c-0.725-0.91-1.549-1.734-2.458-2.459l-4.193,1.994c-0.647-0.347-1.334-0.632-2.049-0.849l-1.558-4.378C17.165,0.708,16.588,0.667,16,0.667s-1.166,0.041-1.737,0.105L12.707,5.15c-0.716,0.217-1.401,0.502-2.05,0.849L6.464,4.005C5.554,4.73,4.73,5.554,4.005,6.464l1.994,4.192c-0.347,0.648-0.632,1.334-0.849,2.05l-4.378,1.557C0.708,14.834,0.667,15.412,0.667,16s0.041,1.165,0.105,1.736l4.378,1.558c0.217,0.715,0.502,1.401,0.849,2.049l-1.994,4.193c0.725,0.909,1.549,1.733,2.459,2.458l4.192-1.993c0.648,0.347,1.334,0.633,2.05,0.851l1.557,4.377c0.571,0.064,1.148,0.104,1.737,0.104c0.588,0,1.165-0.04,1.736-0.104l1.558-4.377c0.715-0.218,1.399-0.504,2.049-0.851l4.193,1.993c0.909-0.725,1.733-1.549,2.458-2.458l-1.993-4.193c0.347-0.647,0.633-1.334,0.851-2.049L31.229,17.736zM16,20.871c-2.69,0-4.872-2.182-4.872-4.871c0-2.69,2.182-4.872,4.872-4.872c2.689,0,4.871,2.182,4.871,4.872C20.871,18.689,18.689,20.871,16,20.871z"></path><title>Link options.</title></g></g></g></g><!--z-index:37--><g   id="j_19" ><path  stroke="#707070" d="M 1270 1112 L 1703 1858 C 1706.333333333333 1863.9999999999998 1709.9999999999998 1869.6666666666665 1714 1875 L 1821 2017" id="v-254" stroke-width="2" stroke-dasharray="30 30" fill="none" style="opacity: 1;"></path><path  fill="black" stroke="black" d="M 0 0 0 0" transform="matrix(0.5017895918100549,0.8649897141302308,-0.8649897141302308,0.5017895918100549,1270.0166015625,1112)"></path><path  fill="#707070" stroke="#707070" d="M 20 0 L 0 10 L 20 20 z" id="v-256" transform="matrix(-0.6000000826393699,-0.7999999380204659,0.7999999380204659,-0.6000000826393699,1812.5000014461891,2023.0000002065983)" style="opacity: 1;"></path><path  d="M 1270 1112 L 1703 1858 C 1706.333333333333 1863.9999999999998 1709.9999999999998 1869.6666666666665 1714 1875 L 1821 2017" id="v-255" fill="none" style="pointer-events: visiblepainted; cursor: auto;"></path><g ><g id="v-245"  label-idx="0" cursor="move" transform="matrix(1,0,0,1,1536.2135009765625,1570.649658203125)" style="opacity: 1;"><rect joint-selector="rect" id="v-249" fill="#ffffff" rx="3" ry="3" pointer-events="none" width="121.80856323242188" height="57.54538345336914" transform="matrix(1,0,0,1,-60.9,-28.8)"></rect><text joint-selector="text" id="v-248" font-size="24px" xml:space="preserve" y="0.8em" fill="#707070" text-anchor="middle" pointer-events="none" font-family="Arial" font-weight="normal" transform="matrix(1,0,0,1,0,-25)"><tspan dy="0" >Получение</tspan><tspan dy="1.2em" x="0" >рекламы</tspan></text></g><g id="v-246"  label-idx="1" cursor="move" transform="matrix(1,0,0,1,1536.2135009765625,1611.44970703125)" style="opacity: 1;"><rect joint-selector="rect" id="v-251" fill="#ffffff" rx="3" ry="3" pointer-events="none" width="115.16119384765625" height="17.748830795288086" transform="matrix(1,0,0,1,-57.6,-8.9)"></rect><text joint-selector="text" id="v-250" font-size="17px" xml:space="preserve" y="0.8em" fill="#707070" text-anchor="middle" pointer-events="none" font-family="Arial" font-weight="normal" transform="matrix(1,0,0,1,0,-8.1)"><tspan dy="0" >[HTTPS/REST]</tspan></text></g><g id="v-247"  label-idx="2" cursor="move" transform="matrix(1,0,0,1,1526.2135009765625,1619.849609375)" style="opacity: 1;"><rect joint-selector="rect" id="v-253" fill="#ffffff" rx="3" ry="3"  width="0" height="0" transform="matrix(1,0,0,1,0,0)" display="none"></rect><text joint-selector="text" id="v-252" fill="#000000" font-size="14" text-anchor="middle" pointer-events="none"></text></g></g><g  display="none" style="display: none;"><g  transform="translate(1708, 1867)" id="v-242"><circle  idx="0" r="10"></circle><path  idx="0" d="M16,5.333c-7.732,0-14,4.701-14,10.5c0,1.982,0.741,3.833,2.016,5.414L2,25.667l5.613-1.441c2.339,1.317,5.237,2.107,8.387,2.107c7.732,0,14-4.701,14-10.5C30,10.034,23.732,5.333,16,5.333z" transform="translate(5, -33)"></path><path  idx="0" transform="scale(.8) translate(9.5, -37)" d="M24.778,21.419 19.276,15.917 24.777,10.415 21.949,7.585 16.447,13.087 10.945,7.585 8.117,10.415 13.618,15.917 8.116,21.419 10.946,24.248 16.447,18.746 21.948,24.248z"><title>Remove vertex.</title></path></g></g><g  id="v-258" display="none"><g  id="v-243"><path  end="source" d="M 26 0 L 0 13 L 26 26 z"></path></g><g  id="v-244"><path  end="target" d="M 26 0 L 0 13 L 26 26 z"></path></g></g><g  id="v-257" display="none"><g  id="v-241" transform="translate(1290.0798267139926, 1146.594805377918) "><g  event="remove"><circle r="11"></circle><path transform="scale(.8) translate(-16, -16)" d="M24.778,21.419 19.276,15.917 24.777,10.415 21.949,7.585 16.447,13.087 10.945,7.585 8.117,10.415 13.618,15.917 8.116,21.419 10.946,24.248 16.447,18.746 21.948,24.248z"></path><title>Remove link.</title></g><g  event="link:options"><circle r="11" transform="translate(25)"></circle><path fill="white" transform="scale(.55) translate(29, -16)" d="M31.229,17.736c0.064-0.571,0.104-1.148,0.104-1.736s-0.04-1.166-0.104-1.737l-4.377-1.557c-0.218-0.716-0.504-1.401-0.851-2.05l1.993-4.192c-0.725-0.91-1.549-1.734-2.458-2.459l-4.193,1.994c-0.647-0.347-1.334-0.632-2.049-0.849l-1.558-4.378C17.165,0.708,16.588,0.667,16,0.667s-1.166,0.041-1.737,0.105L12.707,5.15c-0.716,0.217-1.401,0.502-2.05,0.849L6.464,4.005C5.554,4.73,4.73,5.554,4.005,6.464l1.994,4.192c-0.347,0.648-0.632,1.334-0.849,2.05l-4.378,1.557C0.708,14.834,0.667,15.412,0.667,16s0.041,1.165,0.105,1.736l4.378,1.558c0.217,0.715,0.502,1.401,0.849,2.049l-1.994,4.193c0.725,0.909,1.549,1.733,2.459,2.458l4.192-1.993c0.648,0.347,1.334,0.633,2.05,0.851l1.557,4.377c0.571,0.064,1.148,0.104,1.737,0.104c0.588,0,1.165-0.04,1.736-0.104l1.558-4.377c0.715-0.218,1.399-0.504,2.049-0.851l4.193,1.993c0.909-0.725,1.733-1.549,2.458-2.458l-1.993-4.193c0.347-0.647,0.633-1.334,0.851-2.049L31.229,17.736zM16,20.871c-2.69,0-4.872-2.182-4.872-4.871c0-2.69,2.182-4.872,4.872-4.872c2.689,0,4.871,2.182,4.871,4.872C20.871,18.689,18.689,20.871,16,20.871z"></path><title>Link options.</title></g></g></g></g><!--z-index:38--></g><g ></g><g ></g><g ></g></g></svg>